<?xml version="1.0" encoding="UTF-8"?>
<svg id="Capa_2" data-name="Capa 2" xmlns="http://www.w3.org/2000/svg" xmlns:xlink="http://www.w3.org/1999/xlink" viewBox="0 0 36.41 41.53">
  <defs>
    <style>
      .cls-1 {
        fill: #173f58;
      }

      .cls-2 {
        fill: #fff;
      }

      .cls-3 {
        fill: #049ad6;
      }

      .cls-4 {
        fill: url(#Degradado_sin_nombre_3-2);
      }

      .cls-5 {
        fill: #089ce6;
        opacity: .28;
      }

      .cls-6 {
        fill: url(#Degradado_sin_nombre_3);
      }

      .cls-7 {
        fill: url(#Degradado_sin_nombre_3-3);
      }

      .cls-8 {
        fill: url(#Degradado_sin_nombre_3-4);
      }
    </style>
    <linearGradient id="Degradado_sin_nombre_3" data-name="Degradado sin nombre 3" x1="16.69" y1="33.56" x2="17.11" y2="-.23" gradientUnits="userSpaceOnUse">
      <stop offset="0" stop-color="#173f58"/>
      <stop offset="1" stop-color="#00adef"/>
    </linearGradient>
    <linearGradient id="Degradado_sin_nombre_3-2" data-name="Degradado sin nombre 3" x1="16.69" y1="33.56" x2="17.11" y2="-.23" xlink:href="#Degradado_sin_nombre_3"/>
    <linearGradient id="Degradado_sin_nombre_3-3" data-name="Degradado sin nombre 3" x1="16.69" y1="33.59" x2="17.11" y2="-.01" xlink:href="#Degradado_sin_nombre_3"/>
    <linearGradient id="Degradado_sin_nombre_3-4" data-name="Degradado sin nombre 3" x1="6.3" y1="17.1" x2="20.86" y2="-3.36" xlink:href="#Degradado_sin_nombre_3"/>
  </defs>
  <g id="Capa_1-2" data-name="Capa 1">
    <path class="cls-1" d="M11.89,17.94h0s0,0,0,0c0,0,0,0,0,0Zm.03,4.89h0s0,0,0,0h0Zm6.49,2.39s-.01,0-.02,0c.01,.03,.02,.04,.02,.04v-.04Zm3.09-16.26s0,0,0,0h0s0,0,0,0Zm.55,2.65s0,0,0,0h0s0,0,0,0c.01,.06,.02,.13,.03,.19,0-.06-.01-.13-.02-.19Zm3.54,15.09h0s.05,0,.07,.01c-.02,0-.05,0-.07-.01Zm9.63-2.48c-.64,.94-1.35,1.82-2.24,2.57-.56,.47-1.15,.89-1.82,1.19-.62,.28-1.27,.46-1.92,.57-.74,.12-1.49,.12-2.25,.04-.28-.03-.57-.07-.85-.11-.42-.07-.83-.14-1.24-.23-.19-.04-.37-.08-.56-.13-.15-.04-.31-.07-.46-.11-.16-.04-.33-.08-.49-.13-.21-.06-.42-.11-.63-.17-.41-.11-.83-.21-1.25-.31-.56-.13-1.13-.26-1.7-.36-.52-.1-1.04-.18-1.57-.23,0,0-.01,0-.02,0-1.24-.14-2.47-.09-3.7,.16-1.51,.32-2.84,.95-4.04,1.8-.49,.34-.96,.73-1.41,1.13-.01,.01-.03,.03-.04,.05,3.22,3.15,7.73,4.94,12.55,4.55,.01,0,.02,0,.03,0,.07,0,.14-.01,.22-.02,1.5-.14,2.93-.49,4.26-1,0,0,0,0,.01,0,4.17-1.61,7.45-4.89,9.11-8.95,0,0,0,0,0,0,.05-.15,.1-.29,.15-.44-.07,.04-.11,.1-.15,.15Z"/>
    <path class="cls-1" d="M36.33,16.91c-.84-8.85-8.7-15.34-17.55-14.5C9.93,3.26,3.44,11.12,4.28,19.97c.32,3.34,1.64,6.35,3.63,8.75,.35,.43,.73,.83,1.13,1.22,.01-.02,.02-.03,.04-.05,.45-.41,.92-.79,1.41-1.13,1.2-.85,2.52-1.48,4.04-1.8,1.23-.26,2.46-.3,3.7-.16,1.77,.19,3.47,.63,5.17,1.08,1.18,.32,2.38,.58,3.6,.71,.76,.08,1.51,.07,2.25-.04,.65-.1,1.3-.29,1.92-.57,.67-.3,1.27-.72,1.82-1.19,.89-.75,1.61-1.63,2.24-2.57,.04-.06,.09-.11,.15-.15-.05,.15-.1,.29-.15,.44,.37-.91,.66-1.86,.86-2.84,.31-1.53,.4-3.12,.25-4.75Zm-24.44,1.03h0s0,0,0,0c0,0,0,0,0,0Zm.03,4.89h0s0,0,0,0c0,0,0,0,0,0Zm6.47,2.38s.01,0,.02,0v.04s0-.01-.02-.04Zm3.11-16.25s0,0,0,0c0,0,0,0,0,0h0Zm.53,2.64h.01c0,.06,.01,.13,.02,.19,0-.06-.02-.13-.03-.19Zm.39,14.31s.04,0,.06,.01c0,0,.01,0,.02,0,0,.03,0,.07,.01,.1h0s0,.02,0,.02c0,0-.04-.05-.09-.14Zm3.16,.78h0s.05,0,.07,.01c-.02,0-.05,0-.07-.01Z"/>
    <path class="cls-3" d="M21.02,6.44h0s-.01,0-.02,0v-.02s0,0,0,0c0,0,0,0,.02,.02Z"/>
    <path class="cls-6" d="M33.6,30.21c-.54,.72-1.14,1.41-1.79,2.04-5.73,5.59-15.47,7.5-23.62,2C.94,29.34-2.12,19.7,1.57,11.3c0,0,0,0,0,0,.02-.05,.04-.1,.07-.15,0,0,0,0,0,0l1.09,.3s0,0,0,0c0,0,0,0,0,0,0,0,0,.01,0,.02,0,0,0,.01,0,.02,0,.01,0,.03,0,.05,0,.02,0,.05,0,.08,0,.01,0,.02,0,.03,0,.08-.02,.19-.03,.32,0,.08-.01,.16-.02,.25,0,.03,0,.07,0,.1,0,.04,0,.08,0,.13,0,.03,0,.06,0,.1,0,.03,0,.05,0,.08,0,.03,0,.06,0,.1,0,.07,0,.15,0,.23,0,.09,0,.18,0,.28,0,0,0,.02,0,.03,0,.04,0,.07,0,.11-.02,.9,.01,2.06,.16,3.38-.38,4.16,.75,8.25,3.02,11.59,0,0,0,.01,.01,.02h0s.03,.05,.05,.07c.71,1.03,1.52,1.98,2.44,2.84,.25,.24,.51,.47,.77,.69,0,0,0,0,.01,0,.51,.42,1.04,.82,1.6,1.18,1.57,1.03,3.26,1.78,5,2.26,6.3,1.74,13.25-.09,17.93-5.22Z"/>
    <path class="cls-4" d="M33.6,30.21c-.54,.72-1.14,1.41-1.79,2.04-5.73,5.59-15.47,7.5-23.62,2C.94,29.34-2.12,19.7,1.57,11.3c0,0,0,0,0,0,.02-.05,.04-.1,.07-.15l1.09,.31s0,0,0,0c0,0,0,.01,0,.02,0,0,0,.01,0,.02,0,.01,0,.03,0,.05,0,.02,0,.05,0,.08,0,.01,0,.02,0,.03,0,.08-.02,.19-.03,.32,0,.08-.01,.16-.02,.25,0,.03,0,.07,0,.1,0,.04,0,.08,0,.13,0,.03,0,.06,0,.1,0,.03,0,.05,0,.08,0,.03,0,.06,0,.1,0,.07,0,.15,0,.23,0,.09,0,.18,0,.28,0,0,0,.02,0,.03,0,.04,0,.07,0,.11-.01,.88,.02,2.03,.16,3.35,0,.01,0,.03,0,.04-.38,4.16,.75,8.25,3.02,11.59,0,0,0,.01,.01,.02h0s.03,.05,.05,.07c.71,1.03,1.52,1.98,2.44,2.84,.25,.24,.51,.47,.77,.69,0,0,0,0,.01,0,.51,.42,1.04,.82,1.6,1.18,1.57,1.03,3.26,1.78,5,2.26,6.3,1.74,13.25-.09,17.93-5.22Z"/>
    <path class="cls-7" d="M33.6,30.21c-.54,.72-1.14,1.41-1.79,2.04-5.73,5.59-15.47,7.5-23.62,2C.94,29.34-2.12,19.7,1.57,11.3c-.02,.18-1.21,9.22,4.06,16.83,.05,.08,.1,.15,.16,.23,0,0,0,.01,.01,.02h0s.03,.05,.05,.07c.71,1.03,1.52,1.98,2.44,2.84,.25,.24,.51,.47,.77,.69,0,0,0,0,.01,0,.51,.42,1.04,.82,1.6,1.18,1.57,1.03,3.26,1.78,5,2.26,6.3,1.74,13.25-.09,17.93-5.22Z"/>
    <path class="cls-8" d="M26.56,1.75C21.77,.1,17.14,.3,12.65,2.46c-3.67,1.77-6.41,4.52-8.18,8.19-.72,1.48-1.2,3-1.49,4.53-.1,.52-.17,1.04-.21,1.55,0,.01,0,.03,0,.04-.38,4.16,.75,8.25,3.02,11.59-.05-.08-.11-.15-.16-.23C.36,20.51,1.55,11.48,1.57,11.29c0,0,0,0,0,0,.02-.05,.04-.1,.07-.15,0,0,0,0,0,0,.53-1.17,1.19-2.32,1.99-3.43C9.38-.25,19.64-1.69,26.56,1.75Z"/>
    <path class="cls-1" d="M25.59,26.69c.04,.07,.07,.15,.11,.22-.58-.11-1.19-.25-1.87-.43-.02-.07-.03-.14-.05-.21,0,0,.02,0,.03,0,.44,.12,.85,.22,1.25,.31,.07,.02,.15,.03,.22,.05,.04,0,.08,.02,.13,.03,.06,.01,.13,.03,.19,.04,.05,0,.09,.02,.14,.03-.04,0-.09-.02-.14-.03Z"/>
    <path class="cls-5" d="M15.67,35.43c-2.84-.74-5.43-2.18-7.39-4.14,.25,.24,.51,.47,.77,.69,0,0,0,0,.01,0,.51,.42,1.04,.82,1.6,1.18,1.57,1.03,3.26,1.78,5,2.26Z"/>
    <polygon class="cls-1" points="11.89 17.95 11.89 17.94 11.89 17.94 11.89 17.95"/>
    <path class="cls-1" d="M22.53,26.14s0,0-.01,0c0,0,0,0,0,0,0,0,0,0,0-.01,0-.06-.02-.13-.03-.19,0,0,.01,0,.02,0,0,.03,0,.07,.01,.1h0s0,.02,0,.02c0,.03,0,.06,0,.08Z"/>
    <path class="cls-3" d="M18.41,25.26s0-.01-.02-.04c0,0,.01,0,.02,0v.04Z"/>
    <path class="cls-1" d="M18.41,25.26s0-.01-.02-.04c0,0,.01,0,.02,0v.04Z"/>
    <polygon class="cls-1" points="11.93 22.83 11.92 22.83 11.93 22.83 11.93 22.83"/>
    <polygon class="cls-1" points="11.93 22.83 11.92 22.83 11.93 22.83 11.93 22.83"/>
    <path class="cls-1" d="M21.98,41.53h-4.47c-.77,0-1.24-.83-.86-1.49l.81-1.39c.42,.03,.85,.04,1.28,.04,1.06,0,2.12-.09,3.16-.25l.94,1.6c.39,.66-.09,1.5-.86,1.5Z"/>
    <path class="cls-1" d="M18.41,25.26s0-.01-.02-.04c0,0,.01,0,.02,0v.04Z"/>
    <path class="cls-1" d="M22.53,26.14s0,0-.01,0c0,0,0,0,0,0,0,0,0,0,0-.01,0-.06-.02-.13-.03-.19,0,0,.01,0,.02,0,0,.03,0,.07,.01,.1h0s0,.02,0,.02c0,.03,0,.06,0,.08Z"/>
    <path class="cls-1" d="M25.66,26.71s-.05,0-.07-.01h0s.05,0,.07,.01Z"/>
    <polygon class="cls-1" points="11.89 17.95 11.89 17.94 11.89 17.94 11.89 17.95"/>
    <polygon class="cls-1" points="11.93 22.83 11.92 22.83 11.93 22.83 11.93 22.83"/>
    <path class="cls-1" d="M18.41,25.26s0-.01-.02-.04c0,0,.01,0,.02,0v.04Z"/>
    <path class="cls-1" d="M21.51,8.95h0s0,0,0,0c0,0,0,0,0,0Z"/>
    <path class="cls-1" d="M22.07,11.79c0-.06-.02-.13-.03-.19h.01c0,.06,.01,.13,.02,.19Z"/>
    <path class="cls-1" d="M22.52,26.06s-.04-.05-.09-.14c.02,0,.04,0,.06,.01,0,0,.01,0,.02,0,0,.03,0,.07,.01,.1h0s0,.02,0,.02Z"/>
    <path class="cls-1" d="M25.66,26.71s-.05,0-.07-.01h0s.05,0,.07,.01Z"/>
    <path class="cls-1" d="M29.24,28.54c-1.63,1.61-3.65,2.81-5.91,3.44-.21,.06-.42,.11-.63,.16-.95,.21-1.94,.33-2.95,.33-3.58,0-6.83-1.41-9.27-3.71,1.2-.85,2.52-1.48,4.04-1.8,1.23-.26,2.46-.3,3.7-.16,0,0,.01,0,.02,0,.53,.06,1.05,.14,1.57,.23,.57,.1,1.13,.23,1.7,.36,.42,.1,.83,.21,1.25,.31,.21,.06,.42,.11,.63,.17,.16,.04,.33,.09,.49,.13,.15,.04,.31,.08,.46,.11,.19,.04,.37,.09,.56,.13,.41,.09,.82,.17,1.24,.23,.28,.04,.56,.08,.85,.11,.76,.08,1.51,.07,2.25-.04Z"/>
    <path class="cls-5" d="M35.22,24.22c-.64,.94-1.35,1.82-2.24,2.57-.56,.47-1.15,.89-1.82,1.19-.62,.28-1.27,.46-1.92,.57-.74,.12-1.49,.12-2.25,.04-.28-.03-.57-.07-.85-.11-.42-.07-.83-.14-1.24-.23-.19-.04-.37-.08-.56-.13-.15-.04-.31-.07-.46-.11-.16-.04-.33-.08-.49-.13-.21-.06-.42-.11-.63-.17-.41-.11-.83-.21-1.25-.31-.56-.13-1.13-.26-1.7-.36-.52-.1-1.04-.18-1.57-.23,0,0-.01,0-.02,0-1.24-.14-2.47-.09-3.7,.16-1.51,.32-2.84,.95-4.04,1.8-.49,.34-.96,.73-1.41,1.13-.01,.01-.03,.03-.04,.05,0,0,0,.01-.01,.02,2.67,2.87,7.29,5,12.56,4.54,.01,0,.02,0,.03,0,.07,0,.14-.01,.22-.02,1.5-.14,2.93-.49,4.26-1,0,0,0,0,.01,0,2.52-.94,4.66-2.44,6.42-4.45,1.19-1.36,2.1-2.85,2.69-4.5,0,0,0,0,0,0,.05-.15,.1-.29,.15-.44-.07,.04-.11,.1-.15,.15Z"/>
    <path class="cls-5" d="M35.37,24.06c-.05,.15-.1,.29-.15,.44,0,0,0,0,0,0-.59,1.65-1.49,3.15-2.69,4.5-1.77,2.01-3.9,3.5-6.42,4.45,0,0-.01,0-.01,0-1.34,.52-2.77,.86-4.26,1-.07,0-.14,.01-.22,.02-.01,0-.02,0-.03,0-5.27,.46-9.89-1.66-12.56-4.54,0,0,0-.01,.01-.02,.01-.02,.02-.03,.04-.05,.45-.41,.92-.79,1.41-1.13,1.2-.85,2.52-1.48,4.04-1.8,1.23-.26,2.46-.3,3.7-.16,0,0,.01,0,.02,0,.53,.06,1.05,.14,1.57,.23,.57,.1,1.13,.23,1.7,.36,.42,.1,.83,.21,1.25,.31,.21,.06,.42,.11,.63,.17,.16,.04,.33,.09,.49,.13,.15,.04,.31,.08,.46,.11,.19,.04,.37,.09,.56,.13,.41,.09,.82,.17,1.24,.23,.28,.04,.56,.08,.85,.11,.76,.08,1.51,.07,2.25-.04,.65-.1,1.3-.29,1.92-.57,.67-.3,1.27-.72,1.82-1.19,.89-.75,1.61-1.63,2.24-2.57,.04-.06,.09-.11,.15-.15Z"/>
    <path class="cls-5" d="M35.37,24.06c-.05,.15-.1,.29-.15,.44,0,0,0,0,0,0-.59,1.65-1.49,3.15-2.69,4.5-1.77,2.01-3.9,3.5-6.42,4.45,0,0-.01,0-.01,0-1.34,.52-2.77,.86-4.26,1-.07,0-.14,.01-.22,.02-.01,0-.02,0-.03,0-5.27,.46-9.89-1.66-12.56-4.54,0,0,0-.01,.01-.02,.01-.02,.02-.03,.04-.05,.45-.41,.92-.79,1.41-1.13,1.2-.85,2.52-1.48,4.04-1.8,1.23-.26,2.46-.3,3.7-.16,0,0,.01,0,.02,0,.53,.06,1.05,.14,1.57,.23,.57,.1,1.13,.23,1.7,.36,.42,.1,.83,.21,1.25,.31,.21,.06,.42,.11,.63,.17,.16,.04,.33,.09,.49,.13,.15,.04,.31,.08,.46,.11,.19,.04,.37,.09,.56,.13,.41,.09,.82,.17,1.24,.23,.28,.04,.56,.08,.85,.11,.76,.08,1.51,.07,2.25-.04,.65-.1,1.3-.29,1.92-.57,.67-.3,1.27-.72,1.82-1.19,.89-.75,1.61-1.63,2.24-2.57,.04-.06,.09-.11,.15-.15Z"/>
    <path class="cls-5" d="M35.37,24.06c-.05,.15-.1,.29-.15,.44,0,0,0,0,0,0-.59,1.65-1.49,3.15-2.69,4.5-1.77,2.01-3.9,3.5-6.42,4.45,0,0-.01,0-.01,0-.43,.16-.87,.3-1.32,.43-1.07,.3-2.13,.5-3.16,.59-.01,0-.02,0-.03,0-5.27,.46-9.89-1.66-12.56-4.54,0,0,0-.01,.01-.02,.01-.02,.02-.03,.04-.05,.45-.41,.92-.79,1.41-1.13,1.2-.85,2.52-1.48,4.04-1.8,1.23-.26,2.46-.3,3.7-.16,0,0,.01,0,.02,0,.53,.06,1.05,.14,1.57,.23,.57,.1,1.13,.23,1.7,.36,.42,.1,.83,.21,1.25,.31,.21,.06,.42,.11,.63,.17,.16,.04,.33,.09,.49,.13,.15,.04,.31,.08,.46,.11,.19,.04,.37,.09,.56,.13,.41,.09,.82,.17,1.24,.23,.28,.04,.56,.08,.85,.11,.76,.08,1.51,.07,2.25-.04,.65-.1,1.3-.29,1.92-.57,.67-.3,1.27-.72,1.82-1.19,.89-.75,1.61-1.63,2.24-2.57,.04-.06,.09-.11,.15-.15Z"/>
    <polygon class="cls-1" points="16.6 24 18.43 22.43 18.18 22.1 16.9 22.79 16.21 23.65 16.6 24"/>
    <polygon class="cls-1" points="24.6 23.08 21.94 22.4 21.99 21.91 23.61 21.95 24.77 22.5 24.6 23.08"/>
    <g>
      <path class="cls-3" d="M15.39,9.54c.22-1.51,1.52-2.97,2.89-3.32,1.52-.38,3.02,.17,3.97,1.48,.05,.07,.08,.16,.16,.31-.82,.16-1.57,.2-2.29-.14-.28-.13-.54-.3-.82-.43-.65-.29-1.2-.19-1.68,.33-.22,.24-.4,.52-.59,.78-.39,.54-.93,.84-1.63,.98Z"/>
      <path class="cls-3" d="M22.58,26.56c-.48-.12-.97-.24-1.45-.35-.15-.63-.23-1.28-.33-1.93-.06-.35-.1-.72,.16-1.08,.37,.12,.49,.4,.62,.65,.36,.66,.66,1.35,.86,2.07,0,0,0,.01,0,.02,.06,.21,.1,.42,.14,.63Z"/>
      <path class="cls-3" d="M18.86,15.59c-.95,.19-1.23-.02-1.31-.98-.03-.37,.09-.64,.4-.82,.73-.44,1.52-.73,2.37-.85,.31-.04,.47,.08,.52,.38,.14,.81,.01,1.51-.9,1.88-.35,.14-.72,.26-1.08,.39Z"/>
      <path class="cls-3" d="M22.17,22.74c-.14-.23-.26-.37-.33-.54-.36-.94-.67-1.89-.68-2.91,0-.13,.01-.27,.03-.4,.03-.25,.2-.34,.41-.27,.37,.12,.73,.25,1.08,.4,.1,.04,.21,.12,.26,.22,.32,.59,.52,1.24,.33,1.88-.18,.6-.65,1.07-1.11,1.62Z"/>
      <path class="cls-3" d="M19.56,22.27c.06,.47,.13,.83,.14,1.19,0,.39-.13,.51-.5,.4-.35-.1-.7-.23-1.01-.42-.17-.11-.3-.34-.37-.55-.18-.49-.3-1-.48-1.48-.1-.27-.07-.49,.14-.68,.04-.04,.09-.08,.13-.12,.87-.75,1.2-.67,1.58,.41,.15,.43,.26,.89,.36,1.23Z"/>
      <path class="cls-3" d="M21.71,14.44c.04-.48,.07-.96,.13-1.43,.03-.3,.22-.51,.53-.53,.46-.02,.92,0,1.38,.03,.26,.02,.43,.2,.4,.47-.07,.61-.15,1.22-.24,1.83-.05,.34-.3,.51-.63,.47-.36-.04-.72-.12-1.07-.22-.29-.08-.42-.32-.49-.62Z"/>
      <path class="cls-3" d="M18.37,12.87c-.89,.13-.99,.03-.93-.87,.03-.41,.19-.71,.57-.85,.58-.21,1.16-.42,1.75-.58,.52-.13,.68-.02,.84,.43,.2,.54,.13,.86-.32,1.08-.62,.29-1.28,.52-1.92,.78Z"/>
      <path class="cls-3" d="M21.21,17.49c.08-.41,.12-.84,.23-1.24,.16-.55,.47-.73,1.06-.66,.21,.02,.42,.08,.61,.17,.42,.2,.48,.33,.39,.78-.11,.51-.25,1.01-.36,1.52-.07,.3-.25,.42-.53,.41-.65-.02-1.32-.38-1.38-.97Z"/>
      <path class="cls-3" d="M17.5,10.29c0-.76,.14-1.46,.39-2.13,.19-.49,1.06-.66,1.35-.24,.29,.4,.49,.87,.7,1.32,.1,.21,.07,.46-.18,.54-.66,.22-1.32,.4-1.99,.59-.06,.02-.14-.04-.28-.08Z"/>
      <path class="cls-3" d="M25.61,26.63s-.03,.04-.04,.06c-.04,.06-.09,.11-.13,.17-.09,.12-.18,.23-.27,.35-.44-.1-.91-.21-1.42-.34,.01-.14,.04-.28,.07-.42,.01-.05,.02-.11,.04-.16,.2-.77,.62-1.54,1.22-2.03,.22,.7,.42,1.32,.59,1.94,.04,.13,.02,.33-.06,.43Z"/>
      <path class="cls-3" d="M22.72,23.96c-.13-.85,.19-1.43,.63-1.96,.17-.2,.4-.19,.54,.03,.29,.45,.54,.92,.79,1.4,.04,.09,.03,.24-.02,.33-.22,.47-.43,.95-.71,1.38-.25,.38-.52,.35-.74-.07-.21-.39-.36-.8-.49-1.1Z"/>
      <path class="cls-3" d="M15.67,18.82c.08-.21,.09-.45,.21-.54,.35-.26,.73-.49,1.12-.69,.23-.12,.45-.04,.62,.17,.02,.03,.05,.06,.07,.09,.81,1.01,.55,1.92-.69,2.36-.2,.07-.39,.07-.52-.12-.28-.41-.54-.83-.82-1.27Z"/>
      <path class="cls-3" d="M16.91,15.91c.07,.44,.04,.8-.24,1.04-.3,.26-.63,.49-.98,.69-.23,.13-.46,.06-.56-.22-.15-.43-.3-.87-.44-1.31-.03-.09-.02-.19,0-.28,.1-.38,1.26-1.04,1.63-.91,.11,.04,.23,.15,.28,.26,.13,.26,.22,.53,.3,.72Z"/>
      <path class="cls-3" d="M16.36,12.07c.39,1.52-.34,2.64-1.77,2.76-.21-.57-.15-1.15-.07-1.74,.02-.12,.11-.25,.21-.33,.46-.39,.98-.65,1.63-.69Z"/>
      <path class="cls-3" d="M18.41,17.28c-.1-.5-.07-.6,.39-.82,.38-.18,.78-.33,1.18-.45,.51-.15,.68-.01,.65,.51-.02,.27-.07,.53-.1,.8-.05,.38-.25,.61-.61,.76-.92,.37-1.31,.18-1.51-.8Z"/>
      <path class="cls-3" d="M20.19,26.02c-.61-.12-1.23-.21-1.86-.28-.07,0-.13-.01-.2-.02-.09-.4-.11-1.25,.02-1.39,.07-.08,.23-.14,.35-.13,.98,.05,1.68,.85,1.69,1.82Z"/>
      <path class="cls-3" d="M23.83,11.1c.12,.62,.02,.74-.57,.72-.25,0-.5-.03-.74-.08-.77-.14-1.13-.57-1.14-1.35,0-.24,.1-.4,.32-.38,.53,.04,1.08,.06,1.59,.19,.44,.11,.42,.59,.53,.89Z"/>
      <path class="cls-3" d="M16.7,9.65c.08,1.37-.62,2.2-2,2.41-.05-.59,0-1.19,.31-1.67,.36-.57,1.01-.7,1.69-.75Z"/>
      <path class="cls-3" d="M23.25,9.75c-.76,.07-1.45-.02-2.13-.25-.09-.03-.18-.09-.23-.16-.18-.22-.47-.43-.34-.74,.13-.31,.46-.23,.72-.21,.35,.03,.69,.05,1.03,.12,.64,.12,.89,.45,.95,1.25Z"/>
    </g>
    <g>
      <g>
        <path class="cls-2" d="M14.58,14.96s0,.09,0,.14c0,.01,0,.03,0,.04h0s0,.06,0,.09c0,0,0,0,0,0,0,.05,0,.1,.01,.15,0,.04,0,.08,.02,.11,0,.03,0,.05,.01,.08,0,.09,0,.2-.01,.33h0c0,.16,0,.33,.01,.53,0,.04,0,.09,0,.14,.02,.44,.05,.96,.07,1.53h0c.02,.69,.03,1.44,0,2.17h0c0,.19-.02,.37-.04,.56-.01,.14-.03,.28-.05,.42,0,.04-.01,.08-.02,.12h0c-.02,.15-.05,.3-.07,.44-.04,.21-.09,.41-.14,.61-.12,.41-.27,.79-.47,1.12-.44,.72-1.12,1.17-2.12,1.13-.56,.13-1.14-.09-1.64-.5-.18-.15-.35-.32-.51-.5-.18-.21-.34-.45-.49-.7-.01-.02-.02-.04-.03-.06-.25-.44-.44-.92-.55-1.4-.3-1.26-.07-2.53,1.08-3.05h0s.01,0,.02,0c.11-.05,.23-.09,.37-.13,.12-.02,.26-.02,.41,.01,0,0,0,0,0,0,.22,.07,.39,.18,.52,.33,.01,.01,.02,.02,.03,.04,.59,.7,.38,2.06,.66,2.91,.66-1.54,.2-3.67-.09-5.58,0-.01,0-.03,0-.04-.04-.28-.08-.57-.12-.84-.04-.31-.06-.62-.07-.91,.16-.76,1.03-1.4,1.94-1.62,0,0,0,0,.01,0,.04,0,.08-.02,.12-.03h0c.22-.04,.68-.07,.98,.22,.04,.03,.07,.07,.1,.11t0,0s0,0,0,0c.02,.04,.04,.08,.06,.12,.02,.04,.03,.07,.05,.1h0c.04,.09,.07,.18,.09,.26,.01,.05,.02,.1,.03,.15,.02,.14,0,.26,0,.38-.02,.13-.05,.25-.08,.39,0,.02-.01,.04-.02,.06,0,.03-.01,.06-.02,.09-.03,.15-.06,.31-.06,.49Z"/>
        <path class="cls-2" d="M20.84,19.8c0,.08,0,.16-.02,.24,0,.04-.01,.09-.02,.13,0,.06-.02,.12-.03,.17,0,.01,0,.03,0,.04-.04,.17-.1,.33-.16,.49,0,0,0,0,0,0-.02,.05-.05,.11-.07,.16-.11,.22-.24,.44-.4,.64,0,0,0,0,0,0-.03,.04-.07,.09-.11,.13-.08,.1-.17,.19-.26,.27-.1,.09-.21,.18-.31,.26-.05,.03-.09,.06-.14,.09,0,0-.02,.01-.03,.02-.02,.01-.04,.02-.06,.04-.03,.02-.05,.03-.08,.04-.02,0-.04,.02-.05,.03,0,0,0,0-.01,0-.01,0-.03,.01-.04,.02-.19,.1-.39,.17-.6,.21-.03,0-.06,.01-.09,.02,0,0-.01,0-.02,0-.02,0-.04,0-.07,0,0,0-.02,0-.02,0-.15,.02-.29,.02-.44,.01-.19,.02-.37,.02-.55,.02-.11,0-.21-.01-.32-.03-.02,0-.03,0-.05,0-.02,0-.04,0-.06,0-.58-.1-1.07-.34-1.5-.68-.18-.14-.35-.31-.5-.49-.08-.09-.15-.18-.22-.28h0s0,0,0,0h0s-.04-.06-.06-.09c-.06-.09-.12-.19-.18-.28-.94-1.63-1-3.97-.06-5.44h0s.02-.04,.04-.06c.06-.09,.12-.17,.19-.26,0,0,0,0,0,0,.02-.03,.03-.06,.05-.09h0s0,0,0,0c.05-.08,.1-.17,.15-.25h0c.07-.1,.13-.2,.2-.29,.19-.25,.4-.47,.63-.65t0,0s.03-.02,.04-.03c.15-.13,.31-.23,.47-.33,0,0,.01,0,.02-.01,.02,0,.03-.02,.05-.03,0,0,0,0,0,0,.35-.2,.72-.32,1.06-.38,.01,0,.02,0,.04,0,.1-.02,.2-.03,.3-.03h0c.16,0,.32,0,.46,.02,.16,.02,.32,.06,.46,.12,.1,.04,.19,.08,.27,.13,.06,.03,.11,.07,.16,.11,.11,.08,.2,.18,.27,.3,.02,.03,.03,.05,.05,.08,0,0,0,0,0,0,.09,.16,.14,.34,.15,.55,.02,.41-.14,.9-.53,1.45,0,0,0,0,0,0-.07,.09-.14,.19-.22,.28,.32,.09,.52,.25,.64,.44,.2,.29,.23,.65,.26,.93,.04,.3,.08,.5,.34,.43,.06,.04,.11,.07,.16,.11,.08,.06,.16,.13,.23,.2,0,0,0,0,0,0,.08,.08,.15,.16,.21,.25,.03,.04,.06,.09,.09,.13h0s.06,.1,.08,.15c.03,.05,.05,.11,.07,.17,.06,.16,.1,.34,.12,.51,0,.01,0,.02,0,.04h0c0,.08,0,.17,0,.25Z"/>
        <path class="cls-2" d="M26.02,16.21h0s0,.03,0,.04c0,0,0,.01,0,.02h0c-.07,.48-.35,1.01-.84,1.46h0c-.24,.22-.53,.42-.88,.58h0s0,0,0,0c-.18,.08-.37,.16-.58,.23-.01,0-.02,0-.03,0-.23,.07-.47,.12-.74,.16,0,.12,0,.24,.02,.37,.04,.36,.13,.74,.21,1.13,.03,.17,.07,.33,.09,.49,.01,.07,.02,.13,.03,.19,.02,.2,.03,.38,.02,.56-.02,.24-.07,.46-.19,.64-.05,.15-.25,.41-.52,.63-.02,.01-.04,.03-.06,.04-.03,.02-.06,.05-.09,.07-.13,.09-.27,.17-.42,.23-.07,.03-.14,.05-.21,.07-.02,0-.04,0-.06,.01-.04,0-.09,.01-.13,.02,0,0-.01,0-.02,0-.12,0-.24-.02-.36-.07-.04-.02-.08-.04-.11-.07-.25-.15-.45-.33-.6-.52,0,0,0,0,0,0-.18-.22-.3-.47-.38-.72,0,0,0,0,0,0,0-.02-.01-.04-.02-.07-.02-.08-.04-.16-.06-.24,0,0,0,0,0,0-.08-.39-.09-.8-.08-1.21,0-.26,.02-.52,.03-.77,0-.2,.02-.39,.02-.57v-.04c0-.14,0-.27-.02-.4,0-.04,0-.08-.01-.13,0-.03,0-.07-.02-.1-.06-.04-.13-.08-.19-.12-.26-.17-.49-.35-.7-.54-.1-.09-.19-.19-.28-.29-.44-.52-.68-1.12-.7-1.78,0-.26,.02-.52,.09-.77h0c.06-.21,.14-.41,.25-.61,.01-.02,.02-.04,.04-.07,.11-.19,.25-.38,.4-.54,.06-.06,.12-.13,.18-.18,.14-.14,.3-.26,.46-.36,.17-.11,.36-.21,.54-.29,.33-.13,.67-.21,1.01-.21,.26,0,.51,.04,.75,.14,0,0,0,0,0,0,0,0,0,0,.01,0,.15,.06,.29,.14,.43,.24,.23,.16,.44,.39,.62,.67,.02,.03,.04,.06,.06,.1h0c.03,.05,.06,.12,.09,.2,.02,.06,.04,.13,.05,.21,.03,.14,.03,.31-.02,.48-.01,.05-.03,.11-.06,.17,0,0,0,0,0,0-.02,.03-.04,.07-.06,.1,0,0,0,0,0,.01-.16,.26-.4,.49-.74,.56-.14,.03-.26,.06-.36,.09-.04,0-.08,.02-.11,.03-.56,.14-.41,.11-.03,.22,.04,0,.07,.02,.11,.03,.15,.05,.33,.11,.5,.21,.22-.14,.44-.27,.64-.38,.1-.05,.19-.1,.29-.14,.08-.04,.17-.08,.25-.11,.16-.07,.31-.13,.46-.17,.2-.06,.38-.1,.55-.13,.02,0,.04,0,.06,0,0,0,.02,0,.03,0,.01,0,.03,0,.04,0h.03s.01,0,.02,0c0,0,0,0,0,0,.01,0,.02,0,.03,0,0,0,0,0,0,0,0,0,0,0,0,0,.01,0,.02,0,.03,0h0s.08,0,.12,0h0s.03,0,.05,0c.02,0,.04,0,.05,0,0,0,0,0,.01,0,.02,0,.03,0,.05,0,.02,0,.04,0,.06,0,.02,0,.03,0,.05,0,.02,0,.04,0,.06,.01,.01,0,.03,0,.04,.01,.02,0,.04,.01,.06,.02,.04,.02,.08,.03,.12,.05,.02,0,.04,.02,.06,.03,.03,.01,.05,.03,.07,.05,.02,.02,.05,.03,.07,.05,.02,.01,.03,.03,.05,.04,.02,.02,.04,.04,.06,.07,0,.01,.02,.02,.03,.03,.02,.02,.03,.04,.05,.07,0,0,0,.01,.01,.02,0,0,0,0,0,.01,.02,.03,.03,.05,.04,.08,0,.01,.01,.03,.02,.04,0,.01,.01,.03,.02,.04h0s.01,.04,.02,.06c0,.02,.01,.04,.02,.06,.04,.14,.05,.3,.03,.47Z"/>
        <path class="cls-2" d="M29.37,22.82c-.52-.38-.93-.94-1.56-1.26,0,1.02-.2,2.53-1.45,2.61-1.06-.07-1.58-.91-1.64-1.54,.01-1.12,.24-2.38-.44-3.34-.01-.02-.02-.03-.04-.05-.06-.11-.09-.23-.09-.35,0-.29,.12-.55,.13-.58,0,0,0,0,0,0h0c.3-.56,.27-1.08,.13-1.63-.05-.22-.13-.45-.2-.69-.04-.13-.08-.27-.13-.42,0-.01,0-.03-.01-.05-.04-.13-.07-.27-.1-.41,0-.01,0-.02,0-.03-.02-.15-.04-.3-.05-.45-.02-.32-.02-.64,.03-.95,.05-.3,.13-.58,.25-.84,.11-.22,.25-.42,.42-.59,.06-.06,.13-.12,.21-.18,0,0,0,0,0,0,0,0,0,0,.01,0,.01-.01,.03-.02,.05-.03,0,0,0,0,.02-.01,.17-.11,.62-.34,1.08-.06t0,0c.17,.14,.31,.28,.43,.43h0c.17,.23,.3,.47,.39,.73,.21,.58,.25,1.25,.29,2.03,.92-1.44,2.82-3.74,3.74-1.97,0,0,0,0,0,0,.02,.04,.04,.09,.07,.14,0,0,0,0,0,.01,.14,.35,.39,1.26-.32,2.21-.08,.1-.16,.2-.25,.3-.26,.29-.56,.58-.9,.93-.34,.36-.73,.79-1.17,1.37,1.25,.93,2.7,1.18,3.52,2.11,1.15,1.63-.68,3.59-2.44,2.55Z"/>
        <path class="cls-1" d="M11.93,14.05c.12-.33,.47-.63,1.08-.92l.52-.02c.08,.12,.11,.28,.1,.46l-.1,.19-.02,.08-.12,.29-.02,.08c.04,.26,.07,.63,.1,1.11,.03,.48,.05,1.85,.05,4.12,0,2.27-.42,3.56-1.27,3.86-1.42,.58-2.47-.12-3.16-2.1-.29-1.02-.09-1.8,.6-2.34l.18-.03,.08,.02c.06,.07,.14,.17,.22,.3l.11,.57v.18s.04,.07,.04,.07v.1s.02,.28,.02,.28c.02,.1,.04,.22,.04,.36v.1s0,.07,0,.07l.03,.13v.1c.02,.12,.06,.26,.13,.41v.08s.03,.07,.03,.07c.18,.22,.42,.39,.73,.51,.17,0,.35-.03,.54-.12,.65-.87,.86-2.04,.62-3.49l-.16-1.92-.03-.1c0-.1-.02-.21-.07-.33v-.13s-.2-1.58-.2-1.58c-.05-.13-.07-.3-.08-.49Z"/>
        <path class="cls-1" d="M14.37,19.52c-.38-1.71-.2-3.07,.55-4.1,.74-1.03,1.45-1.62,2.13-1.77,.67-.15,1.05,.07,1.14,.67s-.22,.93-.93,.98c-.85,.1-1.4,.56-1.67,1.35-.3,.63-.4,1.07-.31,1.3,.13-.07,.58-.36,1.37-.9,.78-.53,1.35-.59,1.69-.17,.18,.52,.11,.85-.21,1-.31,.15-.54,.25-.69,.28-.63,.25-1.17,.67-1.63,1.25,0,.22,.16,.42,.51,.6,.84,.32,1.54,.04,2.12-.84,.09-.1,.19-.23,.31-.4,.12-.16,.3-.25,.53-.26,.32,.27,.47,.66,.45,1.17-.07,.41-.18,.71-.32,.9-.87,1.09-2.01,1.36-3.4,.8-.33-.15-.63-.35-.9-.6-.27-.25-.51-.68-.73-1.28Z"/>
        <path class="cls-1" d="M23.51,15.99c1.02-.82,1.45-.8,1.29,.05-.1,.38-.4,.73-.91,1.07-.38,.27-1.11,.44-2.18,.53l.18,2.01c.52,1.29,.31,2.07-.62,2.33-.6-.24-.83-1.16-.68-2.75l-.07-1.85-.4-.19c-.93-.55-1.41-1.22-1.44-2,.02-.93,.49-1.59,1.41-1.97,.92-.38,1.56-.15,1.93,.7-.03,.12-.11,.22-.24,.3-1.13,.22-1.72,.51-1.78,.88-.06,.37,.23,.8,.87,1.28,.22-.26,.52-.22,.93,.12,.64-.02,1.22-.18,1.72-.5Z"/>
        <path class="cls-1" d="M30.8,20.43l-.09-.04c-.14-.19-.57-.44-1.28-.76-.71-.31-1.61-.85-2.71-1.61,1.45-1.76,2.49-2.94,3.12-3.53,.06-.18,.13-.33,.2-.44-.04-.74-.25-1.03-.63-.87-.38,.16-.83,.62-1.35,1.38-.52,.76-1.19,1.6-2.01,2.52l-.04-.82h0s-.02-.53-.02-.53c-.13-.5-.58-.84-1.37-.76l.12,.45,.1,.37,.17,.62,.16,1.29,.02,.16c-.26,.22-.45,.43-.58,.63,.17,.24,.39,.36,.67,.36v.26c.02,1.15,.02,2.22,0,3.19,.31,.54,.61,.75,.88,.64,.27-.11,.43-.57,.49-1.37,.06-.8-.09-1.62-.44-2.45,1.1,.92,2,1.58,2.71,2l.5,.58c.86,.38,1.4,.22,1.6-.48,0-.33-.07-.6-.21-.81Z"/>
      </g>
      <path class="cls-1" d="M25.98,15.75c-.14-.47-.59-.78-1.35-.69l-.1-.32-.07-.94c-.02-.44,.1-.77,.36-1.01,0,0,0,0,0,0,.02-.02,.18-.14,.36-.15,.2,0,.42,.14,.52,.75h0c.1,.42,.17,.95,.23,1.61v.12s.02,.17,.02,.17l.03,.46Z"/>
    </g>
  </g>
</svg>