<?xml version="1.0" encoding="utf-8"?>
<!-- Generator: Adobe Illustrator 26.5.0, SVG Export Plug-In . SVG Version: 6.00 Build 0)  -->
<svg version="1.1" id="Capa_2_00000125574951638839324160000005766711635493547181_"
	 xmlns="http://www.w3.org/2000/svg" xmlns:xlink="http://www.w3.org/1999/xlink" x="0px" y="0px" viewBox="0 0 192 108"
	 style="enable-background:new 0 0 192 108;" xml:space="preserve">
<style type="text/css">
	.st0{opacity:0.52;}
	.st1{clip-path:url(#SVGID_00000082370393618372421980000004352619782821441716_);}
	.st2{fill:#049AD6;}
</style>
<g class="st0">
	<defs>
		<rect id="SVGID_1_" class="st0" width="192" height="108"/>
	</defs>
	<clipPath id="SVGID_00000044894332942911794830000015986892786819474561_">
		<use xlink:href="#SVGID_1_"  style="overflow:visible;"/>
	</clipPath>
	<g style="clip-path:url(#SVGID_00000044894332942911794830000015986892786819474561_);">
		<g>
			<path class="st2" d="M176.4,40.8c-0.8,0-1.6-0.1-2.4-0.1c-0.3-0.5-0.7-1-0.9-1.5c-0.6-1.1-0.8-2.2-0.5-3.4c0.1-0.5,0.3-1,0.6-1.3
				c0.5-0.8,1.3-0.9,2.1-0.3c0.7,0.5,1.1,1.2,1.3,1.9C177.2,37.6,177.1,39.1,176.4,40.8L176.4,40.8z"/>
			<path class="st2" d="M165.8,34c-0.7,0.3-1.4,0.5-2.2,0.8c-1.3-1.5-1.9-3.2-1.7-5.2c0.1-0.5,0.2-0.9,0.5-1.3
				c0.5-0.9,1.4-1.1,2.2-0.5c0.5,0.4,0.9,0.9,1.2,1.4c0.6,1.1,0.6,2.2,0.3,3.4C166,33,165.9,33.5,165.8,34L165.8,34z"/>
			<path class="st2" d="M166.4,56.9c-0.5-1.3-0.6-2.7-0.1-4.1c0.2-0.8,0.6-1.6,1.4-2.2c0.8-0.6,1.6-0.5,2.2,0.3
				c0.5,0.7,0.7,1.5,0.6,2.3c0,1.1-0.4,2-1,2.9c-0.2,0.3-0.4,0.6-0.7,1C168.1,57,167.3,56.9,166.4,56.9L166.4,56.9z"/>
			<path class="st2" d="M176.6,64.9c-0.7-0.2-1.4-0.3-2.2-0.5c-0.2-0.5-0.4-1.1-0.6-1.7c-0.4-1.5-0.3-2.9,0.6-4.2
				c1-1.2,2.2-1.1,2.9,0.3c0.2,0.5,0.4,1.1,0.5,1.6C178,62,177.6,63.5,176.6,64.9L176.6,64.9z"/>
			<path class="st2" d="M165.7,86.4c0.1-0.6,0.1-1,0.1-1.5c0.2-1.3,0.8-2.5,1.9-3.3c0.3-0.2,0.6-0.4,1-0.5c1.1-0.4,1.9,0.1,2.1,1.2
				c0.1,0.6,0,1.3-0.1,1.9c-0.5,1.6-1.5,2.8-3.1,3.7C166.9,87.4,166.3,86.9,165.7,86.4L165.7,86.4z"/>
			<path class="st2" d="M164.2,75.8c-0.7-0.1-1.5-0.3-2.2-0.4c-0.3-1.6-0.1-3.1,0.7-4.4c0.4-0.6,0.8-1.1,1.4-1.6
				c1-0.8,2.1-0.4,2.5,0.8c0.5,1.6,0.1,3-0.9,4.2C165.1,74.9,164.7,75.3,164.2,75.8L164.2,75.8z"/>
			<path class="st2" d="M150.9,92c0.5-1.7,1.4-2.9,2.8-3.8c0.6-0.3,1.3-0.6,2-0.6c1-0.1,1.6,0.6,1.6,1.6c-0.1,1-0.6,1.8-1.3,2.5
				c-0.8,0.8-1.9,1.2-3,1.5c-0.1,0.1-0.4,0-0.5-0.2C152,92.8,151.5,92.4,150.9,92L150.9,92z"/>
			<path class="st2" d="M150.8,107.2c-0.5-0.6-0.9-1.2-1.3-1.8c0.4-1.4,0.9-2.7,2.1-3.6c0.6-0.5,1.3-0.8,2.1-0.8
				c1,0,1.6,0.6,1.6,1.6c0,1-0.5,1.8-1.1,2.5C153.3,106.1,152.2,106.8,150.8,107.2L150.8,107.2z"/>
			<path class="st2" d="M133.6,105.8c-0.6-0.5-1.2-0.9-1.8-1.4c0.7-2,1.9-3.5,4-4.1c0.7-0.2,1.5-0.3,2.1,0.4
				c0.6,0.7,0.4,1.4,0.1,2.2c-0.6,1.2-1.5,2.1-2.8,2.6C134.7,105.5,134.2,105.7,133.6,105.8L133.6,105.8z"/>
			<path class="st2" d="M163.8,35.3c0.8-0.3,1.5-0.6,2.4-0.9c0.4,0.7,0.9,1.3,1.1,2c0.2,0.4,0.2,1,0.1,1.5c-0.1,0.7-0.6,1.1-1.3,1.2
				c-0.7,0.1-1.3-0.2-1.6-0.8c-0.2-0.4-0.3-0.8-0.4-1.2C164,36.5,163.9,36,163.8,35.3L163.8,35.3z"/>
			<path class="st2" d="M173.9,41.3c0.9,0,1.6,0.1,2.5,0.1c0.1,0.8,0.2,1.6,0.3,2.4c0,1.1-0.6,1.8-1.6,1.8c-0.9,0.1-1.6-0.6-1.8-1.7
				C173.2,43.1,173.5,42.2,173.9,41.3z"/>
			<path class="st2" d="M166.5,57.7c0.9,0,1.7,0,2.5,0c0.4,1,0.7,1.9,0.4,2.9c-0.3,1.2-1.6,1.7-2.6,1c-0.5-0.4-0.7-0.9-0.7-1.5
				C166.3,59.4,166.4,58.6,166.5,57.7L166.5,57.7z"/>
			<path class="st2" d="M174.1,65c0.8,0.2,1.5,0.4,2.3,0.6c-0.1,0.8-0.1,1.7-0.2,2.5c-0.2,1-0.9,1.5-1.8,1.4
				c-0.9-0.1-1.4-0.9-1.4-1.9C173,66.8,173.3,66.1,174.1,65L174.1,65z"/>
			<path class="st2" d="M165.2,86.8c0.6,0.5,1.2,1,1.8,1.6c-0.5,0.7-0.9,1.5-1.4,2.2c-0.6,0.8-1.5,0.9-2.2,0.3
				c-0.7-0.5-0.9-1.4-0.4-2.2C163.3,87.9,164.1,87.3,165.2,86.8z"/>
			<path class="st2" d="M161.9,76c0.8,0.2,1.6,0.3,2.4,0.4c0.3,0.9,0.3,1.9,0,2.8c-0.2,0.6-0.7,1.1-1.4,1.2
				c-0.7,0.1-1.2-0.2-1.6-0.7c-0.3-0.4-0.4-0.9-0.2-1.4C161.3,77.5,161.6,76.8,161.9,76z"/>
			<path class="st2" d="M148.8,105.6c0.5,0.7,0.9,1.3,1.4,1.9c-0.6,0.6-1.2,1.3-1.8,1.8c-0.8,0.6-1.6,0.5-2.2-0.2
				c-0.6-0.6-0.6-1.5,0.1-2.2C146.9,106.2,147.8,105.8,148.8,105.6L148.8,105.6z"/>
			<path class="st2" d="M150.6,92.5c0.6,0.5,1.3,0.9,1.9,1.4c-0.2,1-0.6,1.9-1.4,2.6c-0.7,0.6-1.6,0.5-2.2-0.1
				c-0.6-0.6-0.7-1.5-0.1-2.2C149.3,93.7,149.9,93.2,150.6,92.5L150.6,92.5z"/>
			<path class="st2" d="M131.5,104.9c0.7,0.5,1.3,1,1.9,1.5c-0.1,0.9-0.6,1.6-1.1,2.2c-0.4,0.4-0.9,0.7-1.5,0.7
				c-1.2,0-2-1.4-1.2-2.4C130,106.2,130.8,105.6,131.5,104.9L131.5,104.9z"/>
		</g>
	</g>
</g>
</svg>
