<?xml version="1.0" encoding="utf-8"?>
<!-- Generator: Adobe Illustrator 26.5.0, SVG Export Plug-In . SVG Version: 6.00 Build 0)  -->
<svg version="1.1" id="Capa_2_00000087409974910714725750000006772548501594061696_"
	 xmlns="http://www.w3.org/2000/svg" xmlns:xlink="http://www.w3.org/1999/xlink" x="0px" y="0px" viewBox="0 0 192 108"
	 style="enable-background:new 0 0 192 108;" xml:space="preserve">
<style type="text/css">
	.st0{fill:none;}
	.st1{opacity:0.39;}
	.st2{fill:#049AD6;}
</style>
<rect class="st0" width="192" height="108"/>
<g class="st1">
	<g>
		<path class="st2" d="M173.1,11.6c-0.8-0.3-1.5-0.6-2.2-0.9c-0.1-0.6-0.2-1.2-0.3-1.8c-0.2-1.2,0.1-2.3,0.7-3.3
			c0.3-0.4,0.7-0.8,1.1-1c0.8-0.5,1.6-0.3,2.1,0.4c0.5,0.7,0.6,1.5,0.6,2.3C174.9,8.9,174.3,10.3,173.1,11.6L173.1,11.6z"/>
		<path class="st2" d="M165.6,1.4c-0.8,0-1.5,0-2.3,0c-0.7-1.9-0.6-3.7,0.3-5.5c0.2-0.4,0.6-0.8,0.9-1c0.8-0.6,1.7-0.5,2.2,0.3
			c0.3,0.5,0.5,1.2,0.6,1.8c0.1,1.2-0.2,2.3-0.9,3.3C166.1,0.6,165.9,0.9,165.6,1.4L165.6,1.4z"/>
		<path class="st2" d="M157.9,23c0-1.4,0.5-2.7,1.4-3.9c0.5-0.7,1.2-1.3,2.1-1.5c1-0.3,1.7,0.1,2,1.1c0.2,0.8,0.1,1.6-0.2,2.3
			c-0.4,1-1.1,1.8-2,2.3c-0.3,0.2-0.6,0.4-1,0.6C159.5,23.7,158.7,23.4,157.9,23L157.9,23z"/>
		<path class="st2" d="M164.5,34.2c-0.6-0.4-1.2-0.8-1.9-1.3c0-0.6,0-1.2,0-1.8c0.1-1.5,0.7-2.8,2.1-3.6c1.4-0.8,2.4-0.3,2.6,1.3
			c0.1,0.5,0,1.1-0.1,1.7C166.8,32,165.9,33.2,164.5,34.2L164.5,34.2z"/>
		<path class="st2" d="M146.5,50.2c0.2-0.5,0.4-0.9,0.7-1.3c0.6-1.2,1.6-2,2.9-2.4c0.3-0.1,0.7-0.2,1.1-0.1c1.1,0,1.7,0.8,1.5,1.9
			c-0.1,0.6-0.4,1.2-0.8,1.7c-1,1.3-2.4,2.1-4.2,2.3C147.3,51.6,146.9,50.9,146.5,50.2L146.5,50.2z"/>
		<path class="st2" d="M149,39.8c-0.6-0.4-1.3-0.8-1.9-1.2c0.3-1.6,1-2.9,2.2-3.8c0.5-0.4,1.2-0.8,1.9-1c1.2-0.3,2.1,0.4,2,1.6
			c-0.1,1.6-1,2.8-2.4,3.6C150.2,39.3,149.6,39.5,149,39.8z"/>
		<path class="st2" d="M130.8,50.1c1.1-1.4,2.4-2.2,4-2.5c0.7-0.1,1.4,0,2.1,0.1c1,0.3,1.3,1.1,0.9,2.1s-1.2,1.5-2.1,1.9
			c-1.1,0.5-2.2,0.4-3.3,0.3c-0.2,0-0.4-0.2-0.4-0.3C131.4,51.2,131.1,50.7,130.8,50.1L130.8,50.1z"/>
		<path class="st2" d="M65.9,113.2c-0.8,0-1.5,0-2.3,0c-0.6-1.7-0.8-3.3,0-4.9c0.3-0.6,0.7-1.1,1.2-1.6c0.6-0.6,1.4-0.4,1.9,0.2
			c0.3,0.4,0.6,0.8,0.7,1.3c0.3,1.3,0.1,2.6-0.7,3.7C66.5,112.4,66.2,112.8,65.9,113.2z"/>
		<path class="st2" d="M72.3,88.4c-0.7-0.2-1.4-0.5-2.2-0.7c0-2.2,0.6-4.1,2.4-5.4c0.3-0.2,0.7-0.3,1-0.4c0.7-0.1,1.3,0.1,1.5,0.8
			c0.2,0.6,0.3,1.2,0.2,1.8c-0.1,1.2-0.8,2.2-1.7,3C73.2,87.8,72.8,88.1,72.3,88.4L72.3,88.4z"/>
		<path class="st2" d="M125.1,64.2c-0.2-0.8-0.4-1.5-0.6-2.2c0.9-1.2,1.8-2.2,3.3-2.6c0.8-0.2,1.5-0.3,2.3,0c1,0.3,1.3,1.1,0.9,2.1
			c-0.4,0.9-1.1,1.5-1.9,2C127.9,64.1,126.6,64.4,125.1,64.2z"/>
		<path class="st2" d="M86.8,81.5c-0.4-0.7-0.8-1.3-1.2-2c0.2-0.5,0.4-0.9,0.6-1.3c0.7-1.4,1.7-2.4,3.3-2.7c1.7-0.3,2.6,0.7,2,2.3
			c-0.6,1.8-2,2.8-3.7,3.4C87.5,81.3,87.2,81.4,86.8,81.5z"/>
		<path class="st2" d="M109.6,56.7c-0.4-0.6-0.8-1.3-1.2-2c1.4-1.6,3.1-2.5,5.2-2.4c0.8,0,1.5,0.3,1.8,1.1c0.3,0.8-0.1,1.5-0.7,2.1
			c-1,1-2.2,1.4-3.5,1.4C110.7,56.9,110.2,56.8,109.6,56.7L109.6,56.7z"/>
		<path class="st2" d="M90.9,67.8c-0.6-0.5-1.1-0.9-1.7-1.4c0.7-2,2-3.4,4-4c0.7-0.2,1.6-0.3,2.1,0.4c0.6,0.7,0.4,1.5,0,2.3
			c-0.7,1.3-1.8,2.1-3.2,2.5C91.8,67.6,91.4,67.7,90.9,67.8L90.9,67.8z"/>
		<path class="st2" d="M75.7,100.8c-0.6-0.4-1.2-0.9-1.8-1.3c0-0.6,0-1.1,0-1.6c0.2-1.6,0.8-3,2.4-3.8c1.2-0.6,2.1-0.1,2.3,1.2
			c0.1,0.7,0,1.4-0.2,2.1C77.9,98.8,77,100,75.7,100.8L75.7,100.8z"/>
		<path class="st2" d="M104.6,70c-0.2-0.8-0.4-1.6-0.6-2.4c0.7-0.6,1.4-1.3,2.1-1.9c0.9-0.7,2-0.8,3.1-0.6c1.4,0.3,1.9,1.3,1.1,2.5
			c-0.8,1.4-2.2,2-3.7,2.3C106,70,105.3,69.9,104.6,70z"/>
		<path class="st2" d="M163.3,2c0.9,0,1.6,0,2.5,0c0.1,0.8,0.3,1.5,0.4,2.3c0,0.5-0.2,1-0.4,1.4c-0.4,0.6-1,0.8-1.7,0.6
			S163,5.7,162.9,5c-0.1-0.4,0-0.9,0.1-1.3C163,3.1,163.2,2.6,163.3,2z"/>
		<path class="st2" d="M170.5,11.2c0.8,0.3,1.5,0.7,2.3,1c-0.2,0.8-0.4,1.6-0.6,2.4c-0.4,1-1.2,1.4-2.1,1.2c-0.9-0.3-1.3-1.2-1-2.2
			C169.2,12.6,169.8,11.9,170.5,11.2L170.5,11.2z"/>
		<path class="st2" d="M157.7,23.8c0.8,0.3,1.6,0.6,2.3,0.9c0,1-0.1,2-0.7,2.9c-0.7,1-2.1,1.1-2.8,0c-0.4-0.5-0.4-1.1-0.1-1.6
			C156.9,25.3,157.3,24.6,157.7,23.8L157.7,23.8z"/>
		<path class="st2" d="M162.1,33.3c0.6,0.5,1.3,0.9,2,1.4c-0.4,0.8-0.7,1.5-1.1,2.2c-0.5,0.9-1.4,1.1-2.2,0.7
			c-0.8-0.4-1-1.3-0.6-2.2C160.4,34.6,161,34,162.1,33.3z"/>
		<path class="st2" d="M145.9,50.4c0.4,0.7,0.7,1.3,1.1,2.1c-0.7,0.5-1.4,1.1-2.1,1.5c-0.8,0.5-1.7,0.3-2.2-0.5
			c-0.5-0.7-0.3-1.6,0.4-2.2C143.8,50.8,144.7,50.5,145.9,50.4L145.9,50.4z"/>
		<path class="st2" d="M146.7,39.1c0.7,0.4,1.4,0.8,2,1.2c-0.1,1-0.4,1.9-1,2.6c-0.4,0.5-1,0.8-1.7,0.6c-0.6-0.2-1-0.6-1.2-1.2
			c-0.1-0.5,0-1,0.3-1.4C145.7,40.4,146.2,39.8,146.7,39.1L146.7,39.1z"/>
		<path class="st2" d="M123.9,62c0.2,0.8,0.4,1.5,0.6,2.3c-0.8,0.4-1.5,0.8-2.3,1c-0.9,0.3-1.7-0.1-2-1c-0.3-0.8,0-1.6,0.8-2
			C121.8,61.8,122.8,61.9,123.9,62L123.9,62z"/>
		<path class="st2" d="M73.3,99.9c0.7,0.5,1.3,0.9,2,1.4c-0.4,0.7-0.7,1.5-1.1,2.1c-0.2,0.4-0.7,0.7-1.1,0.8
			c-1.2,0.3-2.2-0.7-1.9-1.9c0.2-0.7,0.6-1.2,1.2-1.7C72.7,100.4,73,100.2,73.3,99.9L73.3,99.9z"/>
		<path class="st2" d="M72.2,89c0.1,1.1,0.1,2.1-0.6,3c-0.4,0.6-1.1,0.9-1.7,0.7c-0.7-0.2-1.1-0.7-1.2-1.3c0-0.4,0.1-0.8,0.2-1.2
			c0.3-0.6,0.6-1.2,1-1.9C70.7,88.5,71.5,88.8,72.2,89L72.2,89z"/>
		<path class="st2" d="M130.2,50.5c0.4,0.7,0.8,1.3,1.3,2c-0.6,0.9-1.3,1.6-2.3,1.9c-0.9,0.3-1.7-0.1-2-0.8c-0.3-0.8-0.1-1.6,0.7-2
			C128.6,51.1,129.4,50.9,130.2,50.5L130.2,50.5z"/>
		<path class="st2" d="M107.9,55.1c0.4,0.8,0.8,1.4,1.2,2c-0.4,0.8-1.1,1.3-1.8,1.7c-0.5,0.3-1.1,0.3-1.6,0.1
			c-1.1-0.5-1.3-2-0.3-2.7C106.1,55.7,107,55.5,107.9,55.1L107.9,55.1z"/>
		<path class="st2" d="M104,70c-0.8,0.3-1.4,0.7-2.2,0.9c-1,0.3-1.8,0-2.2-0.9c-0.3-0.8,0-1.7,1-2.1c0.7-0.3,1.5-0.4,2.8-0.2
			C103.6,68.4,103.8,69.2,104,70z"/>
		<path class="st2" d="M88.8,66.9c0.6,0.5,1.2,1,1.8,1.5c-0.4,1.1-0.8,2.2-2,2.7c-1.1,0.5-2.3-0.3-2.2-1.5c0-0.4,0.3-0.9,0.6-1.2
			C87.6,67.9,88.2,67.4,88.8,66.9L88.8,66.9z"/>
		<path class="st2" d="M86.2,81.8c-0.8,0.6-1.4,1.1-2.1,1.6c-0.6,0.4-1.3,0.4-1.8-0.1c-0.8-0.7-0.8-1.8,0.2-2.6
			c0.7-0.6,1.6-0.9,2.5-0.9C85.4,80.4,85.8,81.1,86.2,81.8L86.2,81.8z"/>
	</g>
</g>
</svg>
