<?xml version="1.0" encoding="UTF-8"?>
<svg id="Capa_2" data-name="Capa 2" xmlns="http://www.w3.org/2000/svg" xmlns:xlink="http://www.w3.org/1999/xlink" viewBox="0 0 17.34 19.79">
  <defs>
    <style>
      .cls-1 {
        fill: url(#Degradado_sin_nombre_7-3);
      }

      .cls-2 {
        fill: #173f58;
      }

      .cls-3 {
        fill: #fff;
      }

      .cls-4 {
        fill: #049ad6;
      }

      .cls-5 {
        fill: url(#Degradado_sin_nombre_7-2);
      }

      .cls-6 {
        fill: #089ce6;
        opacity: .28;
      }

      .cls-7 {
        fill: url(#Degradado_sin_nombre_4);
      }

      .cls-8 {
        fill: url(#Degradado_sin_nombre_7);
      }
    </style>
    <linearGradient id="Degradado_sin_nombre_7" data-name="Degradado sin nombre 7" x1="7.95" y1="15.99" x2="8.15" y2="-.11" gradientUnits="userSpaceOnUse">
      <stop offset="0" stop-color="#173f58"/>
      <stop offset="1" stop-color="#00adef"/>
    </linearGradient>
    <linearGradient id="Degradado_sin_nombre_7-2" data-name="Degradado sin nombre 7" x1="7.95" y1="15.99" x2="8.15" y2="-.11" xlink:href="#Degradado_sin_nombre_7"/>
    <linearGradient id="Degradado_sin_nombre_4" data-name="Degradado sin nombre 4" x1="7.95" y1="16" x2="8.15" y2="0" gradientUnits="userSpaceOnUse">
      <stop offset="0" stop-color="#089ce6" stop-opacity=".28"/>
      <stop offset="1" stop-color="#00adef"/>
    </linearGradient>
    <linearGradient id="Degradado_sin_nombre_7-3" data-name="Degradado sin nombre 7" x1="3" y1="8.15" x2="9.94" y2="-1.6" xlink:href="#Degradado_sin_nombre_7"/>
  </defs>
  <g id="Capa_1-2" data-name="Capa 1">
    <path class="cls-2" d="M5.66,8.55h0s0,0,0,0c0,0,0,0,0,0Zm.02,2.33h0s0,0,0,0h0Zm3.09,1.14s0,0,0,0c0,.01,0,.02,0,.02v-.02Zm1.47-7.75s0,0,0,0h0s0,0,0,0Zm.26,1.26s0,0,0,0h0s0,0,0,0c0,.03,.01,.06,.02,.09,0-.03,0-.06,0-.09Zm1.69,7.19h0s.02,0,.03,0c-.01,0-.02,0-.03,0Zm4.59-1.18c-.3,.45-.64,.87-1.07,1.22-.26,.22-.55,.42-.87,.57-.3,.13-.6,.22-.91,.27-.35,.06-.71,.06-1.07,.02-.14-.01-.27-.03-.4-.05-.2-.03-.4-.07-.59-.11-.09-.02-.18-.04-.27-.06-.07-.02-.15-.04-.22-.05-.08-.02-.16-.04-.23-.06-.1-.03-.2-.05-.3-.08-.2-.05-.4-.1-.59-.15-.27-.06-.54-.12-.81-.17-.25-.05-.5-.08-.75-.11,0,0,0,0,0,0-.59-.06-1.18-.04-1.76,.08-.72,.15-1.35,.45-1.92,.86-.23,.16-.46,.35-.67,.54,0,0-.01,.02-.02,.02,1.53,1.5,3.68,2.35,5.98,2.17,0,0,.01,0,.02,0,.03,0,.07,0,.1,0,.71-.07,1.39-.23,2.03-.48,0,0,0,0,0,0,1.99-.77,3.55-2.33,4.34-4.26,0,0,0,0,0,0,.02-.07,.05-.14,.07-.21-.03,.02-.05,.05-.07,.07Z"/>
    <path class="cls-6" d="M17.31,8.06c-.4-4.22-4.15-7.31-8.36-6.91C4.73,1.55,1.64,5.3,2.04,9.51c.15,1.59,.78,3.02,1.73,4.17,.17,.2,.35,.4,.54,.58,0,0,.01-.02,.02-.02,.22-.19,.44-.38,.67-.54,.57-.4,1.2-.71,1.92-.86,.58-.12,1.17-.14,1.76-.08,.84,.09,1.65,.3,2.46,.51,.56,.15,1.13,.28,1.72,.34,.36,.04,.72,.03,1.07-.02,.31-.05,.62-.14,.91-.27,.32-.14,.6-.34,.87-.57,.42-.36,.77-.78,1.07-1.22,.02-.03,.04-.05,.07-.07-.02,.07-.05,.14-.07,.21,.18-.43,.31-.89,.41-1.35,.15-.73,.19-1.49,.12-2.26Zm-11.65,.49h0s0,0,0,0c0,0,0,0,0,0Zm.02,2.33h0s0,0,0,0c0,0,0,0,0,0Zm3.08,1.13s0,0,0,0v.02s0,0,0-.02Zm1.48-7.74s0,0,0,0c0,0,0,0,0,0h0Zm.25,1.26h0s0,.06,0,.09c0-.03,0-.06-.02-.09Zm.19,6.82s.02,0,.03,0c0,0,0,0,0,0,0,.02,0,.03,0,.05h0s0,.01,0,.01c0,0-.02-.02-.04-.07Zm1.51,.37h0s.02,0,.03,0c-.01,0-.02,0-.03,0Z"/>
    <path class="cls-3" d="M15.69,1.96c.08,0,.14,.03,.19,.09,.05,.06,.07,.12,.07,.2,0,.09-.04,.17-.11,.24-.07,.06-.14,.09-.23,.09s-.16-.02-.21-.07c-.06-.05-.08-.12-.08-.21,0-.11,.03-.19,.09-.25,.06-.06,.15-.09,.27-.09Zm-.29,.34c0,.07,.02,.12,.06,.15,.04,.03,.09,.05,.15,.05s.12-.02,.17-.06c.06-.05,.08-.11,.08-.18,0-.06-.02-.11-.05-.15-.04-.04-.08-.07-.14-.07-.09,0-.16,.02-.21,.07-.05,.04-.07,.11-.07,.2Zm.15-.21s-.06,.07-.06,.12c0,.05,0,.09,0,.13,0,.04,0,.08,.02,.11s.04,.03,.08-.02c0-.01,0-.03,0-.04,0-.01-.01-.02-.01-.04,0-.01,0-.03,0-.05,.12,.09,.19,.12,.22,.08s.02-.06-.04-.07c-.06,0-.1-.02-.14-.05,.1-.03,.15-.07,.15-.14,0-.06-.03-.1-.08-.09-.05,0-.09,.02-.13,.05Zm.14,.04s-.01,.05-.04,.06c-.03,.01-.05,.02-.08,.02,0,0,0,0,0,0,0-.04,.02-.07,.05-.08,.05-.02,.08-.02,.08,0Z"/>
    <path class="cls-4" d="M10.01,3.07h0s0,0,0,0h0s0,0,0,0c0,0,0,0,0,0Z"/>
    <path class="cls-8" d="M16.01,14.39c-.26,.34-.54,.67-.85,.97-2.73,2.66-7.37,3.57-11.25,.95C.45,13.98-1.01,9.39,.75,5.38c0,0,0,0,0,0,.01-.02,.02-.05,.03-.07,0,0,0,0,0,0l.52,.15s0,0,0,0c0,0,0,0,0,0,0,0,0,0,0,0,0,0,0,0,0,.01,0,0,0,.02,0,.03,0,.01,0,.02,0,.04,0,0,0,.01,0,.02,0,.04,0,.09-.01,.15,0,.04,0,.08,0,.12,0,.02,0,.03,0,.05,0,.02,0,.04,0,.06,0,.01,0,.03,0,.05,0,.01,0,.02,0,.04,0,.02,0,.03,0,.05,0,.04,0,.07,0,.11,0,.04,0,.09,0,.13,0,0,0,0,0,.01,0,.02,0,.04,0,.05,0,.43,0,.98,.07,1.61-.18,1.98,.36,3.93,1.44,5.52,0,0,0,0,0,.01h0s.02,.02,.02,.04c.34,.49,.73,.94,1.16,1.35,.12,.11,.24,.22,.37,.33,0,0,0,0,0,0,.24,.2,.5,.39,.76,.56,.75,.49,1.55,.85,2.38,1.08,3,.83,6.31-.04,8.54-2.49Z"/>
    <path class="cls-5" d="M16.01,14.39c-.26,.34-.54,.67-.85,.97-2.73,2.66-7.37,3.57-11.25,.95C.45,13.98-1.01,9.39,.75,5.38c0,0,0,0,0,0,.01-.02,.02-.05,.03-.07l.52,.15s0,0,0,0c0,0,0,0,0,0,0,0,0,0,0,.01,0,0,0,.02,0,.03,0,.01,0,.02,0,.04,0,0,0,.01,0,.02,0,.04,0,.09-.01,.15,0,.04,0,.08,0,.12,0,.02,0,.03,0,.05,0,.02,0,.04,0,.06,0,.01,0,.03,0,.05,0,.01,0,.02,0,.04,0,.02,0,.03,0,.05,0,.04,0,.07,0,.11,0,.04,0,.09,0,.13,0,0,0,0,0,.01,0,.02,0,.04,0,.05,0,.42,0,.97,.08,1.59,0,0,0,.01,0,.02-.18,1.98,.36,3.93,1.44,5.52,0,0,0,0,0,.01h0s.02,.02,.02,.04c.34,.49,.73,.94,1.16,1.35,.12,.11,.24,.22,.37,.33,0,0,0,0,0,0,.24,.2,.5,.39,.76,.56,.75,.49,1.55,.85,2.38,1.08,3,.83,6.31-.04,8.54-2.49Z"/>
    <path class="cls-7" d="M16.01,14.39c-.26,.34-.54,.67-.85,.97-2.73,2.66-7.37,3.57-11.25,.95C.45,13.98-1.01,9.39,.75,5.38c-.01,.09-.58,4.39,1.93,8.02,.02,.04,.05,.07,.08,.11,0,0,0,0,0,.01h0s.02,.02,.02,.04c.34,.49,.73,.94,1.16,1.35,.12,.11,.24,.22,.37,.33,0,0,0,0,0,0,.24,.2,.5,.39,.76,.56,.75,.49,1.55,.85,2.38,1.08,3,.83,6.31-.04,8.54-2.49Z"/>
    <path class="cls-1" d="M12.66,.84C10.37,.05,8.17,.14,6.03,1.17c-1.75,.84-3.05,2.15-3.9,3.9-.34,.71-.57,1.43-.71,2.16-.05,.25-.08,.49-.1,.74,0,0,0,.01,0,.02-.18,1.98,.36,3.93,1.44,5.52-.03-.04-.05-.07-.08-.11C.17,9.77,.74,5.47,.75,5.38c0,0,0,0,0,0,.01-.02,.02-.05,.03-.07,0,0,0,0,0,0,.25-.56,.57-1.1,.95-1.63C4.47-.12,9.35-.8,12.66,.84Z"/>
    <path class="cls-2" d="M12.19,12.72s.03,.07,.05,.1c-.27-.05-.57-.12-.89-.21,0-.03-.01-.07-.02-.1,0,0,0,0,.01,0,.21,.06,.41,.1,.59,.15,.04,0,.07,.02,.11,.02,.02,0,.04,0,.06,.01,.03,0,.06,.01,.09,.02,.02,0,.04,0,.06,.01-.02,0-.04,0-.06-.01Z"/>
    <path class="cls-6" d="M7.47,16.88c-1.35-.35-2.59-1.04-3.52-1.97,.12,.11,.24,.22,.37,.33,0,0,0,0,0,0,.24,.2,.5,.39,.76,.56,.75,.49,1.55,.85,2.38,1.08Z"/>
    <polygon class="cls-2" points="5.67 8.55 5.66 8.55 5.66 8.55 5.67 8.55"/>
    <path class="cls-2" d="M10.74,12.45s0,0,0,0c0,0,0,0,0,0,0,0,0,0,0,0,0-.03,0-.06-.01-.09,0,0,0,0,0,0,0,.02,0,.03,0,.05h0s0,.01,0,.01c0,.01,0,.03,0,.04Z"/>
    <path class="cls-4" d="M8.77,12.03s0,0,0-.02c0,0,0,0,0,0v.02Z"/>
    <path class="cls-2" d="M8.77,12.03s0,0,0-.02c0,0,0,0,0,0v.02Z"/>
    <polygon class="cls-2" points="5.68 10.88 5.68 10.88 5.68 10.88 5.68 10.88"/>
    <polygon class="cls-2" points="5.68 10.88 5.68 10.88 5.68 10.88 5.68 10.88"/>
    <path class="cls-6" d="M10.47,19.79h-2.13c-.36,0-.59-.39-.41-.71l.39-.66c.2,.01,.41,.02,.61,.02,.51,0,1.01-.04,1.5-.12l.45,.76c.19,.31-.04,.71-.41,.71Z"/>
    <path class="cls-2" d="M8.77,12.03s0,0,0-.02c0,0,0,0,0,0v.02Z"/>
    <path class="cls-2" d="M10.74,12.45s0,0,0,0c0,0,0,0,0,0,0,0,0,0,0,0,0-.03,0-.06-.01-.09,0,0,0,0,0,0,0,.02,0,.03,0,.05h0s0,.01,0,.01c0,.01,0,.03,0,.04Z"/>
    <path class="cls-2" d="M12.22,12.72s-.02,0-.03,0h0s.02,0,.03,0Z"/>
    <polygon class="cls-2" points="5.67 8.55 5.66 8.55 5.66 8.55 5.67 8.55"/>
    <polygon class="cls-2" points="5.68 10.88 5.68 10.88 5.68 10.88 5.68 10.88"/>
    <path class="cls-2" d="M8.77,12.03s0,0,0-.02c0,0,0,0,0,0v.02Z"/>
    <polygon class="cls-2" points="10.25 4.27 10.25 4.27 10.24 4.27 10.25 4.27"/>
    <path class="cls-2" d="M10.52,5.62s0-.06-.02-.09h0s0,.06,0,.09Z"/>
    <path class="cls-2" d="M10.73,12.41s-.02-.02-.04-.07c0,0,.02,0,.03,0,0,0,0,0,0,0,0,.02,0,.03,0,.05h0s0,.01,0,.01Z"/>
    <path class="cls-2" d="M12.22,12.72s-.02,0-.03,0h0s.02,0,.03,0Z"/>
    <path class="cls-2" d="M13.93,13.59c-.78,.77-1.74,1.34-2.82,1.64-.1,.03-.2,.05-.3,.07-.45,.1-.92,.16-1.41,.16-1.7,0-3.26-.67-4.41-1.77,.57-.4,1.2-.71,1.92-.86,.58-.12,1.17-.14,1.76-.08,0,0,0,0,0,0,.25,.03,.5,.07,.75,.11,.27,.05,.54,.11,.81,.17,.2,.05,.4,.1,.59,.15,.1,.03,.2,.05,.3,.08,.08,.02,.16,.04,.23,.06,.07,.02,.15,.04,.22,.05,.09,.02,.18,.04,.27,.06,.2,.04,.39,.08,.59,.11,.13,.02,.27,.04,.4,.05,.36,.04,.72,.03,1.07-.02Z"/>
    <path class="cls-6" d="M16.78,11.54c-.3,.45-.64,.87-1.07,1.22-.26,.22-.55,.42-.87,.57-.3,.13-.6,.22-.91,.27-.35,.06-.71,.06-1.07,.02-.14-.01-.27-.03-.4-.05-.2-.03-.4-.07-.59-.11-.09-.02-.18-.04-.27-.06-.07-.02-.15-.04-.22-.05-.08-.02-.16-.04-.23-.06-.1-.03-.2-.05-.3-.08-.2-.05-.4-.1-.59-.15-.27-.06-.54-.12-.81-.17-.25-.05-.5-.08-.75-.11,0,0,0,0,0,0-.59-.06-1.18-.04-1.76,.08-.72,.15-1.35,.45-1.92,.86-.23,.16-.46,.35-.67,.54,0,0-.01,.02-.02,.02,0,0,0,0,0,0,1.27,1.37,3.47,2.38,5.99,2.16,0,0,.01,0,.02,0,.03,0,.07,0,.1,0,.71-.07,1.39-.23,2.03-.48,0,0,0,0,0,0,1.2-.45,2.22-1.16,3.06-2.12,.57-.65,1-1.36,1.28-2.14,0,0,0,0,0,0,.02-.07,.05-.14,.07-.21-.03,.02-.05,.05-.07,.07Z"/>
    <path class="cls-6" d="M16.85,11.46c-.02,.07-.05,.14-.07,.21,0,0,0,0,0,0-.28,.79-.71,1.5-1.28,2.14-.84,.96-1.86,1.67-3.06,2.12,0,0,0,0,0,0-.64,.25-1.32,.41-2.03,.48-.03,0-.07,0-.1,0,0,0-.01,0-.02,0-2.51,.22-4.71-.79-5.99-2.16,0,0,0,0,0,0,0,0,.01-.02,.02-.02,.22-.19,.44-.38,.67-.54,.57-.4,1.2-.71,1.92-.86,.58-.12,1.17-.14,1.76-.08,0,0,0,0,0,0,.25,.03,.5,.07,.75,.11,.27,.05,.54,.11,.81,.17,.2,.05,.4,.1,.59,.15,.1,.03,.2,.05,.3,.08,.08,.02,.16,.04,.23,.06,.07,.02,.15,.04,.22,.05,.09,.02,.18,.04,.27,.06,.2,.04,.39,.08,.59,.11,.13,.02,.27,.04,.4,.05,.36,.04,.72,.03,1.07-.02,.31-.05,.62-.14,.91-.27,.32-.14,.6-.34,.87-.57,.42-.36,.77-.78,1.07-1.22,.02-.03,.04-.05,.07-.07Z"/>
    <path class="cls-6" d="M16.85,11.46c-.02,.07-.05,.14-.07,.21,0,0,0,0,0,0-.28,.79-.71,1.5-1.28,2.14-.84,.96-1.86,1.67-3.06,2.12,0,0,0,0,0,0-.64,.25-1.32,.41-2.03,.48-.03,0-.07,0-.1,0,0,0-.01,0-.02,0-2.51,.22-4.71-.79-5.99-2.16,0,0,0,0,0,0,0,0,.01-.02,.02-.02,.22-.19,.44-.38,.67-.54,.57-.4,1.2-.71,1.92-.86,.58-.12,1.17-.14,1.76-.08,0,0,0,0,0,0,.25,.03,.5,.07,.75,.11,.27,.05,.54,.11,.81,.17,.2,.05,.4,.1,.59,.15,.1,.03,.2,.05,.3,.08,.08,.02,.16,.04,.23,.06,.07,.02,.15,.04,.22,.05,.09,.02,.18,.04,.27,.06,.2,.04,.39,.08,.59,.11,.13,.02,.27,.04,.4,.05,.36,.04,.72,.03,1.07-.02,.31-.05,.62-.14,.91-.27,.32-.14,.6-.34,.87-.57,.42-.36,.77-.78,1.07-1.22,.02-.03,.04-.05,.07-.07Z"/>
    <path class="cls-6" d="M16.85,11.46c-.02,.07-.05,.14-.07,.21,0,0,0,0,0,0-.28,.79-.71,1.5-1.28,2.14-.84,.96-1.86,1.67-3.06,2.12,0,0,0,0,0,0-.2,.08-.41,.15-.63,.21-.51,.14-1.01,.24-1.5,.28,0,0-.01,0-.02,0-2.51,.22-4.71-.79-5.99-2.16,0,0,0,0,0,0,0,0,.01-.02,.02-.02,.22-.19,.44-.38,.67-.54,.57-.4,1.2-.71,1.92-.86,.58-.12,1.17-.14,1.76-.08,0,0,0,0,0,0,.25,.03,.5,.07,.75,.11,.27,.05,.54,.11,.81,.17,.2,.05,.4,.1,.59,.15,.1,.03,.2,.05,.3,.08,.08,.02,.16,.04,.23,.06,.07,.02,.15,.04,.22,.05,.09,.02,.18,.04,.27,.06,.2,.04,.39,.08,.59,.11,.13,.02,.27,.04,.4,.05,.36,.04,.72,.03,1.07-.02,.31-.05,.62-.14,.91-.27,.32-.14,.6-.34,.87-.57,.42-.36,.77-.78,1.07-1.22,.02-.03,.04-.05,.07-.07Z"/>
    <g>
      <path class="cls-3" d="M6.43,14.55l-.27,.44-.11-.07,.11-.18-.17-.1-.11,.18-.11-.07,.27-.44,.11,.07-.11,.17,.17,.1,.11-.17,.11,.07Z"/>
      <path class="cls-3" d="M6.59,14.74l-.05,.09,.15,.08-.04,.09-.15-.08-.05,.1,.17,.09-.05,.09-.28-.15,.24-.46,.28,.15-.05,.09-.17-.09Z"/>
      <path class="cls-3" d="M6.85,14.9s.08-.04,.12-.05c.04,0,.09,0,.14,.02,.06,.02,.1,.06,.13,.11s.04,.1,.03,.16l-.13-.06s0-.04-.02-.06-.03-.03-.05-.04c-.04-.02-.07-.02-.1,0-.03,.02-.06,.04-.08,.09-.02,.04-.02,.08,0,.11,.01,.03,.04,.06,.07,.07,.02,0,.04,.01,.07,0s.04-.01,.06-.03l.13,.05s-.08,.08-.13,.09c-.05,.01-.11,0-.16-.02-.05-.02-.08-.05-.11-.08-.03-.04-.04-.08-.05-.12,0-.05,0-.09,.02-.14s.05-.08,.08-.11Z"/>
      <path class="cls-3" d="M7.84,15.14l-.16,.49-.12-.04,.07-.2-.19-.06-.07,.2-.12-.04,.16-.49,.12,.04-.06,.19,.19,.06,.06-.19,.12,.04Z"/>
      <path class="cls-3" d="M7.94,15.67s-.06-.07-.07-.11c-.01-.04-.02-.09,0-.14s.03-.09,.07-.13c.03-.03,.07-.06,.12-.07,.04-.01,.09-.01,.14,0,.05,.01,.09,.03,.12,.06,.03,.03,.06,.07,.07,.11,.01,.04,.02,.09,0,.14-.01,.05-.03,.09-.07,.12-.03,.03-.07,.06-.12,.07-.04,.01-.09,.01-.14,0-.05-.01-.09-.03-.12-.06Zm.25-.07s.05-.05,.06-.1c.01-.04,0-.08-.01-.12-.02-.03-.05-.05-.09-.06-.04,0-.08,0-.11,.02-.03,.02-.05,.05-.06,.1-.01,.04,0,.08,.01,.12,.02,.03,.05,.05,.09,.06,.04,0,.08,0,.11-.02Z"/>
      <path class="cls-3" d="M8.54,15.82s-.05-.04-.06-.06c-.01-.03-.02-.06-.02-.09l.13,.02s0,.04,.01,.05c0,.01,.02,.02,.04,.02,.02,0,.03,0,.05,0,.01,0,.02-.02,.02-.03,0-.01,0-.02,0-.03,0,0-.02-.02-.03-.03-.01,0-.03-.02-.05-.03-.03-.02-.06-.03-.08-.04-.02-.01-.04-.03-.05-.05-.01-.02-.02-.05-.01-.08,0-.05,.03-.08,.07-.1,.04-.02,.09-.03,.14-.02,.06,0,.1,.03,.13,.06,.03,.03,.04,.07,.04,.12l-.13-.02s0-.03-.01-.04-.02-.02-.04-.02c-.02,0-.03,0-.04,0-.01,0-.02,.02-.02,.03,0,.02,0,.03,.02,.04,.01,.01,.04,.02,.07,.04,.03,.02,.06,.03,.08,.04,.02,.01,.03,.03,.05,.05,.01,.02,.02,.05,.01,.08,0,.03-.02,.05-.03,.08-.02,.02-.04,.04-.07,.05-.03,.01-.06,.01-.1,0-.04,0-.07-.02-.1-.03Z"/>
      <path class="cls-3" d="M9.5,15.65s-.04,.04-.07,.06c-.03,.01-.07,.02-.11,.02h-.08s0,.18,0,.18h-.13s.03-.52,.03-.52h.21s.08,.02,.1,.04c.03,.02,.05,.04,.06,.06s.02,.06,.02,.09c0,.03,0,.06-.02,.08Zm-.12-.04s.02-.03,.02-.05c0-.02,0-.04-.02-.05-.01-.01-.03-.02-.05-.02h-.07s0,.13,0,.13h.07s.04,0,.05-.01Z"/>
      <path class="cls-3" d="M9.94,15.82h-.19s-.03,.1-.03,.1h-.13s.17-.52,.17-.52h.15s.2,.51,.2,.51h-.13s-.03-.09-.03-.09Zm-.03-.1l-.07-.19-.06,.19h.13Z"/>
      <path class="cls-3" d="M10.5,15.87l-.13-.18h-.03s.02,.2,.02,.2h-.12s-.05-.5-.05-.5l.21-.02s.08,0,.11,.01c.03,.01,.05,.03,.07,.05,.02,.02,.03,.05,.03,.08,0,.03,0,.07-.02,.1-.02,.03-.04,.05-.08,.07l.14,.19-.14,.02Zm-.17-.27h.08s.04-.02,.05-.03c0-.01,.01-.03,.01-.05,0-.02,0-.03-.02-.04-.01-.01-.03-.01-.05-.01h-.08s.01,.14,.01,.14Z"/>
      <path class="cls-3" d="M11.07,15.69l-.19,.04v.1s-.14,.02-.14,.02l.09-.54,.14-.03,.28,.48-.13,.02-.05-.08Zm-.05-.09l-.1-.18-.03,.2,.13-.02Z"/>
      <path class="cls-3" d="M11.71,15.12s.08,.03,.12,.06c.03,.03,.06,.07,.07,.12,.01,.05,.02,.1,0,.14,0,.04-.03,.08-.06,.12s-.08,.06-.13,.07l-.19,.06-.15-.5,.19-.06c.05-.02,.1-.02,.15-.01Zm.06,.34s.02-.07,0-.12c-.01-.05-.04-.08-.07-.1-.03-.02-.07-.02-.12,0l-.06,.02,.09,.29,.06-.02s.08-.04,.09-.07Z"/>
      <path class="cls-3" d="M12.19,15.43s-.09-.02-.13-.05c-.04-.03-.07-.07-.08-.11-.02-.05-.02-.09-.02-.14,0-.05,.03-.09,.05-.12s.07-.06,.11-.08c.04-.02,.09-.02,.14-.02s.09,.02,.12,.05c.04,.03,.07,.07,.08,.11,.02,.05,.03,.09,.02,.14,0,.05-.02,.09-.05,.12s-.07,.06-.11,.08c-.05,.02-.09,.02-.14,.02Zm.17-.2s.01-.07,0-.12c-.02-.04-.04-.07-.08-.09s-.07-.02-.11,0c-.04,.02-.07,.04-.08,.08-.01,.03-.01,.07,0,.12,.02,.04,.04,.07,.08,.09,.03,.02,.07,.02,.11,0,.04-.02,.06-.04,.08-.08Z"/>
      <path class="cls-3" d="M13.1,15.05l-.11,.06-.33-.19,.15,.29-.11,.06-.24-.46,.11-.06,.33,.19-.15-.29,.11-.06,.24,.46Z"/>
      <path class="cls-3" d="M13.47,14.72l-.16,.1,.02,.09-.11,.07-.12-.54,.12-.08,.43,.34-.11,.07-.07-.06Zm-.08-.07l-.16-.13,.05,.2,.11-.07Z"/>
      <path class="cls-3" d="M13.94,14.49l-.2-.09-.03,.02,.12,.16-.1,.08-.31-.42,.17-.13s.07-.04,.1-.05c.03,0,.06,0,.09,0,.03,.01,.05,.03,.07,.05,.02,.03,.03,.06,.03,.09,0,.03-.01,.07-.03,.1l.22,.09-.12,.08Zm-.28-.15l.06-.05s.03-.03,.03-.04c0-.02,0-.03-.01-.05-.01-.02-.03-.02-.04-.03-.02,0-.03,0-.05,.02l-.06,.05,.08,.1Z"/>
    </g>
    <polygon class="cls-2" points="7.91 11.44 8.78 10.69 8.66 10.53 8.05 10.86 7.72 11.27 7.91 11.44"/>
    <polygon class="cls-2" points="11.72 10.99 10.45 10.67 10.48 10.44 11.25 10.46 11.8 10.72 11.72 10.99"/>
    <g>
      <path class="cls-4" d="M7.33,4.54c.1-.72,.72-1.42,1.38-1.58,.72-.18,1.44,.08,1.89,.71,.03,.03,.04,.08,.08,.15-.39,.08-.75,.09-1.09-.07-.13-.06-.26-.14-.39-.2-.31-.14-.57-.09-.8,.16-.11,.11-.19,.25-.28,.37-.19,.26-.44,.4-.78,.47Z"/>
      <path class="cls-4" d="M10.76,12.65c-.23-.06-.46-.12-.69-.17-.07-.3-.11-.61-.16-.92-.03-.17-.05-.34,.08-.52,.17,.06,.23,.19,.3,.31,.17,.32,.32,.64,.41,.99,0,0,0,0,0,0,.03,.1,.05,.2,.07,.3Z"/>
      <path class="cls-4" d="M8.99,7.43c-.45,.09-.59,0-.62-.47-.01-.18,.04-.3,.19-.39,.35-.21,.72-.35,1.13-.4,.15-.02,.23,.04,.25,.18,.06,.39,0,.72-.43,.9-.17,.07-.34,.12-.51,.19Z"/>
      <path class="cls-4" d="M10.56,10.83c-.07-.11-.13-.18-.16-.26-.17-.45-.32-.9-.32-1.39,0-.06,0-.13,.01-.19,.02-.12,.09-.16,.2-.13,.17,.06,.35,.12,.52,.19,.05,.02,.1,.06,.13,.1,.15,.28,.25,.59,.16,.9-.09,.29-.31,.51-.53,.77Z"/>
      <path class="cls-4" d="M9.32,10.61c.03,.22,.06,.4,.07,.57,0,.19-.06,.24-.24,.19-.17-.05-.33-.11-.48-.2-.08-.05-.14-.16-.18-.26-.09-.23-.14-.47-.23-.71-.05-.13-.03-.23,.07-.32,.02-.02,.04-.04,.06-.06,.42-.36,.57-.32,.75,.2,.07,.21,.12,.42,.17,.59Z"/>
      <path class="cls-4" d="M10.34,6.88c.02-.23,.03-.46,.06-.68,.02-.14,.11-.24,.25-.25,.22,0,.44,0,.66,.01,.12,0,.2,.09,.19,.23-.03,.29-.07,.58-.11,.87-.03,.16-.14,.24-.3,.22-.17-.02-.34-.06-.51-.11-.14-.04-.2-.15-.24-.3Z"/>
      <path class="cls-4" d="M8.75,6.13c-.43,.06-.47,.02-.44-.41,.01-.2,.09-.34,.27-.4,.28-.1,.55-.2,.83-.28,.25-.06,.32,0,.4,.21,.09,.26,.06,.41-.15,.51-.3,.14-.61,.25-.91,.37Z"/>
      <path class="cls-4" d="M10.11,8.33c.04-.2,.06-.4,.11-.59,.08-.26,.22-.35,.5-.32,.1,.01,.2,.04,.29,.08,.2,.09,.23,.16,.18,.37-.05,.24-.12,.48-.17,.72-.03,.14-.12,.2-.25,.2-.31,0-.63-.18-.66-.46Z"/>
      <path class="cls-4" d="M8.34,4.9c0-.36,.07-.7,.19-1.01,.09-.23,.51-.31,.64-.12,.14,.19,.23,.41,.33,.63,.05,.1,.03,.22-.09,.26-.31,.1-.63,.19-.95,.28-.03,0-.07-.02-.13-.04Z"/>
      <path class="cls-4" d="M12.2,12.69s-.01,.02-.02,.03c-.02,.03-.04,.05-.06,.08-.04,.06-.09,.11-.13,.17-.21-.05-.43-.1-.67-.16,0-.07,.02-.13,.03-.2,0-.03,.01-.05,.02-.08,.09-.37,.3-.74,.58-.97,.1,.33,.2,.63,.28,.93,.02,.06,0,.16-.03,.21Z"/>
      <path class="cls-4" d="M10.82,11.42c-.06-.41,.09-.68,.3-.93,.08-.1,.19-.09,.26,.01,.14,.22,.26,.44,.37,.67,.02,.04,.01,.11,0,.16-.11,.22-.2,.45-.34,.66-.12,.18-.25,.17-.35-.03-.1-.18-.17-.38-.23-.53Z"/>
      <path class="cls-4" d="M7.46,8.97c.04-.1,.04-.21,.1-.26,.17-.13,.35-.23,.54-.33,.11-.06,.22-.02,.3,.08,.01,.01,.02,.03,.03,.04,.39,.48,.26,.91-.33,1.12-.1,.03-.19,.03-.25-.06-.13-.2-.26-.4-.39-.61Z"/>
      <path class="cls-4" d="M8.06,7.58c.03,.21,.02,.38-.12,.5-.14,.12-.3,.23-.46,.33-.11,.06-.22,.03-.27-.1-.07-.21-.14-.41-.21-.62-.01-.04,0-.09,0-.14,.05-.18,.6-.49,.77-.43,.05,.02,.11,.07,.13,.13,.06,.12,.11,.25,.14,.34Z"/>
      <path class="cls-4" d="M7.79,5.75c.18,.73-.16,1.26-.84,1.31-.1-.27-.07-.55-.03-.83,0-.06,.05-.12,.1-.16,.22-.19,.47-.31,.78-.33Z"/>
      <path class="cls-4" d="M8.77,8.23c-.05-.24-.03-.29,.19-.39,.18-.08,.37-.16,.56-.21,.24-.07,.33,0,.31,.24,0,.13-.03,.25-.05,.38-.02,.18-.12,.29-.29,.36-.44,.18-.62,.08-.72-.38Z"/>
      <path class="cls-4" d="M9.62,12.39c-.29-.06-.59-.1-.89-.13-.03,0-.06,0-.09,0-.04-.19-.05-.59,0-.66,.04-.04,.11-.07,.17-.06,.47,.02,.8,.4,.81,.87Z"/>
      <path class="cls-4" d="M11.35,5.29c.06,.29,0,.35-.27,.34-.12,0-.24-.02-.35-.04-.37-.07-.54-.27-.54-.64,0-.11,.05-.19,.15-.18,.25,.02,.51,.03,.76,.09,.21,.05,.2,.28,.25,.43Z"/>
      <path class="cls-4" d="M7.95,4.6c.04,.65-.3,1.05-.95,1.15-.02-.28,0-.57,.15-.8,.17-.27,.48-.33,.81-.36Z"/>
      <path class="cls-4" d="M11.08,4.65c-.36,.03-.69-.01-1.02-.12-.04-.01-.08-.04-.11-.08-.09-.1-.22-.21-.16-.35,.06-.15,.22-.11,.34-.1,.16,.01,.33,.03,.49,.06,.31,.06,.43,.21,.45,.6Z"/>
    </g>
    <g>
      <g>
        <path class="cls-3" d="M6.95,7.13s0,.04,0,.07c0,0,0,.01,0,.02h0s0,.03,0,.04c0,0,0,0,0,0,0,.02,0,.05,0,.07,0,.02,0,.04,0,.05,0,.01,0,.02,0,.04,0,.04,0,.1,0,.16h0c0,.07,0,.16,0,.25,0,.02,0,.04,0,.07,0,.21,.02,.46,.03,.73h0c.01,.33,.02,.68,0,1.04h0c0,.09-.01,.18-.02,.27,0,.07-.01,.14-.02,.2,0,.02,0,.04,0,.06h0c0,.07-.02,.14-.03,.21-.02,.1-.04,.2-.07,.29-.06,.2-.13,.38-.22,.53-.21,.34-.53,.56-1.01,.54-.27,.06-.54-.04-.78-.24-.08-.07-.17-.15-.24-.24-.08-.1-.16-.21-.23-.33,0,0,0-.02-.02-.03-.12-.21-.21-.44-.26-.67-.14-.6-.03-1.2,.51-1.45h0s0,0,.01,0c.05-.02,.11-.04,.17-.06,.06,0,.13-.01,.2,0,0,0,0,0,0,0,.1,.03,.19,.09,.25,.15,0,0,0,.01,.02,.02,.28,.33,.18,.98,.31,1.39,.31-.74,.1-1.75-.04-2.66,0,0,0-.01,0-.02-.02-.14-.04-.27-.06-.4-.02-.15-.03-.29-.03-.43,.08-.36,.49-.67,.92-.77,0,0,0,0,0,0,.02,0,.04,0,.06-.01h0c.11-.02,.32-.03,.47,.1,.02,.02,.03,.03,.05,.05t0,0s0,0,0,0c.01,.02,.02,.04,.03,.06,0,.02,.02,.03,.02,.05h0s.03,.08,.04,.12c0,.02,.01,.05,.01,.07,0,.06,0,.12,0,.18,0,.06-.02,.12-.04,.18,0,.01,0,.02,0,.03,0,.01,0,.03,0,.04-.02,.07-.03,.15-.03,.23Z"/>
        <path class="cls-3" d="M9.93,9.43s0,.08,0,.12c0,.02,0,.04,0,.06,0,.03,0,.06-.02,.08,0,0,0,.01,0,.02-.02,.08-.05,.16-.08,.24,0,0,0,0,0,0-.01,.03-.02,.05-.03,.08-.05,.11-.12,.21-.19,.31,0,0,0,0,0,0-.02,.02-.03,.04-.05,.06-.04,.05-.08,.09-.13,.13-.05,.04-.1,.08-.15,.12-.02,.02-.04,.03-.07,.04,0,0,0,0-.02,0,0,0-.02,.01-.03,.02-.01,0-.02,.01-.04,.02,0,0-.02,0-.03,.01,0,0,0,0,0,0,0,0-.01,0-.02,0-.09,.05-.19,.08-.29,.1-.01,0-.03,0-.04,0,0,0,0,0,0,0-.01,0-.02,0-.03,0,0,0,0,0-.01,0-.07,0-.14,.01-.21,0-.09,0-.18,.01-.26,0-.05,0-.1,0-.15-.01,0,0-.02,0-.02,0,0,0-.02,0-.03,0-.27-.05-.51-.16-.71-.33-.09-.07-.16-.15-.24-.23-.04-.04-.07-.09-.1-.13h0s0,0,0,0h0s-.02-.03-.03-.04c-.03-.04-.06-.09-.08-.14-.45-.78-.48-1.89-.03-2.59h0s.01-.02,.02-.03c.03-.04,.06-.08,.09-.12,0,0,0,0,0,0,0-.02,.02-.03,.03-.04h0s0,0,0,0c.02-.04,.05-.08,.07-.12h0s.06-.09,.1-.14c.09-.12,.19-.22,.3-.31t0,0s.01-.01,.02-.02c.07-.06,.15-.11,.23-.16,0,0,0,0,.01,0,0,0,.01,0,.02-.01,0,0,0,0,0,0,.17-.09,.34-.15,.51-.18,0,0,.01,0,.02,0,.05,0,.1-.01,.14-.02h0c.08,0,.15,0,.22,0,.08,.01,.15,.03,.22,.06,.05,.02,.09,.04,.13,.06,.03,.02,.05,.03,.08,.05,.05,.04,.1,.09,.13,.14,0,.01,.02,.02,.02,.04,0,0,0,0,0,0,.04,.08,.07,.16,.07,.26,0,.19-.06,.43-.25,.69,0,0,0,0,0,0-.03,.04-.07,.09-.1,.13,.15,.04,.25,.12,.31,.21,.09,.14,.11,.31,.12,.45,.02,.14,.04,.24,.16,.21,.03,.02,.05,.03,.08,.05,.04,.03,.08,.06,.11,.09,0,0,0,0,0,0,.04,.04,.07,.08,.1,.12,.02,.02,.03,.04,.04,.06h0s.03,.05,.04,.07c.01,.03,.02,.05,.03,.08,.03,.08,.05,.16,.06,.24,0,0,0,.01,0,.02h0s0,.08,0,.12Z"/>
        <path class="cls-3" d="M12.4,7.72h0s0,.01,0,.02c0,0,0,0,0,0h0c-.03,.23-.17,.48-.4,.69h0c-.12,.1-.25,.2-.42,.28h0s0,0,0,0c-.09,.04-.18,.08-.28,.11,0,0-.01,0-.02,0-.11,.03-.23,.06-.35,.08,0,.06,0,.11,.01,.17,.02,.17,.06,.35,.1,.54,.02,.08,.03,.16,.04,.24,0,.03,0,.06,.01,.09,.01,.09,.02,.18,.01,.27,0,.11-.03,.22-.09,.3-.02,.07-.12,.19-.25,.3,0,0-.02,.01-.03,.02-.01,.01-.03,.02-.04,.03-.06,.04-.13,.08-.2,.11-.03,.01-.07,.02-.1,.03,0,0-.02,0-.03,0-.02,0-.04,0-.06,0,0,0,0,0,0,0-.06,0-.12,0-.17-.03-.02-.01-.04-.02-.05-.03-.12-.07-.21-.16-.29-.25,0,0,0,0,0,0-.08-.11-.14-.22-.18-.34,0,0,0,0,0,0,0-.01,0-.02,0-.03-.01-.04-.02-.08-.03-.11,0,0,0,0,0,0-.04-.19-.04-.38-.04-.58,0-.12,0-.25,.02-.37,0-.09,0-.18,0-.27v-.02c0-.07,0-.13,0-.19,0-.02,0-.04,0-.06,0-.02,0-.03,0-.05-.03-.02-.06-.04-.09-.06-.12-.08-.24-.17-.33-.26-.05-.04-.09-.09-.13-.14-.21-.25-.32-.53-.34-.85,0-.12,.01-.25,.04-.36h0c.03-.1,.07-.2,.12-.29,0-.01,.01-.02,.02-.03,.05-.09,.12-.18,.19-.26,.03-.03,.06-.06,.09-.09,.07-.06,.14-.12,.22-.17,.08-.05,.17-.1,.26-.14,.16-.06,.32-.1,.48-.1,.12,0,.24,.02,.36,.06,0,0,0,0,0,0,0,0,0,0,0,0,.07,.03,.14,.07,.21,.11,.11,.08,.21,.18,.29,.32,0,.02,.02,.03,.03,.05h0s.03,.06,.04,.1c.01,.03,.02,.06,.03,.1,.01,.07,.01,.15,0,.23,0,.03-.02,.05-.03,.08,0,0,0,0,0,0,0,.02-.02,.03-.03,.05,0,0,0,0,0,0-.07,.12-.19,.23-.35,.27-.07,.02-.12,.03-.17,.04-.02,0-.04,0-.05,.01-.27,.07-.19,.05-.01,.1,.02,0,.03,0,.05,.02,.07,.02,.16,.05,.24,.1,.11-.07,.21-.13,.3-.18,.05-.02,.09-.05,.14-.07,.04-.02,.08-.04,.12-.05,.08-.03,.15-.06,.22-.08,.09-.03,.18-.05,.26-.06,0,0,.02,0,.03,0,0,0,0,0,.01,0,0,0,.01,0,.02,0h.02s0,0,0,0c0,0,0,0,0,0,0,0,.01,0,.02,0,0,0,0,0,0,0,0,0,0,0,0,0,0,0,0,0,.01,0h0s.04,0,.06,0h0s.02,0,.02,0c0,0,.02,0,.02,0,0,0,0,0,0,0,0,0,.02,0,.02,0,0,0,.02,0,.03,0,0,0,.01,0,.02,0,0,0,.02,0,.03,0,0,0,.01,0,.02,0,0,0,.02,0,.03,0,.02,0,.04,.02,.06,.02,0,0,.02,0,.03,.01,.01,0,.02,.01,.04,.02,.01,0,.02,.02,.03,.02,0,0,.02,.01,.02,.02,.01,0,.02,.02,.03,.03,0,0,0,0,.01,.02,0,.01,.02,.02,.02,.03,0,0,0,0,0,0,0,0,0,0,0,0,0,.01,.01,.03,.02,.04,0,0,0,.01,0,.02,0,0,0,.01,0,.02h0s0,.02,0,.03c0,0,0,.02,0,.03,.02,.07,.02,.14,.01,.22Z"/>
        <path class="cls-3" d="M13.99,10.87c-.25-.18-.44-.45-.74-.6,0,.49-.1,1.2-.69,1.24-.5-.04-.75-.44-.78-.73,0-.54,.12-1.13-.21-1.59,0,0-.01-.02-.02-.02-.03-.05-.04-.11-.04-.16,0-.14,.06-.26,.06-.28,0,0,0,0,0,0h0c.14-.27,.13-.51,.06-.78-.03-.11-.06-.21-.09-.33-.02-.06-.04-.13-.06-.2,0,0,0-.01,0-.02-.02-.06-.03-.13-.05-.19,0,0,0-.01,0-.02-.01-.07-.02-.14-.03-.22-.01-.15,0-.31,.02-.45,.02-.14,.06-.28,.12-.4,.05-.1,.12-.2,.2-.28,.03-.03,.06-.06,.1-.09,0,0,0,0,0,0,0,0,0,0,0,0,0,0,.01-.01,.02-.02,0,0,0,0,0,0,.08-.05,.29-.16,.51-.03t0,0c.08,.06,.15,.13,.21,.21h0c.08,.11,.14,.22,.19,.35,.1,.27,.12,.6,.14,.97,.44-.69,1.35-1.78,1.78-.94,0,0,0,0,0,0,.01,.02,.02,.04,.03,.07,0,0,0,0,0,0,.07,.17,.19,.6-.15,1.05-.04,.05-.08,.09-.12,.14-.12,.14-.27,.27-.43,.45-.16,.17-.35,.38-.56,.65,.6,.44,1.28,.56,1.68,1.01,.55,.78-.33,1.71-1.16,1.21Z"/>
        <path class="cls-2" d="M5.68,6.69c.06-.16,.23-.3,.51-.44h.25s.05,.12,.05,.21l-.05,.09v.04s-.07,.14-.07,.14v.04c0,.12,.02,.3,.04,.53,.01,.23,.02,.88,.03,1.96,0,1.08-.2,1.7-.6,1.84-.67,.28-1.18-.06-1.51-1-.14-.48-.04-.86,.29-1.12l.09-.02h.04s.06,.09,.1,.15l.05,.27v.09s.02,.04,.02,.04v.05s0,.14,0,.14c.01,.05,.02,.11,.02,.17v.05s0,.04,0,.04v.06s.02,.05,.02,.05c0,.06,.03,.12,.06,.2v.04s.02,.04,.02,.04c.08,.11,.2,.19,.35,.24,.08,0,.17-.02,.26-.06,.31-.42,.41-.97,.3-1.66l-.08-.91v-.05s-.02-.1-.05-.16v-.06s-.09-.75-.09-.75c-.02-.06-.03-.14-.04-.23Z"/>
        <path class="cls-2" d="M6.85,9.3c-.18-.81-.09-1.46,.26-1.95,.35-.49,.69-.77,1.01-.84,.32-.07,.5,.03,.54,.32s-.11,.44-.44,.47c-.4,.05-.67,.26-.79,.64-.14,.3-.19,.51-.15,.62,.06-.03,.28-.17,.65-.43,.37-.25,.64-.28,.8-.08,.08,.25,.05,.41-.1,.48-.15,.07-.26,.12-.33,.13-.3,.12-.56,.32-.77,.6,0,.11,.08,.2,.24,.29,.4,.15,.73,.02,1.01-.4,.04-.05,.09-.11,.15-.19,.06-.08,.14-.12,.25-.12,.15,.13,.22,.31,.21,.56-.03,.2-.08,.34-.15,.43-.42,.52-.96,.65-1.62,.38-.16-.07-.3-.16-.43-.29-.13-.12-.24-.33-.35-.61Z"/>
        <path class="cls-2" d="M11.2,7.62c.49-.39,.69-.38,.62,.02-.05,.18-.19,.35-.44,.51-.18,.13-.53,.21-1.04,.25l.09,.96c.25,.62,.15,.99-.3,1.11-.29-.12-.39-.55-.32-1.31l-.03-.88-.19-.09c-.44-.26-.67-.58-.69-.95,.01-.44,.23-.76,.67-.94,.44-.18,.74-.07,.92,.33-.01,.06-.05,.1-.11,.14-.54,.1-.82,.24-.85,.42-.03,.18,.11,.38,.42,.61,.1-.13,.25-.11,.44,.06,.31,0,.58-.09,.82-.24Z"/>
        <path class="cls-2" d="M14.67,9.73l-.04-.02c-.07-.09-.27-.21-.61-.36-.34-.15-.77-.4-1.29-.77,.69-.84,1.19-1.4,1.49-1.68,.03-.09,.06-.16,.09-.21-.02-.35-.12-.49-.3-.41-.18,.08-.39,.3-.64,.66-.25,.36-.57,.76-.96,1.2l-.02-.39h0s-.01-.25-.01-.25c-.06-.24-.28-.4-.65-.36l.06,.21,.05,.18,.08,.3,.08,.62v.08c-.11,.1-.2,.2-.27,.3,.08,.11,.19,.17,.32,.17v.12c.01,.55,0,1.06,0,1.52,.15,.26,.29,.36,.42,.3,.13-.05,.21-.27,.23-.65,.03-.38-.04-.77-.21-1.17,.52,.44,.95,.75,1.29,.95l.24,.28c.41,.18,.67,.1,.76-.23,0-.16-.03-.28-.1-.39Z"/>
      </g>
      <path class="cls-2" d="M12.38,7.5c-.07-.23-.28-.37-.64-.33l-.05-.15-.03-.45c-.01-.21,.05-.37,.17-.48,0,0,0,0,0,0,0,0,.08-.07,.17-.07,.09,0,.2,.07,.25,.36h0c.05,.2,.08,.45,.11,.77v.06s.01,.08,.01,.08l.02,.22Z"/>
    </g>
  </g>
</svg>