<?xml version="1.0" encoding="UTF-8"?>
<svg id="Capa_2" data-name="Capa 2" xmlns="http://www.w3.org/2000/svg" xmlns:xlink="http://www.w3.org/1999/xlink" viewBox="0 0 18.27 20.84">
  <defs>
    <style>
      .cls-1 {
        fill: #173f58;
      }

      .cls-2 {
        fill: #fff;
      }

      .cls-3 {
        fill: #049ad6;
      }

      .cls-4 {
        fill: url(#Degradado_sin_nombre_3-2);
      }

      .cls-5 {
        fill: #089ce6;
        opacity: .28;
      }

      .cls-6 {
        fill: url(#Degradado_sin_nombre_10-2);
      }

      .cls-7 {
        fill: url(#Degradado_sin_nombre_3);
      }

      .cls-8 {
        fill: url(#Degradado_sin_nombre_10);
      }
    </style>
    <linearGradient id="Degradado_sin_nombre_3" data-name="Degradado sin nombre 3" x1="8.37" y1="16.84" x2="8.59" y2="-.12" gradientUnits="userSpaceOnUse">
      <stop offset="0" stop-color="#173f58"/>
      <stop offset="1" stop-color="#00adef"/>
    </linearGradient>
    <linearGradient id="Degradado_sin_nombre_3-2" data-name="Degradado sin nombre 3" x1="8.37" y1="16.84" x2="8.59" y2="-.12" xlink:href="#Degradado_sin_nombre_3"/>
    <linearGradient id="Degradado_sin_nombre_10" data-name="Degradado sin nombre 10" x1="8.37" y1="16.85" x2="8.59" y2="0" gradientUnits="userSpaceOnUse">
      <stop offset="0" stop-color="#173f58"/>
      <stop offset="1" stop-color="#6dd6fc"/>
    </linearGradient>
    <linearGradient id="Degradado_sin_nombre_10-2" data-name="Degradado sin nombre 10" x1="3.16" y1="8.58" x2="10.47" y2="-1.69" xlink:href="#Degradado_sin_nombre_10"/>
  </defs>
  <g id="Capa_1-2" data-name="Capa 1">
    <path class="cls-1" d="M5.97,9.01h0s0,0,0,0c0,0,0,0,0,0Zm.02,2.45h0s0,0,0,0h0Zm3.26,1.2s0,0,0,0c0,.02,0,.02,0,.02v-.02Zm1.55-8.16s0,0,0,0h0s0,0,0,0Zm.28,1.33s0,0,0,0h0s0,0,0,0c0,.03,.01,.06,.02,.1,0-.03,0-.06,0-.1Zm1.78,7.57h0s.02,0,.03,0c-.01,0-.02,0-.03,0Zm4.83-1.24c-.32,.47-.68,.91-1.13,1.29-.28,.24-.58,.45-.91,.6-.31,.14-.64,.23-.96,.28-.37,.06-.75,.06-1.13,.02-.14-.02-.28-.03-.43-.06-.21-.03-.42-.07-.62-.12-.09-.02-.19-.04-.28-.06-.08-.02-.15-.04-.23-.06-.08-.02-.16-.04-.25-.06-.11-.03-.21-.06-.32-.08-.21-.05-.42-.11-.63-.16-.28-.07-.56-.13-.85-.18-.26-.05-.52-.09-.79-.12,0,0,0,0-.01,0-.62-.07-1.24-.05-1.85,.08-.76,.16-1.42,.48-2.03,.9-.25,.17-.48,.36-.71,.57,0,0-.01,.02-.02,.02,1.61,1.58,3.88,2.48,6.3,2.29,0,0,.01,0,.02,0,.04,0,.07,0,.11,0,.75-.07,1.47-.24,2.14-.5,0,0,0,0,0,0,2.09-.81,3.74-2.45,4.57-4.49,0,0,0,0,0,0,.03-.07,.05-.15,.07-.22-.03,.02-.06,.05-.08,.08Z"/>
    <path class="cls-1" d="M18.23,8.49c-.42-4.44-4.37-7.7-8.81-7.28C4.98,1.63,1.72,5.58,2.15,10.02c.16,1.68,.82,3.18,1.82,4.39,.18,.21,.37,.42,.56,.61,0,0,.01-.02,.02-.02,.23-.2,.46-.4,.71-.57,.6-.42,1.27-.74,2.03-.9,.62-.13,1.23-.15,1.85-.08,.89,.1,1.74,.31,2.59,.54,.59,.16,1.19,.29,1.81,.36,.38,.04,.76,.04,1.13-.02,.33-.05,.65-.14,.96-.28,.34-.15,.64-.36,.91-.6,.45-.38,.81-.82,1.13-1.29,.02-.03,.04-.06,.08-.08-.02,.07-.05,.15-.07,.22,.19-.46,.33-.93,.43-1.43,.16-.77,.2-1.57,.12-2.38Zm-12.27,.52h0s0,0,0,0c0,0,0,0,0,0Zm.02,2.45h0s0,0,0,0c0,0,0,0,0,0Zm3.25,1.19s0,0,0,0v.02s0,0,0-.02Zm1.56-8.15s0,0,0,0c0,0,0,0,0,0h0Zm.27,1.33h0s0,.06,.01,.1c0-.03-.01-.06-.02-.1Zm.2,7.18s.02,0,.03,0c0,0,0,0,0,0,0,.02,0,.04,0,.05h0s0,.01,0,.01c0,0-.02-.03-.05-.07Zm1.59,.39h0s.02,0,.03,0c-.01,0-.02,0-.03,0Z"/>
    <path class="cls-2" d="M16.52,2.07c.08,0,.15,.03,.2,.1,.05,.06,.08,.13,.08,.21,0,.1-.04,.18-.11,.25-.07,.06-.15,.09-.24,.09s-.16-.02-.22-.07c-.06-.05-.09-.12-.09-.22,0-.11,.03-.2,.1-.26,.07-.07,.16-.1,.29-.1Zm-.3,.36c0,.07,.02,.12,.07,.16,.04,.03,.09,.05,.16,.05s.13-.02,.18-.07c.06-.05,.09-.11,.09-.19,0-.06-.02-.11-.06-.16-.04-.05-.09-.07-.15-.07-.1,0-.17,.02-.22,.07s-.07,.12-.07,.21Zm.16-.22s-.06,.07-.06,.12c0,.05,0,.1,0,.14,0,.04,0,.08,.02,.12,0,.04,.04,.03,.08-.02,0-.02,0-.03,0-.04,0-.01-.01-.03-.01-.04,0-.01,0-.03,0-.06,.12,.1,.2,.12,.23,.08,.03-.04,.02-.07-.04-.07-.06,0-.11-.02-.14-.05,.1-.03,.16-.07,.15-.14,0-.07-.03-.1-.08-.1s-.1,.02-.14,.05Zm.15,.05s-.01,.05-.04,.06c-.03,.01-.06,.02-.08,.03,0,0-.01,0,0,0,0-.04,.02-.07,.06-.09,.05-.02,.08-.02,.08,0Z"/>
    <path class="cls-3" d="M10.55,3.23h0s0,0,0,0h0s0,0,0,0c0,0,0,0,0,0Z"/>
    <path class="cls-7" d="M16.86,15.16c-.27,.36-.57,.71-.9,1.02-2.87,2.81-7.77,3.76-11.85,1C.47,14.72-1.07,9.89,.79,5.67c0,0,0,0,0,0,.01-.02,.02-.05,.03-.07,0,0,0,0,0,0l.55,.15s0,0,0,0c0,0,0,0,0,0,0,0,0,0,0,0,0,0,0,0,0,.01,0,0,0,.02,0,.03,0,.01,0,.02,0,.04,0,0,0,.01,0,.02,0,.04,0,.09-.01,.16,0,.04,0,.08,0,.12,0,.02,0,.03,0,.05,0,.02,0,.04,0,.06,0,.02,0,.03,0,.05,0,.01,0,.03,0,.04,0,.02,0,.03,0,.05,0,.04,0,.08,0,.12,0,.05,0,.09,0,.14,0,0,0,0,0,.01,0,.02,0,.04,0,.06,0,.45,0,1.03,.08,1.7-.19,2.09,.38,4.14,1.52,5.81,0,0,0,0,0,.01h0s.02,.02,.03,.04c.35,.51,.76,.99,1.22,1.42,.13,.12,.25,.23,.39,.34,0,0,0,0,0,0,.25,.21,.52,.41,.8,.59,.79,.52,1.64,.89,2.51,1.14,3.16,.87,6.65-.04,9-2.62Z"/>
    <path class="cls-4" d="M16.86,15.16c-.27,.36-.57,.71-.9,1.02-2.87,2.81-7.77,3.76-11.85,1C.47,14.72-1.07,9.89,.79,5.67c0,0,0,0,0,0,.01-.02,.02-.05,.03-.07l.55,.15s0,0,0,0c0,0,0,0,0,0,0,0,0,0,0,.01,0,0,0,.02,0,.03,0,.01,0,.02,0,.04,0,0,0,.01,0,.02,0,.04,0,.09-.01,.16,0,.04,0,.08,0,.12,0,.02,0,.03,0,.05,0,.02,0,.04,0,.06,0,.02,0,.03,0,.05,0,.01,0,.03,0,.04,0,.02,0,.03,0,.05,0,.04,0,.08,0,.12,0,.05,0,.09,0,.14,0,0,0,0,0,.01,0,.02,0,.04,0,.06,0,.44,0,1.02,.08,1.68,0,0,0,.01,0,.02-.19,2.09,.38,4.14,1.52,5.81,0,0,0,0,0,.01h0s.02,.02,.03,.04c.35,.51,.76,.99,1.22,1.42,.13,.12,.25,.23,.39,.34,0,0,0,0,0,0,.25,.21,.52,.41,.8,.59,.79,.52,1.64,.89,2.51,1.14,3.16,.87,6.65-.04,9-2.62Z"/>
    <path class="cls-8" d="M16.86,15.16c-.27,.36-.57,.71-.9,1.02-2.87,2.81-7.77,3.76-11.85,1C.47,14.72-1.07,9.89,.79,5.67c-.01,.09-.61,4.63,2.03,8.45,.03,.04,.05,.08,.08,.11,0,0,0,0,0,.01h0s.02,.02,.03,.04c.35,.51,.76,.99,1.22,1.42,.13,.12,.25,.23,.39,.34,0,0,0,0,0,0,.25,.21,.52,.41,.8,.59,.79,.52,1.64,.89,2.51,1.14,3.16,.87,6.65-.04,9-2.62Z"/>
    <path class="cls-6" d="M13.33,.88C10.92,.05,8.6,.15,6.35,1.24c-1.84,.89-3.22,2.27-4.11,4.11-.36,.74-.6,1.51-.75,2.27-.05,.26-.08,.52-.11,.78,0,0,0,.01,0,.02-.19,2.09,.38,4.14,1.52,5.81-.03-.04-.05-.08-.08-.11C.18,10.29,.78,5.76,.79,5.67c0,0,0,0,0,0,.01-.02,.02-.05,.03-.07,0,0,0,0,0,0,.26-.59,.6-1.16,1-1.72C4.71-.13,9.85-.85,13.33,.88Z"/>
    <path class="cls-1" d="M12.84,13.4s.04,.07,.05,.11c-.29-.06-.6-.13-.94-.22,0-.04-.02-.07-.02-.11,0,0,.01,0,.02,0,.22,.06,.43,.11,.63,.15,.04,0,.08,.02,.11,.02,.02,0,.04,0,.06,.01,.03,0,.06,.01,.09,.02,.02,0,.05,0,.07,.01-.02,0-.05,0-.07-.01Z"/>
    <path class="cls-5" d="M7.87,17.78c-1.42-.37-2.72-1.09-3.71-2.08,.13,.12,.25,.23,.39,.34,0,0,0,0,0,0,.25,.21,.52,.41,.8,.59,.79,.52,1.64,.89,2.51,1.14Z"/>
    <polygon class="cls-1" points="5.97 9.01 5.97 9 5.97 9.01 5.97 9.01"/>
    <path class="cls-1" d="M11.31,13.12s0,0,0,0c0,0,0,0,0,0,0,0,0,0,0,0,0-.03,0-.06-.01-.1,0,0,0,0,0,0,0,.02,0,.04,0,.05h0s0,.01,0,.01c0,.01,0,.03,0,.04Z"/>
    <path class="cls-3" d="M9.24,12.67s0,0,0-.02c0,0,0,0,0,0v.02Z"/>
    <path class="cls-1" d="M9.24,12.67s0,0,0-.02c0,0,0,0,0,0v.02Z"/>
    <polygon class="cls-1" points="5.99 11.46 5.98 11.46 5.98 11.46 5.99 11.46"/>
    <polygon class="cls-1" points="5.99 11.46 5.98 11.46 5.98 11.46 5.99 11.46"/>
    <path class="cls-1" d="M11.03,20.84h-2.24c-.38,0-.62-.42-.43-.75l.41-.7c.21,.01,.43,.02,.64,.02,.53,0,1.06-.04,1.58-.13l.47,.8c.2,.33-.04,.75-.43,.75Z"/>
    <path class="cls-1" d="M9.24,12.67s0,0,0-.02c0,0,0,0,0,0v.02Z"/>
    <path class="cls-1" d="M11.31,13.12s0,0,0,0c0,0,0,0,0,0,0,0,0,0,0,0,0-.03,0-.06-.01-.1,0,0,0,0,0,0,0,.02,0,.04,0,.05h0s0,.01,0,.01c0,.01,0,.03,0,.04Z"/>
    <path class="cls-1" d="M12.88,13.4s-.02,0-.03,0h0s.02,0,.03,0Z"/>
    <polygon class="cls-1" points="5.97 9.01 5.97 9 5.97 9.01 5.97 9.01"/>
    <polygon class="cls-1" points="5.99 11.46 5.98 11.46 5.98 11.46 5.99 11.46"/>
    <path class="cls-1" d="M9.24,12.67s0,0,0-.02c0,0,0,0,0,0v.02Z"/>
    <polygon class="cls-1" points="10.8 4.49 10.79 4.5 10.79 4.49 10.8 4.49"/>
    <path class="cls-1" d="M11.08,5.92s-.01-.06-.02-.1h0s0,.06,.01,.1Z"/>
    <path class="cls-1" d="M11.3,13.08s-.02-.03-.05-.07c0,0,.02,0,.03,0,0,0,0,0,0,0,0,.02,0,.04,0,.05h0s0,.01,0,.01Z"/>
    <path class="cls-1" d="M12.88,13.4s-.02,0-.03,0h0s.02,0,.03,0Z"/>
    <path class="cls-1" d="M14.67,14.32c-.82,.81-1.83,1.41-2.97,1.73-.1,.03-.21,.06-.31,.08-.48,.11-.97,.16-1.48,.16-1.8,0-3.43-.71-4.65-1.86,.6-.42,1.27-.74,2.03-.9,.62-.13,1.23-.15,1.85-.08,0,0,0,0,.01,0,.27,.03,.53,.07,.79,.12,.29,.05,.57,.11,.85,.18,.21,.05,.42,.1,.63,.16,.11,.03,.21,.06,.32,.08,.08,.02,.16,.04,.25,.06,.08,.02,.15,.04,.23,.06,.09,.02,.19,.04,.28,.06,.21,.04,.41,.08,.62,.12,.14,.02,.28,.04,.43,.06,.38,.04,.76,.04,1.13-.02Z"/>
    <path class="cls-5" d="M17.67,12.15c-.32,.47-.68,.91-1.13,1.29-.28,.24-.58,.45-.91,.6-.31,.14-.64,.23-.96,.28-.37,.06-.75,.06-1.13,.02-.14-.02-.28-.03-.43-.06-.21-.03-.42-.07-.62-.12-.09-.02-.19-.04-.28-.06-.08-.02-.15-.04-.23-.06-.08-.02-.16-.04-.25-.06-.11-.03-.21-.06-.32-.08-.21-.05-.42-.11-.63-.16-.28-.07-.56-.13-.85-.18-.26-.05-.52-.09-.79-.12,0,0,0,0-.01,0-.62-.07-1.24-.05-1.85,.08-.76,.16-1.42,.48-2.03,.9-.25,.17-.48,.36-.71,.57,0,0-.01,.02-.02,.02,0,0,0,0,0,0,1.34,1.44,3.66,2.51,6.3,2.28,0,0,.01,0,.02,0,.04,0,.07,0,.11,0,.75-.07,1.47-.24,2.14-.5,0,0,0,0,0,0,1.26-.47,2.34-1.22,3.22-2.23,.6-.68,1.05-1.43,1.35-2.26,0,0,0,0,0,0,.03-.07,.05-.15,.07-.22-.03,.02-.06,.05-.08,.08Z"/>
    <path class="cls-5" d="M17.75,12.08c-.02,.07-.05,.15-.07,.22,0,0,0,0,0,0-.3,.83-.75,1.58-1.35,2.26-.89,1.01-1.96,1.76-3.22,2.23,0,0,0,0,0,0-.67,.26-1.39,.43-2.14,.5-.04,0-.07,0-.11,0,0,0-.01,0-.02,0-2.65,.23-4.96-.83-6.3-2.28,0,0,0,0,0,0,0,0,.01-.02,.02-.02,.23-.2,.46-.4,.71-.57,.6-.42,1.27-.74,2.03-.9,.62-.13,1.23-.15,1.85-.08,0,0,0,0,.01,0,.27,.03,.53,.07,.79,.12,.29,.05,.57,.11,.85,.18,.21,.05,.42,.1,.63,.16,.11,.03,.21,.06,.32,.08,.08,.02,.16,.04,.25,.06,.08,.02,.15,.04,.23,.06,.09,.02,.19,.04,.28,.06,.21,.04,.41,.08,.62,.12,.14,.02,.28,.04,.43,.06,.38,.04,.76,.04,1.13-.02,.33-.05,.65-.14,.96-.28,.34-.15,.64-.36,.91-.6,.45-.38,.81-.82,1.13-1.29,.02-.03,.04-.06,.08-.08Z"/>
    <path class="cls-5" d="M17.75,12.08c-.02,.07-.05,.15-.07,.22,0,0,0,0,0,0-.3,.83-.75,1.58-1.35,2.26-.89,1.01-1.96,1.76-3.22,2.23,0,0,0,0,0,0-.67,.26-1.39,.43-2.14,.5-.04,0-.07,0-.11,0,0,0-.01,0-.02,0-2.65,.23-4.96-.83-6.3-2.28,0,0,0,0,0,0,0,0,.01-.02,.02-.02,.23-.2,.46-.4,.71-.57,.6-.42,1.27-.74,2.03-.9,.62-.13,1.23-.15,1.85-.08,0,0,0,0,.01,0,.27,.03,.53,.07,.79,.12,.29,.05,.57,.11,.85,.18,.21,.05,.42,.1,.63,.16,.11,.03,.21,.06,.32,.08,.08,.02,.16,.04,.25,.06,.08,.02,.15,.04,.23,.06,.09,.02,.19,.04,.28,.06,.21,.04,.41,.08,.62,.12,.14,.02,.28,.04,.43,.06,.38,.04,.76,.04,1.13-.02,.33-.05,.65-.14,.96-.28,.34-.15,.64-.36,.91-.6,.45-.38,.81-.82,1.13-1.29,.02-.03,.04-.06,.08-.08Z"/>
    <path class="cls-5" d="M17.75,12.08c-.02,.07-.05,.15-.07,.22,0,0,0,0,0,0-.3,.83-.75,1.58-1.35,2.26-.89,1.01-1.96,1.76-3.22,2.23,0,0,0,0,0,0-.22,.08-.44,.15-.66,.22-.54,.15-1.07,.25-1.59,.29,0,0-.01,0-.02,0-2.65,.23-4.96-.83-6.3-2.28,0,0,0,0,0,0,0,0,.01-.02,.02-.02,.23-.2,.46-.4,.71-.57,.6-.42,1.27-.74,2.03-.9,.62-.13,1.23-.15,1.85-.08,0,0,0,0,.01,0,.27,.03,.53,.07,.79,.12,.29,.05,.57,.11,.85,.18,.21,.05,.42,.1,.63,.16,.11,.03,.21,.06,.32,.08,.08,.02,.16,.04,.25,.06,.08,.02,.15,.04,.23,.06,.09,.02,.19,.04,.28,.06,.21,.04,.41,.08,.62,.12,.14,.02,.28,.04,.43,.06,.38,.04,.76,.04,1.13-.02,.33-.05,.65-.14,.96-.28,.34-.15,.64-.36,.91-.6,.45-.38,.81-.82,1.13-1.29,.02-.03,.04-.06,.08-.08Z"/>
    <g>
      <path class="cls-2" d="M6.78,15.32l-.29,.47-.11-.07,.12-.19-.18-.11-.12,.19-.11-.07,.29-.47,.11,.07-.11,.18,.18,.11,.11-.18,.11,.07Z"/>
      <path class="cls-2" d="M6.93,15.53l-.05,.1,.16,.08-.05,.09-.16-.08-.05,.11,.18,.09-.05,.1-.3-.15,.25-.49,.3,.15-.05,.09-.18-.09Z"/>
      <path class="cls-2" d="M7.22,15.7s.08-.05,.13-.05c.05,0,.1,0,.14,.02,.06,.03,.1,.06,.13,.11,.03,.05,.04,.1,.03,.17l-.13-.06s0-.05-.02-.07c-.01-.02-.03-.03-.06-.04-.04-.02-.07-.02-.11,0-.03,.02-.06,.05-.08,.09-.02,.04-.02,.08,0,.12,.01,.04,.04,.06,.07,.08,.02,0,.05,.01,.07,.01,.02,0,.04-.01,.06-.03l.13,.06s-.08,.08-.14,.09c-.06,.01-.11,0-.17-.02-.05-.02-.09-.05-.12-.09-.03-.04-.05-.08-.05-.13s0-.1,.02-.15c.02-.05,.05-.09,.09-.12Z"/>
      <path class="cls-2" d="M8.27,15.95l-.17,.52-.13-.04,.07-.21-.2-.06-.07,.21-.13-.04,.17-.52,.13,.04-.07,.2,.2,.06,.07-.2,.13,.04Z"/>
      <path class="cls-2" d="M8.36,16.51s-.06-.07-.08-.12-.02-.1,0-.15c.01-.05,.04-.1,.07-.13,.03-.04,.07-.06,.12-.07,.05-.01,.1-.01,.15,0,.05,.01,.09,.03,.13,.07,.04,.03,.06,.07,.08,.12,.01,.05,.01,.1,0,.15-.01,.05-.04,.1-.07,.13-.04,.04-.08,.06-.12,.07-.05,.01-.1,.01-.15,0-.05-.01-.09-.03-.13-.07Zm.27-.07s.05-.06,.06-.1c.01-.05,0-.09-.01-.12-.02-.03-.05-.06-.09-.07-.04-.01-.08,0-.11,.02-.03,.02-.05,.06-.06,.1-.01,.05,0,.09,.01,.12,.02,.03,.05,.06,.09,.07,.04,0,.08,0,.11-.02Z"/>
      <path class="cls-2" d="M8.97,16.66s-.05-.04-.07-.07c-.01-.03-.02-.06-.02-.1l.14,.02s0,.04,.01,.05c0,.01,.02,.02,.04,.02s.04,0,.05,0c.01,0,.02-.02,.02-.03,0-.01,0-.02,0-.04,0,0-.02-.02-.03-.03-.01,0-.03-.02-.05-.03-.03-.02-.06-.03-.08-.04-.02-.01-.04-.03-.05-.06s-.02-.05-.01-.09c0-.05,.03-.09,.07-.11,.04-.02,.09-.03,.15-.02,.06,0,.11,.03,.14,.06,.03,.03,.05,.08,.04,.13l-.14-.02s0-.03-.01-.04c-.01-.01-.03-.02-.04-.02-.02,0-.03,0-.04,0s-.02,.02-.02,.03c0,.02,0,.03,.02,.04,.02,.01,.04,.03,.07,.04,.03,.02,.06,.03,.08,.05,.02,.01,.04,.03,.05,.06s.02,.05,.01,.08c0,.03-.02,.06-.04,.08-.02,.02-.05,.04-.08,.05-.03,.01-.07,.01-.11,0-.04,0-.07-.02-.1-.04Z"/>
      <path class="cls-2" d="M9.99,16.49s-.04,.04-.07,.06-.07,.02-.11,.02h-.08s-.01,.19-.01,.19h-.13s.03-.55,.03-.55h.22s.08,.02,.11,.04c.03,.02,.05,.04,.06,.07s.02,.06,.02,.09c0,.03-.01,.06-.03,.09Zm-.13-.04s.02-.03,.02-.05c0-.02,0-.04-.02-.05-.01-.01-.03-.02-.06-.02h-.07s0,.13,0,.13h.07s.05,0,.06-.01Z"/>
      <path class="cls-2" d="M10.45,16.67h-.2s-.03,.1-.03,.1h-.14s.19-.55,.19-.55h.15s.21,.54,.21,.54h-.14s-.03-.09-.03-.09Zm-.04-.1l-.07-.2-.06,.2h.13Z"/>
      <path class="cls-2" d="M11.01,16.73l-.13-.19h-.03s.02,.21,.02,.21h-.13s-.05-.53-.05-.53l.22-.02s.08,0,.11,.01c.03,.01,.06,.03,.07,.05,.02,.02,.03,.05,.03,.08,0,.04,0,.07-.02,.1s-.05,.05-.08,.07l.15,.2h-.15Zm-.17-.27h.08s.04-.02,.05-.03c.01-.01,.02-.03,.01-.05,0-.02,0-.04-.02-.05s-.03-.01-.06-.01h-.08s.01,.14,.01,.14Z"/>
      <path class="cls-2" d="M11.62,16.54l-.2,.04v.1s-.15,.02-.15,.02l.1-.57,.15-.03,.29,.5-.14,.03-.05-.09Zm-.05-.09l-.1-.18-.03,.21,.13-.02Z"/>
      <path class="cls-2" d="M12.3,15.94s.09,.03,.12,.06c.04,.03,.06,.08,.07,.13,.02,.05,.02,.1,0,.15,0,.05-.03,.09-.07,.12-.03,.03-.08,.06-.13,.08l-.2,.06-.16-.52,.2-.06c.06-.02,.11-.02,.16-.01Zm.06,.35s.02-.08,0-.12c-.01-.05-.04-.08-.07-.1-.04-.02-.08-.02-.12,0l-.06,.02,.09,.3,.06-.02s.08-.04,.1-.07Z"/>
      <path class="cls-2" d="M12.8,16.27s-.09-.02-.13-.06c-.04-.03-.07-.07-.09-.12-.02-.05-.03-.1-.02-.15s.03-.09,.06-.13c.03-.04,.07-.07,.12-.09,.05-.02,.1-.03,.14-.02,.05,0,.09,.03,.13,.06,.04,.03,.07,.07,.09,.12,.02,.05,.03,.1,.02,.15,0,.05-.03,.09-.06,.13-.03,.04-.07,.07-.12,.09s-.1,.02-.14,.02Zm.18-.21s.01-.08,0-.12c-.02-.04-.04-.08-.08-.09-.04-.02-.07-.02-.11,0-.04,.02-.07,.04-.08,.08-.01,.04-.01,.08,0,.12,.02,.04,.04,.08,.08,.09,.04,.02,.07,.02,.11,0,.04-.02,.07-.04,.08-.08Z"/>
      <path class="cls-2" d="M13.74,15.88l-.12,.06-.35-.2,.15,.3-.12,.06-.25-.49,.12-.06,.35,.2-.15-.3,.12-.06,.25,.49Z"/>
      <path class="cls-2" d="M14.13,15.54l-.17,.11,.02,.1-.12,.07-.12-.57,.13-.08,.46,.36-.12,.07-.08-.06Zm-.08-.07l-.16-.14,.05,.21,.11-.07Z"/>
      <path class="cls-2" d="M14.65,15.29l-.21-.1-.03,.02,.12,.17-.11,.08-.32-.44,.18-.13s.07-.04,.1-.05,.06,0,.09,.01c.03,.01,.05,.03,.07,.06,.02,.03,.03,.06,.03,.1,0,.04-.01,.07-.04,.1l.23,.1-.12,.09Zm-.29-.16l.07-.05s.03-.03,.03-.05c0-.02,0-.03-.01-.05-.01-.02-.03-.03-.04-.03-.02,0-.04,0-.05,.02l-.07,.05,.08,.11Z"/>
    </g>
    <polygon class="cls-1" points="8.33 12.05 9.25 11.26 9.12 11.09 8.48 11.44 8.14 11.87 8.33 12.05"/>
    <polygon class="cls-1" points="12.34 11.58 11.01 11.24 11.03 10.99 11.85 11.02 12.43 11.29 12.34 11.58"/>
    <g>
      <path class="cls-3" d="M7.72,4.79c.11-.76,.76-1.49,1.45-1.66,.76-.19,1.51,.09,1.99,.74,.03,.04,.04,.08,.08,.16-.41,.08-.79,.1-1.15-.07-.14-.06-.27-.15-.41-.22-.32-.15-.6-.09-.84,.17-.11,.12-.2,.26-.3,.39-.2,.27-.46,.42-.82,.49Z"/>
      <path class="cls-3" d="M11.33,13.33c-.24-.06-.49-.12-.73-.18-.08-.32-.12-.64-.17-.97-.03-.18-.05-.36,.08-.54,.18,.06,.25,.2,.31,.32,.18,.33,.33,.68,.43,1.04,0,0,0,0,0,0,.03,.1,.05,.21,.07,.32Z"/>
      <path class="cls-3" d="M9.47,7.82c-.48,.1-.62,0-.66-.49-.02-.18,.04-.32,.2-.41,.37-.22,.76-.36,1.19-.43,.16-.02,.24,.04,.26,.19,.07,.41,0,.76-.45,.94-.18,.07-.36,.13-.54,.2Z"/>
      <path class="cls-3" d="M11.12,11.41c-.07-.11-.13-.19-.16-.27-.18-.47-.34-.95-.34-1.46,0-.07,0-.13,.01-.2,.02-.12,.1-.17,.21-.13,.18,.06,.37,.13,.54,.2,.05,.02,.11,.06,.13,.11,.16,.3,.26,.62,.16,.94-.09,.3-.32,.54-.56,.81Z"/>
      <path class="cls-3" d="M9.82,11.17c.03,.23,.07,.42,.07,.6,0,.2-.06,.25-.25,.2-.18-.05-.35-.12-.51-.21-.09-.05-.15-.17-.19-.27-.09-.24-.15-.5-.24-.74-.05-.14-.04-.24,.07-.34,.02-.02,.04-.04,.06-.06,.44-.38,.6-.34,.79,.21,.08,.22,.13,.44,.18,.62Z"/>
      <path class="cls-3" d="M10.9,7.24c.02-.24,.04-.48,.06-.72,.02-.15,.11-.26,.26-.26,.23,0,.46,0,.69,.01,.13,0,.21,.1,.2,.24-.03,.31-.07,.61-.12,.92-.03,.17-.15,.25-.31,.24-.18-.02-.36-.06-.54-.11-.15-.04-.21-.16-.25-.31Z"/>
      <path class="cls-3" d="M9.22,6.46c-.45,.07-.5,.02-.47-.43,.01-.21,.09-.36,.29-.42,.29-.1,.58-.21,.88-.29,.26-.07,.34,0,.42,.22,.1,.27,.07,.43-.16,.54-.31,.15-.64,.26-.96,.39Z"/>
      <path class="cls-3" d="M10.65,8.78c.04-.21,.06-.42,.12-.62,.08-.28,.23-.37,.53-.33,.1,.01,.21,.04,.31,.08,.21,.1,.24,.17,.19,.39-.06,.26-.13,.51-.18,.76-.03,.15-.12,.21-.27,.21-.33,0-.66-.19-.7-.49Z"/>
      <path class="cls-3" d="M8.78,5.16c0-.38,.07-.73,.2-1.07,.09-.25,.53-.33,.68-.12,.14,.2,.25,.44,.35,.66,.05,.1,.03,.23-.09,.27-.33,.11-.66,.2-1,.3-.03,0-.07-.02-.14-.04Z"/>
      <path class="cls-3" d="M12.85,13.36s-.01,.02-.02,.03c-.02,.03-.04,.06-.07,.09-.04,.06-.09,.12-.14,.18-.22-.05-.46-.1-.71-.17,0-.07,.02-.14,.03-.21,0-.03,.01-.05,.02-.08,.1-.39,.31-.77,.61-1.02,.11,.35,.21,.66,.3,.98,.02,.07,.01,.17-.03,.22Z"/>
      <path class="cls-3" d="M11.4,12.03c-.06-.43,.1-.72,.32-.98,.08-.1,.2-.09,.27,.01,.14,.23,.27,.46,.39,.7,.02,.04,.01,.12,0,.17-.11,.23-.21,.48-.36,.69-.13,.19-.26,.18-.37-.03-.1-.19-.18-.4-.24-.55Z"/>
      <path class="cls-3" d="M7.86,9.44c.04-.11,.04-.22,.11-.27,.18-.13,.37-.24,.56-.35,.11-.06,.23-.02,.31,.08,.01,.02,.02,.03,.04,.05,.41,.51,.28,.96-.34,1.18-.1,.04-.2,.03-.26-.06-.14-.21-.27-.42-.41-.64Z"/>
      <path class="cls-3" d="M8.49,7.98c.03,.22,.02,.4-.12,.52-.15,.13-.32,.25-.49,.35-.12,.07-.23,.03-.28-.11-.08-.22-.15-.44-.22-.66-.01-.04,0-.1,0-.14,.05-.19,.63-.52,.82-.46,.06,.02,.11,.08,.14,.13,.06,.13,.11,.27,.15,.36Z"/>
      <path class="cls-3" d="M8.21,6.06c.19,.76-.17,1.33-.89,1.38-.1-.28-.08-.58-.04-.87,0-.06,.06-.13,.11-.17,.23-.2,.49-.33,.82-.35Z"/>
      <path class="cls-3" d="M9.24,8.67c-.05-.25-.04-.3,.2-.41,.19-.09,.39-.16,.59-.23,.26-.08,.34,0,.33,.26,0,.13-.03,.27-.05,.4-.02,.19-.12,.31-.31,.38-.46,.19-.66,.09-.76-.4Z"/>
      <path class="cls-3" d="M10.13,13.06c-.31-.06-.62-.11-.93-.14-.03,0-.07,0-.1-.01-.04-.2-.05-.63,0-.7,.04-.04,.12-.07,.17-.07,.49,.03,.85,.43,.85,.91Z"/>
      <path class="cls-3" d="M11.96,5.57c.06,.31,.01,.37-.28,.36-.12,0-.25-.02-.37-.04-.39-.07-.57-.29-.57-.68,0-.12,.05-.2,.16-.19,.27,.02,.54,.03,.8,.1,.22,.06,.21,.3,.27,.45Z"/>
      <path class="cls-3" d="M8.38,4.84c.04,.69-.31,1.11-1,1.21-.02-.3,0-.6,.16-.84,.18-.28,.51-.35,.85-.37Z"/>
      <path class="cls-3" d="M11.67,4.89c-.38,.04-.73-.01-1.07-.13-.04-.01-.09-.05-.12-.08-.09-.11-.23-.22-.17-.37,.06-.15,.23-.11,.36-.1,.17,.01,.35,.03,.52,.06,.32,.06,.45,.23,.48,.63Z"/>
    </g>
    <g>
      <g>
        <path class="cls-2" d="M7.32,7.51s0,.05,0,.07c0,0,0,.01,0,.02h0s0,.03,0,.04c0,0,0,0,0,0,0,.02,0,.05,0,.07,0,.02,0,.04,0,.06,0,.01,0,.03,0,.04,0,.05,0,.1,0,.16h0c0,.08,0,.17,0,.27,0,.02,0,.05,0,.07,0,.22,.02,.48,.03,.77h0c.01,.34,.02,.72,0,1.09h0c0,.09-.01,.19-.02,.28,0,.07-.01,.14-.02,.21,0,.02,0,.04,0,.06h0c-.01,.08-.02,.15-.04,.22-.02,.1-.04,.21-.07,.3-.06,.21-.14,.4-.24,.56-.22,.36-.56,.59-1.06,.57-.28,.06-.57-.04-.82-.25-.09-.07-.17-.16-.25-.25-.09-.11-.17-.23-.24-.35,0,0-.01-.02-.02-.03-.12-.22-.22-.46-.28-.7-.15-.63-.03-1.27,.54-1.53h0s0,0,.01,0c.06-.03,.12-.05,.18-.06,.06-.01,.13-.01,.21,0,0,0,0,0,0,0,.11,.03,.2,.09,.26,.16,0,0,.01,.01,.02,.02,.3,.35,.19,1.04,.33,1.46,.33-.77,.1-1.84-.05-2.8,0,0,0-.01,0-.02-.02-.14-.04-.28-.06-.42-.02-.16-.03-.31-.04-.45,.08-.38,.51-.7,.97-.81,0,0,0,0,0,0,.02,0,.04,0,.06-.01h0c.11-.02,.34-.04,.49,.11,.02,.02,.03,.04,.05,.06t0,0s0,0,0,0c.01,.02,.02,.04,.03,.06,0,.02,.02,.03,.02,.05h0s.04,.09,.05,.13c0,.03,.01,.05,.01,.07,0,.07,0,.13,0,.19,0,.06-.03,.13-.04,.19,0,.01,0,.02,0,.03,0,.01,0,.03,0,.04-.02,.07-.03,.15-.03,.25Z"/>
        <path class="cls-2" d="M10.46,9.93s0,.08,0,.12c0,.02,0,.04,0,.07,0,.03-.01,.06-.02,.09,0,0,0,.01,0,.02-.02,.08-.05,.17-.08,.25,0,0,0,0,0,0-.01,.03-.02,.05-.04,.08-.05,.11-.12,.22-.2,.32,0,0,0,0,0,0-.02,.02-.03,.04-.05,.06-.04,.05-.09,.09-.13,.14-.05,.05-.1,.09-.16,.13-.02,.02-.05,.03-.07,.05,0,0-.01,0-.02,.01,0,0-.02,.01-.03,.02-.01,0-.03,.01-.04,.02,0,0-.02,0-.03,.01,0,0,0,0,0,0,0,0-.01,0-.02,.01-.1,.05-.2,.09-.3,.11-.02,0-.03,0-.05,0,0,0,0,0,0,0-.01,0-.02,0-.03,0,0,0,0,0-.01,0-.07,0-.15,.01-.22,0-.1,0-.19,.01-.28,0-.05,0-.11,0-.16-.01,0,0-.02,0-.03,0,0,0-.02,0-.03,0-.29-.05-.54-.17-.75-.34-.09-.07-.17-.15-.25-.24-.04-.04-.07-.09-.11-.14h0s0,0,0,0h0s-.02-.03-.03-.04c-.03-.05-.06-.09-.09-.14-.47-.82-.5-1.99-.03-2.73h0s.01-.02,.02-.03c.03-.04,.06-.09,.09-.13,0,0,0,0,0,0,0-.02,.02-.03,.03-.05h0s0,0,0,0c.02-.04,.05-.08,.08-.12h0c.03-.05,.07-.1,.1-.14,.1-.13,.2-.23,.31-.33t0,0s.01-.01,.02-.02c.08-.06,.16-.12,.24-.16,0,0,0,0,.01,0,0,0,.01,0,.02-.01,0,0,0,0,0,0,.18-.1,.36-.16,.53-.19,0,0,.01,0,.02,0,.05,0,.1-.01,.15-.02h0c.08,0,.16,0,.23,0,.08,.01,.16,.03,.23,.06,.05,.02,.09,.04,.14,.07,.03,.02,.06,.04,.08,.06,.05,.04,.1,.09,.14,.15,0,.01,.02,.03,.02,.04,0,0,0,0,0,0,.04,.08,.07,.17,.08,.27,0,.2-.07,.45-.27,.73,0,0,0,0,0,0-.03,.05-.07,.09-.11,.14,.16,.05,.26,.13,.32,.22,.1,.15,.11,.33,.13,.47,.02,.15,.04,.25,.17,.22,.03,.02,.06,.04,.08,.06,.04,.03,.08,.06,.11,.1,0,0,0,0,0,0,.04,.04,.08,.08,.11,.13,.02,.02,.03,.04,.04,.07h0s.03,.05,.04,.07c.01,.03,.03,.06,.04,.08,.03,.08,.05,.17,.06,.26,0,0,0,.01,0,.02h0s0,.08,0,.13Z"/>
        <path class="cls-2" d="M13.06,8.13h0s0,.01,0,.02c0,0,0,0,0,0h0c-.03,.24-.17,.5-.42,.73h0c-.12,.11-.27,.21-.44,.29h0s0,0,0,0c-.09,.04-.19,.08-.29,.11,0,0-.01,0-.02,0-.12,.03-.24,.06-.37,.08,0,.06,0,.12,.01,.18,.02,.18,.07,.37,.1,.57,.02,.08,.03,.17,.05,.25,0,.03,0,.07,.01,.1,.01,.1,.02,.19,.01,.28,0,.12-.04,.23-.1,.32-.02,.08-.13,.2-.26,.31,0,0-.02,.01-.03,.02-.01,.01-.03,.02-.05,.03-.07,.05-.14,.09-.21,.12-.04,.01-.07,.03-.11,.03,0,0-.02,0-.03,0-.02,0-.04,0-.06,0,0,0,0,0,0,0-.06,0-.12,0-.18-.03-.02-.01-.04-.02-.06-.03-.13-.08-.22-.17-.3-.26,0,0,0,0,0,0-.09-.11-.15-.23-.19-.36,0,0,0,0,0,0,0-.01,0-.02-.01-.03-.01-.04-.02-.08-.03-.12,0,0,0,0,0,0-.04-.19-.05-.4-.04-.61,0-.13,.01-.26,.02-.38,0-.1,0-.19,0-.29v-.02c0-.07,0-.14,0-.2,0-.02,0-.04,0-.06,0-.02,0-.03,0-.05-.03-.02-.06-.04-.09-.06-.13-.09-.25-.18-.35-.27-.05-.05-.1-.1-.14-.15-.22-.26-.34-.56-.35-.89,0-.13,.01-.26,.05-.38h0c.03-.11,.07-.21,.13-.3,0-.01,.01-.02,.02-.03,.06-.1,.13-.19,.2-.27,.03-.03,.06-.06,.09-.09,.07-.07,.15-.13,.23-.18,.09-.06,.18-.11,.27-.14,.16-.07,.34-.11,.51-.11,.13,0,.26,.02,.38,.07,0,0,0,0,0,0,0,0,0,0,0,0,.07,.03,.15,.07,.22,.12,.11,.08,.22,.19,.31,.34,0,.02,.02,.03,.03,.05h0s.03,.06,.04,.1c.01,.03,.02,.07,.03,.11,.01,.07,.01,.15,0,.24,0,.03-.02,.05-.03,.08,0,0,0,0,0,0,0,.02-.02,.03-.03,.05,0,0,0,0,0,0-.08,.13-.2,.24-.37,.28-.07,.02-.13,.03-.18,.04-.02,0-.04,0-.06,.01-.28,.07-.2,.06-.01,.11,.02,0,.04,0,.06,.02,.08,.02,.16,.06,.25,.11,.11-.07,.22-.14,.32-.19,.05-.03,.1-.05,.14-.07,.04-.02,.08-.04,.13-.06,.08-.03,.16-.06,.23-.09,.1-.03,.19-.05,.27-.06,0,0,.02,0,.03,0,0,0,0,0,.01,0,0,0,.01,0,.02,0h.02s0,0,0,0c0,0,0,0,0,0,0,0,.01,0,.02,0,0,0,0,0,0,0,0,0,0,0,0,0,0,0,0,0,.02,0h0s.04,0,.06,0h0s.02,0,.02,0c0,0,.02,0,.03,0,0,0,0,0,0,0,0,0,.02,0,.03,0,0,0,.02,0,.03,0,0,0,.02,0,.02,0,0,0,.02,0,.03,0,0,0,.01,0,.02,0,.01,0,.02,0,.03,0,.02,0,.04,.02,.06,.02,0,0,.02,0,.03,.01,.01,0,.03,.01,.04,.02,.01,0,.02,.02,.03,.03,0,0,.02,.01,.02,.02,.01,.01,.02,.02,.03,.03,0,0,0,.01,.01,.02,0,.01,.02,.02,.02,.03,0,0,0,0,0,0,0,0,0,0,0,0,0,.01,.02,.03,.02,.04,0,0,0,.01,0,.02,0,0,0,.01,0,.02h0s0,.02,0,.03c0,0,0,.02,0,.03,.02,.07,.02,.15,.01,.23Z"/>
        <path class="cls-2" d="M14.74,11.45c-.26-.19-.47-.47-.78-.63,0,.51-.1,1.27-.73,1.31-.53-.04-.79-.46-.82-.77,0-.56,.12-1.19-.22-1.68,0,0-.01-.02-.02-.02-.03-.06-.04-.12-.04-.17,0-.15,.06-.28,.07-.29,0,0,0,0,0,0h0c.15-.28,.14-.54,.07-.82-.03-.11-.06-.23-.1-.34-.02-.07-.04-.14-.06-.21,0,0,0-.01,0-.02-.02-.07-.04-.13-.05-.2,0,0,0-.01,0-.02-.01-.08-.02-.15-.03-.23-.01-.16,0-.32,.02-.48,.02-.15,.06-.29,.13-.42,.05-.11,.12-.21,.21-.3,.03-.03,.07-.06,.1-.09,0,0,0,0,0,0,0,0,0,0,0,0,0,0,.01-.01,.02-.02,0,0,0,0,0,0,.09-.06,.31-.17,.54-.03t0,0c.08,.07,.16,.14,.22,.22h0c.09,.11,.15,.24,.2,.37,.1,.29,.13,.63,.15,1.02,.46-.72,1.42-1.88,1.88-.99,0,0,0,0,0,0,.01,.02,.02,.04,.03,.07,0,0,0,0,0,0,.07,.18,.2,.63-.16,1.11-.04,.05-.08,.1-.13,.15-.13,.15-.28,.29-.45,.47-.17,.18-.37,.4-.58,.69,.63,.47,1.35,.59,1.77,1.06,.58,.82-.34,1.8-1.22,1.28Z"/>
        <path class="cls-1" d="M5.99,7.05c.06-.16,.24-.32,.54-.46h.26c.04,.05,.06,.13,.05,.22l-.05,.1v.04s-.07,.15-.07,.15v.04c0,.13,.03,.32,.04,.56,.01,.24,.02,.93,.03,2.07,0,1.14-.21,1.79-.64,1.94-.71,.29-1.24-.06-1.59-1.05-.15-.51-.04-.9,.3-1.17l.09-.02h.04s.07,.1,.11,.16l.05,.29v.09s.02,.04,.02,.04v.05s0,.14,0,.14c.01,.05,.02,.11,.02,.18v.05s0,.04,0,.04l.02,.06v.05c0,.06,.03,.13,.06,.21v.04s.02,.04,.02,.04c.09,.11,.21,.2,.37,.26,.09,0,.18-.02,.27-.06,.33-.44,.43-1.02,.31-1.75l-.08-.96v-.05c-.01-.05-.02-.11-.05-.17v-.07s-.1-.79-.1-.79c-.02-.07-.04-.15-.04-.25Z"/>
        <path class="cls-1" d="M7.21,9.8c-.19-.86-.1-1.54,.27-2.06,.37-.52,.73-.81,1.07-.89,.34-.08,.53,.04,.57,.34s-.11,.47-.47,.49c-.42,.05-.7,.28-.84,.68-.15,.32-.2,.54-.16,.65,.06-.03,.29-.18,.69-.45,.39-.27,.68-.3,.85-.09,.09,.26,.05,.43-.1,.5-.16,.08-.27,.12-.35,.14-.32,.13-.59,.34-.82,.63,0,.11,.08,.21,.25,.3,.42,.16,.77,.02,1.06-.42,.04-.05,.1-.12,.16-.2,.06-.08,.15-.13,.27-.13,.16,.14,.23,.33,.22,.59-.04,.21-.09,.36-.16,.45-.44,.55-1.01,.68-1.71,.4-.16-.07-.31-.17-.45-.3-.14-.13-.26-.34-.36-.64Z"/>
        <path class="cls-1" d="M11.8,8.02c.51-.41,.73-.4,.65,.02-.05,.19-.2,.37-.46,.54-.19,.13-.56,.22-1.1,.27l.09,1.01c.26,.65,.15,1.04-.31,1.17-.3-.12-.41-.58-.34-1.38l-.04-.93-.2-.09c-.46-.28-.71-.61-.72-1,.01-.47,.25-.8,.71-.99,.46-.19,.78-.07,.97,.35-.01,.06-.05,.11-.12,.15-.56,.11-.86,.26-.89,.44-.03,.19,.12,.4,.44,.64,.11-.13,.26-.11,.47,.06,.32,0,.61-.09,.86-.25Z"/>
        <path class="cls-1" d="M15.45,10.25l-.04-.02c-.07-.1-.28-.22-.64-.38-.36-.16-.81-.43-1.36-.81,.73-.89,1.25-1.48,1.57-1.77,.03-.09,.06-.16,.1-.22-.02-.37-.13-.52-.32-.44-.19,.08-.42,.31-.68,.69-.26,.38-.6,.8-1.01,1.27l-.02-.41h0s-.01-.26-.01-.26c-.06-.25-.29-.42-.69-.38l.06,.23,.05,.19,.08,.31,.08,.65v.08c-.12,.11-.22,.21-.28,.32,.08,.12,.2,.18,.33,.18v.13c.01,.58,0,1.11,0,1.6,.16,.27,.3,.38,.44,.32,.13-.06,.22-.29,.25-.69,.03-.4-.04-.81-.22-1.23,.55,.46,1,.79,1.36,1l.25,.29c.43,.19,.7,.11,.8-.24,0-.16-.03-.3-.11-.41Z"/>
      </g>
      <path class="cls-1" d="M13.04,7.9c-.07-.24-.29-.39-.68-.35l-.05-.16-.03-.47c-.01-.22,.05-.39,.18-.51,0,0,0,0,0,0,.01,0,.09-.07,.18-.07,.1,0,.21,.07,.26,.38h0c.05,.21,.09,.48,.11,.81v.06s.01,.08,.01,.08l.02,.23Z"/>
    </g>
  </g>
</svg>