<?xml version="1.0" encoding="UTF-8"?>
<svg id="Capa_2" data-name="Capa 2" xmlns="http://www.w3.org/2000/svg" xmlns:xlink="http://www.w3.org/1999/xlink" viewBox="0 0 16.83 19.19">
  <defs>
    <style>
      .cls-1 {
        fill: #173f58;
      }

      .cls-2 {
        fill: #fff;
      }

      .cls-3 {
        fill: #049ad6;
      }

      .cls-4 {
        fill: url(#Degradado_sin_nombre_3-2);
      }

      .cls-5 {
        fill: #089ce6;
        opacity: .28;
      }

      .cls-6 {
        fill: url(#Degradado_sin_nombre_3);
      }

      .cls-7 {
        fill: url(#Degradado_sin_nombre_3-3);
      }

      .cls-8 {
        fill: url(#Degradado_sin_nombre_3-4);
      }
    </style>
    <linearGradient id="Degradado_sin_nombre_3" data-name="Degradado sin nombre 3" x1="7.71" y1="15.51" x2="7.91" y2="-.11" gradientUnits="userSpaceOnUse">
      <stop offset="0" stop-color="#173f58"/>
      <stop offset="1" stop-color="#00adef"/>
    </linearGradient>
    <linearGradient id="Degradado_sin_nombre_3-2" data-name="Degradado sin nombre 3" x1="7.71" y1="15.51" x2="7.91" y2="-.11" xlink:href="#Degradado_sin_nombre_3"/>
    <linearGradient id="Degradado_sin_nombre_3-3" data-name="Degradado sin nombre 3" x1="7.71" y1="15.52" x2="7.91" y2="0" xlink:href="#Degradado_sin_nombre_3"/>
    <linearGradient id="Degradado_sin_nombre_3-4" data-name="Degradado sin nombre 3" x1="2.91" y1="7.91" x2="9.64" y2="-1.55" xlink:href="#Degradado_sin_nombre_3"/>
  </defs>
  <g id="Capa_1-2" data-name="Capa 1">
    <path class="cls-1" d="M5.5,8.29h0s0,0,0,0c0,0,0,0,0,0Zm.02,2.26h0s0,0,0,0h0Zm3,1.1s0,0,0,0c0,.01,0,.02,0,.02v-.02Zm1.43-7.52s0,0,0,0h0s0,0,0,0Zm.25,1.22s0,0,0,0h0s0,0,0,0c0,.03,.01,.06,.01,.09,0-.03,0-.06,0-.09Zm1.64,6.98h0s.02,0,.03,0c-.01,0-.02,0-.03,0Zm4.45-1.14c-.29,.43-.63,.84-1.04,1.19-.26,.22-.53,.41-.84,.55-.29,.13-.59,.21-.89,.26-.34,.05-.69,.06-1.04,.02-.13-.01-.26-.03-.39-.05-.19-.03-.38-.07-.57-.11-.09-.02-.17-.04-.26-.06-.07-.02-.14-.03-.21-.05-.08-.02-.15-.04-.23-.06-.1-.03-.19-.05-.29-.08-.19-.05-.38-.1-.58-.15-.26-.06-.52-.12-.78-.17-.24-.04-.48-.08-.73-.11,0,0,0,0,0,0-.57-.06-1.14-.04-1.71,.08-.7,.15-1.31,.44-1.87,.83-.23,.16-.44,.34-.65,.52,0,0-.01,.01-.02,.02,1.49,1.46,3.57,2.28,5.8,2.1,0,0,.01,0,.02,0,.03,0,.07,0,.1,0,.69-.07,1.35-.22,1.97-.46,0,0,0,0,0,0,1.93-.74,3.44-2.26,4.21-4.14,0,0,0,0,0,0,.02-.07,.05-.14,.07-.2-.03,.02-.05,.04-.07,.07Z"/>
    <path class="cls-1" d="M16.79,7.82c-.39-4.09-4.02-7.09-8.11-6.7C4.59,1.5,1.59,5.14,1.98,9.23c.15,1.54,.76,2.93,1.68,4.04,.16,.2,.34,.39,.52,.56,0,0,.01-.02,.02-.02,.21-.19,.43-.36,.65-.52,.55-.39,1.17-.69,1.87-.83,.57-.12,1.14-.14,1.71-.08,.82,.09,1.6,.29,2.39,.5,.55,.15,1.1,.27,1.66,.33,.35,.04,.7,.03,1.04-.02,.3-.05,.6-.13,.89-.26,.31-.14,.59-.33,.84-.55,.41-.35,.74-.75,1.04-1.19,.02-.03,.04-.05,.07-.07-.02,.07-.04,.14-.07,.2,.17-.42,.31-.86,.4-1.31,.14-.7,.19-1.44,.11-2.2Zm-11.3,.48h0s0,0,0,0c0,0,0,0,0,0Zm.02,2.26h0s0,0,0,0c0,0,0,0,0,0Zm2.99,1.1s0,0,0,0v.02s0,0,0-.02Zm1.44-7.51s0,0,0,0c0,0,0,0,0,0h0Zm.25,1.22h0s0,.06,0,.09c0-.03,0-.06-.01-.09Zm.18,6.62s.02,0,.03,0c0,0,0,0,0,0,0,.02,0,.03,0,.05h0s0,0,0,0c0,0-.02-.02-.04-.07Zm1.46,.36h0s.02,0,.03,0c-.01,0-.02,0-.03,0Z"/>
    <path class="cls-1" d="M15.22,1.91c.07,0,.13,.03,.18,.09,.05,.06,.07,.12,.07,.19,0,.09-.03,.17-.1,.23-.06,.06-.14,.08-.22,.08s-.15-.02-.2-.07c-.06-.05-.08-.11-.08-.2,0-.1,.03-.18,.09-.24,.06-.06,.15-.09,.26-.09Zm-.28,.33c0,.06,.02,.11,.06,.15,.04,.03,.09,.05,.15,.05s.12-.02,.17-.06c.05-.05,.08-.1,.08-.18,0-.06-.02-.1-.05-.15-.04-.04-.08-.06-.14-.06-.09,0-.16,.02-.2,.06-.05,.04-.07,.11-.07,.19Zm.15-.2s-.06,.07-.06,.11c0,.05,0,.09,0,.13s0,.08,.02,.11c0,.03,.04,.03,.08-.02,0-.01,0-.03,0-.04,0-.01-.01-.02-.01-.04s0-.03,0-.05c.11,.09,.18,.11,.21,.07s.02-.06-.04-.06c-.05,0-.1-.02-.13-.05,.1-.02,.14-.07,.14-.13,0-.06-.03-.09-.08-.09s-.09,.02-.13,.05Zm.14,.04s-.01,.05-.04,.06c-.03,.01-.05,.02-.08,.02,0,0-.01,0,0,0,0-.04,.02-.07,.05-.08,.05-.02,.07-.02,.07,0Z"/>
    <path class="cls-3" d="M9.71,2.98h0s0,0,0,0h0s0,0,0,0c0,0,0,0,0,0Z"/>
    <path class="cls-6" d="M15.53,13.96c-.25,.33-.53,.65-.83,.94-2.65,2.58-7.15,3.47-10.92,.92C.44,13.56-.98,9.11,.73,5.22c0,0,0,0,0,0,.01-.02,.02-.05,.03-.07,0,0,0,0,0,0l.5,.14s0,0,0,0c0,0,0,0,0,0,0,0,0,0,0,0,0,0,0,0,0,0,0,0,0,.02,0,.03,0,.01,0,.02,0,.04,0,0,0,.01,0,.02,0,.04,0,.09-.01,.15,0,.04,0,.07,0,.11,0,.02,0,.03,0,.05,0,.02,0,.04,0,.06,0,.01,0,.03,0,.04,0,.01,0,.02,0,.04,0,.01,0,.03,0,.04,0,.03,0,.07,0,.11,0,.04,0,.09,0,.13,0,0,0,0,0,.01,0,.02,0,.03,0,.05,0,.41,0,.95,.07,1.56-.17,1.92,.35,3.81,1.4,5.35,0,0,0,0,0,0h0s.02,.02,.02,.03c.33,.47,.7,.91,1.13,1.31,.12,.11,.23,.21,.36,.32,0,0,0,0,0,0,.23,.2,.48,.38,.74,.55,.73,.48,1.51,.82,2.31,1.05,2.91,.81,6.12-.04,8.29-2.41Z"/>
    <path class="cls-4" d="M15.53,13.96c-.25,.33-.53,.65-.83,.94-2.65,2.58-7.15,3.47-10.92,.92C.44,13.56-.98,9.11,.73,5.22c0,0,0,0,0,0,.01-.02,.02-.05,.03-.07l.5,.14s0,0,0,0c0,0,0,0,0,0,0,0,0,0,0,0,0,0,0,.02,0,.03,0,.01,0,.02,0,.04,0,0,0,.01,0,.02,0,.04,0,.09-.01,.15,0,.04,0,.07,0,.11,0,.02,0,.03,0,.05,0,.02,0,.04,0,.06,0,.01,0,.03,0,.04,0,.01,0,.02,0,.04,0,.01,0,.03,0,.04,0,.03,0,.07,0,.11,0,.04,0,.09,0,.13,0,0,0,0,0,.01,0,.02,0,.03,0,.05,0,.41,0,.94,.07,1.55,0,0,0,.01,0,.02-.17,1.92,.35,3.81,1.4,5.35,0,0,0,0,0,0h0s.02,.02,.02,.03c.33,.47,.7,.91,1.13,1.31,.12,.11,.23,.21,.36,.32,0,0,0,0,0,0,.23,.2,.48,.38,.74,.55,.73,.48,1.51,.82,2.31,1.05,2.91,.81,6.12-.04,8.29-2.41Z"/>
    <path class="cls-7" d="M15.53,13.96c-.25,.33-.53,.65-.83,.94-2.65,2.58-7.15,3.47-10.92,.92C.44,13.56-.98,9.11,.73,5.22c-.01,.08-.56,4.26,1.87,7.78,.02,.04,.05,.07,.07,.1,0,0,0,0,0,0h0s.02,.02,.02,.03c.33,.47,.7,.91,1.13,1.31,.12,.11,.23,.21,.36,.32,0,0,0,0,0,0,.23,.2,.48,.38,.74,.55,.73,.48,1.51,.82,2.31,1.05,2.91,.81,6.12-.04,8.29-2.41Z"/>
    <path class="cls-8" d="M12.28,.81C10.06,.05,7.92,.14,5.85,1.14c-1.7,.82-2.96,2.09-3.78,3.78-.33,.68-.56,1.39-.69,2.09-.04,.24-.08,.48-.1,.72,0,0,0,.01,0,.02-.17,1.92,.35,3.81,1.4,5.35-.03-.03-.05-.07-.07-.1C.17,9.48,.72,5.3,.73,5.22c0,0,0,0,0,0,.01-.02,.02-.05,.03-.07,0,0,0,0,0,0,.24-.54,.55-1.07,.92-1.58C4.33-.12,9.08-.78,12.28,.81Z"/>
    <path class="cls-1" d="M11.83,12.34s.03,.07,.05,.1c-.27-.05-.55-.12-.87-.2,0-.03-.01-.07-.02-.1,0,0,0,0,.01,0,.2,.05,.39,.1,.58,.14,.03,0,.07,.02,.1,.02,.02,0,.04,0,.06,.01,.03,0,.06,.01,.09,.02,.02,0,.04,0,.06,.01-.02,0-.04,0-.06-.01Z"/>
    <path class="cls-5" d="M7.24,16.37c-1.31-.34-2.51-1.01-3.41-1.91,.12,.11,.23,.21,.36,.32,0,0,0,0,0,0,.23,.2,.48,.38,.74,.55,.73,.48,1.51,.82,2.31,1.05Z"/>
    <polygon class="cls-1" points="5.5 8.3 5.5 8.29 5.5 8.29 5.5 8.3"/>
    <path class="cls-1" d="M10.41,12.08s0,0,0,0c0,0,0,0,0,0,0,0,0,0,0,0,0-.03,0-.06-.01-.09,0,0,0,0,0,0,0,.02,0,.03,0,.05h0s0,0,0,0c0,.01,0,.03,0,.04Z"/>
    <path class="cls-3" d="M8.51,11.67s0,0,0-.02c0,0,0,0,0,0v.02Z"/>
    <path class="cls-1" d="M8.51,11.67s0,0,0-.02c0,0,0,0,0,0v.02Z"/>
    <polygon class="cls-1" points="5.51 10.55 5.51 10.55 5.51 10.55 5.51 10.55"/>
    <polygon class="cls-1" points="5.51 10.55 5.51 10.55 5.51 10.55 5.51 10.55"/>
    <path class="cls-1" d="M10.16,19.19h-2.07c-.35,0-.57-.38-.4-.69l.37-.64c.2,.01,.39,.02,.59,.02,.49,0,.98-.04,1.46-.12l.43,.74c.18,.31-.04,.69-.4,.69Z"/>
    <path class="cls-1" d="M8.51,11.67s0,0,0-.02c0,0,0,0,0,0v.02Z"/>
    <path class="cls-1" d="M10.41,12.08s0,0,0,0c0,0,0,0,0,0,0,0,0,0,0,0,0-.03,0-.06-.01-.09,0,0,0,0,0,0,0,.02,0,.03,0,.05h0s0,0,0,0c0,.01,0,.03,0,.04Z"/>
    <path class="cls-1" d="M11.86,12.34s-.02,0-.03,0h0s.02,0,.03,0Z"/>
    <polygon class="cls-1" points="5.5 8.3 5.5 8.29 5.5 8.29 5.5 8.3"/>
    <polygon class="cls-1" points="5.51 10.55 5.51 10.55 5.51 10.55 5.51 10.55"/>
    <path class="cls-1" d="M8.51,11.67s0,0,0-.02c0,0,0,0,0,0v.02Z"/>
    <polygon class="cls-1" points="9.94 4.14 9.94 4.14 9.94 4.14 9.94 4.14"/>
    <path class="cls-1" d="M10.2,5.45s0-.06-.01-.09h0s0,.06,0,.09Z"/>
    <path class="cls-1" d="M10.41,12.04s-.02-.02-.04-.07c0,0,.02,0,.03,0,0,0,0,0,0,0,0,.02,0,.03,0,.05h0s0,0,0,0Z"/>
    <path class="cls-1" d="M11.86,12.34s-.02,0-.03,0h0s.02,0,.03,0Z"/>
    <path class="cls-1" d="M13.51,13.19c-.75,.75-1.69,1.3-2.73,1.59-.1,.03-.19,.05-.29,.07-.44,.1-.9,.15-1.36,.15-1.65,0-3.16-.65-4.28-1.71,.55-.39,1.17-.69,1.87-.83,.57-.12,1.14-.14,1.71-.08,0,0,0,0,0,0,.24,.03,.49,.06,.73,.11,.26,.05,.52,.11,.78,.17,.19,.05,.39,.1,.58,.15,.1,.03,.19,.05,.29,.08,.08,.02,.15,.04,.23,.06,.07,.02,.14,.04,.21,.05,.09,.02,.17,.04,.26,.06,.19,.04,.38,.08,.57,.11,.13,.02,.26,.04,.39,.05,.35,.04,.7,.03,1.04-.02Z"/>
    <path class="cls-5" d="M16.28,11.19c-.29,.43-.63,.84-1.04,1.19-.26,.22-.53,.41-.84,.55-.29,.13-.59,.21-.89,.26-.34,.05-.69,.06-1.04,.02-.13-.01-.26-.03-.39-.05-.19-.03-.38-.07-.57-.11-.09-.02-.17-.04-.26-.06-.07-.02-.14-.03-.21-.05-.08-.02-.15-.04-.23-.06-.1-.03-.19-.05-.29-.08-.19-.05-.38-.1-.58-.15-.26-.06-.52-.12-.78-.17-.24-.04-.48-.08-.73-.11,0,0,0,0,0,0-.57-.06-1.14-.04-1.71,.08-.7,.15-1.31,.44-1.87,.83-.23,.16-.44,.34-.65,.52,0,0-.01,.01-.02,.02,0,0,0,0,0,0,1.24,1.33,3.37,2.31,5.81,2.1,0,0,.01,0,.02,0,.03,0,.07,0,.1,0,.69-.07,1.35-.22,1.97-.46,0,0,0,0,0,0,1.16-.44,2.15-1.13,2.97-2.06,.55-.63,.97-1.32,1.24-2.08,0,0,0,0,0,0,.02-.07,.05-.14,.07-.2-.03,.02-.05,.04-.07,.07Z"/>
    <path class="cls-5" d="M16.35,11.12c-.02,.07-.04,.14-.07,.2,0,0,0,0,0,0-.27,.76-.69,1.45-1.24,2.08-.82,.93-1.8,1.62-2.97,2.06,0,0,0,0,0,0-.62,.24-1.28,.4-1.97,.46-.03,0-.07,0-.1,0,0,0-.01,0-.02,0-2.44,.21-4.57-.77-5.81-2.1,0,0,0,0,0,0,0,0,.01-.02,.02-.02,.21-.19,.43-.36,.65-.52,.55-.39,1.17-.69,1.87-.83,.57-.12,1.14-.14,1.71-.08,0,0,0,0,0,0,.24,.03,.49,.06,.73,.11,.26,.05,.52,.11,.78,.17,.19,.05,.39,.1,.58,.15,.1,.03,.19,.05,.29,.08,.08,.02,.15,.04,.23,.06,.07,.02,.14,.04,.21,.05,.09,.02,.17,.04,.26,.06,.19,.04,.38,.08,.57,.11,.13,.02,.26,.04,.39,.05,.35,.04,.7,.03,1.04-.02,.3-.05,.6-.13,.89-.26,.31-.14,.59-.33,.84-.55,.41-.35,.74-.75,1.04-1.19,.02-.03,.04-.05,.07-.07Z"/>
    <path class="cls-5" d="M16.35,11.12c-.02,.07-.04,.14-.07,.2,0,0,0,0,0,0-.27,.76-.69,1.45-1.24,2.08-.82,.93-1.8,1.62-2.97,2.06,0,0,0,0,0,0-.62,.24-1.28,.4-1.97,.46-.03,0-.07,0-.1,0,0,0-.01,0-.02,0-2.44,.21-4.57-.77-5.81-2.1,0,0,0,0,0,0,0,0,.01-.02,.02-.02,.21-.19,.43-.36,.65-.52,.55-.39,1.17-.69,1.87-.83,.57-.12,1.14-.14,1.71-.08,0,0,0,0,0,0,.24,.03,.49,.06,.73,.11,.26,.05,.52,.11,.78,.17,.19,.05,.39,.1,.58,.15,.1,.03,.19,.05,.29,.08,.08,.02,.15,.04,.23,.06,.07,.02,.14,.04,.21,.05,.09,.02,.17,.04,.26,.06,.19,.04,.38,.08,.57,.11,.13,.02,.26,.04,.39,.05,.35,.04,.7,.03,1.04-.02,.3-.05,.6-.13,.89-.26,.31-.14,.59-.33,.84-.55,.41-.35,.74-.75,1.04-1.19,.02-.03,.04-.05,.07-.07Z"/>
    <path class="cls-5" d="M16.35,11.12c-.02,.07-.04,.14-.07,.2,0,0,0,0,0,0-.27,.76-.69,1.45-1.24,2.08-.82,.93-1.8,1.62-2.97,2.06,0,0,0,0,0,0-.2,.07-.4,.14-.61,.2-.5,.14-.98,.23-1.46,.27,0,0-.01,0-.02,0-2.44,.21-4.57-.77-5.81-2.1,0,0,0,0,0,0,0,0,.01-.02,.02-.02,.21-.19,.43-.36,.65-.52,.55-.39,1.17-.69,1.87-.83,.57-.12,1.14-.14,1.71-.08,0,0,0,0,0,0,.24,.03,.49,.06,.73,.11,.26,.05,.52,.11,.78,.17,.19,.05,.39,.1,.58,.15,.1,.03,.19,.05,.29,.08,.08,.02,.15,.04,.23,.06,.07,.02,.14,.04,.21,.05,.09,.02,.17,.04,.26,.06,.19,.04,.38,.08,.57,.11,.13,.02,.26,.04,.39,.05,.35,.04,.7,.03,1.04-.02,.3-.05,.6-.13,.89-.26,.31-.14,.59-.33,.84-.55,.41-.35,.74-.75,1.04-1.19,.02-.03,.04-.05,.07-.07Z"/>
    <g>
      <path class="cls-2" d="M6.25,14.11l-.27,.43-.1-.06,.11-.18-.16-.1-.11,.18-.1-.07,.26-.43,.11,.07-.1,.17,.16,.1,.1-.17,.11,.06Z"/>
      <path class="cls-2" d="M6.41,14.31l-.05,.09,.15,.08-.04,.08-.15-.08-.05,.1,.17,.09-.04,.09-.27-.14,.23-.45,.27,.14-.04,.09-.17-.08Z"/>
      <path class="cls-2" d="M6.65,14.45s.08-.04,.12-.05c.04,0,.09,0,.13,.02,.06,.02,.1,.06,.12,.1,.03,.05,.04,.1,.03,.15l-.12-.05s0-.04-.02-.06-.03-.03-.05-.04c-.04-.01-.07-.01-.1,0-.03,.02-.06,.04-.07,.08-.02,.04-.02,.08,0,.11,.01,.03,.03,.06,.07,.07,.02,0,.04,.01,.06,0,.02,0,.04-.01,.06-.03l.12,.05s-.08,.07-.13,.09c-.05,.01-.1,0-.16-.02-.04-.02-.08-.05-.11-.08-.03-.04-.04-.08-.05-.12s0-.09,.02-.13,.05-.08,.08-.11Z"/>
      <path class="cls-2" d="M7.61,14.69l-.16,.48-.12-.04,.06-.2-.18-.06-.06,.2-.12-.04,.16-.48,.12,.04-.06,.19,.18,.06,.06-.19,.12,.04Z"/>
      <path class="cls-2" d="M7.73,15.21s-.06-.07-.07-.11-.01-.09,0-.14,.03-.09,.06-.12c.03-.03,.07-.06,.11-.07,.04-.01,.09-.01,.14,0,.04,.01,.09,.03,.12,.06,.03,.03,.06,.07,.07,.11,.01,.04,.01,.09,0,.14-.01,.05-.03,.09-.06,.12-.03,.03-.07,.06-.11,.07s-.09,.01-.13,0-.09-.03-.12-.06Zm.25-.06s.05-.05,.06-.1c0-.04,0-.08-.01-.11s-.05-.05-.08-.06c-.04,0-.07,0-.1,.02-.03,.02-.05,.05-.06,.1-.01,.04,0,.08,.01,.11s.05,.05,.09,.06c.04,0,.07,0,.1-.02Z"/>
      <path class="cls-2" d="M8.28,15.34s-.05-.04-.06-.06c-.01-.03-.02-.05-.01-.09l.13,.02s0,.03,.01,.04,.02,.02,.04,.02c.02,0,.03,0,.04,0s.02-.02,.02-.03c0-.01,0-.02,0-.03,0,0-.02-.02-.03-.02-.01,0-.03-.02-.05-.03-.03-.01-.05-.03-.07-.04-.02-.01-.04-.03-.05-.05-.01-.02-.02-.05-.01-.08,0-.05,.03-.08,.07-.1,.04-.02,.08-.03,.14-.02,.06,0,.1,.03,.13,.06,.03,.03,.04,.07,.04,.12l-.13-.02s0-.03-.01-.04c0-.01-.02-.02-.04-.02-.01,0-.03,0-.04,0,0,0-.01,.02-.02,.03,0,.02,0,.03,.02,.04,.01,.01,.04,.02,.07,.04,.03,.02,.06,.03,.07,.04,.02,.01,.03,.03,.05,.05,.01,.02,.02,.05,.01,.08,0,.03-.02,.05-.03,.07-.02,.02-.04,.04-.07,.05-.03,0-.06,.01-.1,0-.04,0-.07-.02-.09-.03Z"/>
      <path class="cls-2" d="M9.25,15.19s-.04,.04-.06,.05c-.03,.01-.06,.02-.1,.02h-.08s0,.18,0,.18h-.12s.03-.51,.03-.51h.2s.07,.02,.1,.04c.03,.01,.05,.04,.06,.06,.01,.02,.02,.05,.02,.08,0,.03,0,.05-.02,.08Zm-.12-.04s.02-.03,.02-.05c0-.02,0-.04-.01-.05-.01-.01-.03-.02-.05-.02h-.07s0,.12,0,.12h.07s.04,0,.05,0Z"/>
      <path class="cls-2" d="M9.69,15.35h-.19s-.03,.09-.03,.09h-.13s.17-.5,.17-.5h.14s.2,.5,.2,.5h-.13s-.03-.08-.03-.08Zm-.04-.09l-.07-.18-.06,.19h.12Z"/>
      <path class="cls-2" d="M10.21,15.4l-.12-.18h-.03s.02,.19,.02,.19h-.12s-.05-.49-.05-.49l.2-.02s.07,0,.1,0,.05,.03,.07,.05c.02,.02,.03,.05,.03,.08,0,.03,0,.06-.02,.09-.02,.03-.04,.05-.08,.06l.14,.19h-.14Zm-.16-.25h.08s.04-.02,.05-.03c.01-.01,.01-.03,.01-.05s0-.03-.02-.04c-.01,0-.03-.01-.05-.01h-.08s.01,.13,.01,.13Z"/>
      <path class="cls-2" d="M10.77,15.22l-.18,.04v.09s-.14,.02-.14,.02l.08-.53,.14-.03,.27,.46-.13,.02-.05-.08Zm-.05-.09l-.1-.17-.03,.19,.12-.02Z"/>
      <path class="cls-2" d="M11.38,14.66s.08,.03,.11,.06c.03,.03,.05,.07,.07,.12,.01,.05,.02,.09,0,.14,0,.04-.03,.08-.06,.11s-.07,.06-.12,.07l-.18,.05-.15-.48,.18-.05c.05-.02,.1-.02,.14,0Zm.06,.32s.02-.07,0-.11c-.01-.04-.04-.08-.07-.09-.03-.02-.07-.02-.12,0l-.05,.02,.09,.28,.06-.02s.08-.04,.09-.07Z"/>
      <path class="cls-2" d="M11.85,14.96s-.08-.02-.12-.05c-.04-.03-.06-.06-.08-.11-.02-.04-.03-.09-.02-.13,0-.05,.02-.09,.05-.12s.06-.06,.11-.08c.04-.02,.09-.02,.13-.02,.04,0,.08,.02,.12,.05,.04,.03,.06,.06,.08,.11,.02,.05,.02,.09,.02,.14,0,.05-.02,.09-.05,.12-.03,.04-.06,.06-.11,.08s-.09,.02-.13,.02Zm.17-.2s0-.07,0-.11c-.02-.04-.04-.07-.07-.08-.03-.02-.07-.02-.1,0-.04,.02-.06,.04-.08,.07-.01,.03-.01,.07,0,.11,.02,.04,.04,.07,.07,.09,.03,.01,.07,.01,.11,0,.04-.01,.06-.04,.08-.07Z"/>
      <path class="cls-2" d="M12.73,14.59l-.11,.06-.33-.18,.14,.28-.11,.06-.23-.45,.11-.06,.33,.18-.14-.28,.11-.06,.23,.45Z"/>
      <path class="cls-2" d="M13.08,14.27l-.16,.1,.02,.09-.11,.07-.12-.52,.12-.08,.42,.33-.11,.07-.07-.06Zm-.08-.06l-.15-.12,.05,.19,.11-.07Z"/>
      <path class="cls-2" d="M13.56,14.04l-.2-.09-.02,.02,.11,.15-.1,.07-.3-.4,.17-.12s.06-.04,.09-.04,.06,0,.08,0c.03,.01,.05,.03,.07,.05,.02,.03,.03,.06,.03,.09,0,.03-.01,.06-.03,.09l.21,.09-.11,.08Zm-.27-.14l.06-.05s.03-.03,.03-.04c0-.02,0-.03-.01-.05s-.03-.02-.04-.03c-.02,0-.03,0-.05,.02l-.06,.05,.08,.1Z"/>
    </g>
    <polygon class="cls-1" points="7.67 11.09 8.52 10.37 8.4 10.21 7.81 10.53 7.49 10.93 7.67 11.09"/>
    <polygon class="cls-1" points="11.37 10.67 10.14 10.35 10.16 10.13 10.91 10.15 11.45 10.4 11.37 10.67"/>
    <g>
      <path class="cls-3" d="M7.11,4.41c.1-.7,.7-1.37,1.33-1.53,.7-.18,1.39,.08,1.84,.69,.02,.03,.04,.07,.07,.14-.38,.07-.72,.09-1.06-.06-.13-.06-.25-.14-.38-.2-.3-.13-.55-.09-.78,.15-.1,.11-.18,.24-.27,.36-.18,.25-.43,.39-.75,.45Z"/>
      <path class="cls-3" d="M10.44,12.28c-.22-.06-.45-.11-.67-.16-.07-.29-.11-.59-.15-.89-.03-.16-.05-.33,.07-.5,.17,.06,.23,.18,.29,.3,.17,.31,.31,.62,.4,.96,0,0,0,0,0,0,.03,.1,.05,.19,.06,.29Z"/>
      <path class="cls-3" d="M8.72,7.21c-.44,.09-.57,0-.61-.45-.01-.17,.04-.29,.19-.38,.34-.2,.7-.34,1.1-.39,.14-.02,.22,.04,.24,.18,.06,.37,0,.7-.42,.87-.16,.07-.33,.12-.5,.18Z"/>
      <path class="cls-3" d="M10.25,10.51c-.06-.1-.12-.17-.15-.25-.17-.43-.31-.87-.31-1.35,0-.06,0-.12,.01-.19,.02-.11,.09-.16,.19-.12,.17,.05,.34,.12,.5,.18,.05,.02,.1,.06,.12,.1,.15,.27,.24,.57,.15,.87-.08,.28-.3,.49-.51,.75Z"/>
      <path class="cls-3" d="M9.04,10.29c.03,.22,.06,.38,.06,.55,0,.18-.06,.23-.23,.19-.16-.05-.32-.11-.47-.19-.08-.05-.14-.16-.17-.25-.08-.23-.14-.46-.22-.69-.05-.13-.03-.22,.07-.31,.02-.02,.04-.04,.06-.05,.4-.35,.56-.31,.73,.19,.07,.2,.12,.41,.17,.57Z"/>
      <path class="cls-3" d="M10.04,6.67c.02-.22,.03-.44,.06-.66,.02-.14,.1-.24,.24-.24,.21,0,.43,0,.64,.01,.12,0,.2,.09,.18,.22-.03,.28-.07,.56-.11,.85-.02,.16-.14,.23-.29,.22-.17-.02-.33-.06-.49-.1-.13-.04-.2-.15-.23-.29Z"/>
      <path class="cls-3" d="M8.49,5.95c-.41,.06-.46,.02-.43-.4,.01-.19,.09-.33,.27-.39,.27-.1,.53-.2,.81-.27,.24-.06,.31,0,.39,.2,.09,.25,.06,.4-.15,.5-.29,.14-.59,.24-.89,.36Z"/>
      <path class="cls-3" d="M9.81,8.09c.03-.19,.05-.39,.11-.57,.07-.26,.22-.34,.49-.31,.1,.01,.19,.04,.28,.08,.19,.09,.22,.15,.18,.36-.05,.24-.12,.47-.17,.7-.03,.14-.12,.19-.25,.19-.3,0-.61-.18-.64-.45Z"/>
      <path class="cls-3" d="M8.09,4.76c0-.35,.06-.67,.18-.98,.09-.23,.49-.3,.63-.11,.13,.19,.23,.4,.32,.61,.05,.1,.03,.21-.08,.25-.3,.1-.61,.19-.92,.27-.03,0-.07-.02-.13-.04Z"/>
      <path class="cls-3" d="M11.84,12.31s-.01,.02-.02,.03c-.02,.03-.04,.05-.06,.08-.04,.05-.08,.11-.13,.16-.21-.04-.42-.1-.65-.16,0-.06,.02-.13,.03-.2,0-.02,.01-.05,.02-.07,.09-.36,.29-.71,.57-.94,.1,.32,.19,.61,.27,.9,.02,.06,0,.15-.03,.2Z"/>
      <path class="cls-3" d="M10.5,11.08c-.06-.39,.09-.66,.29-.91,.08-.09,.19-.09,.25,.01,.13,.21,.25,.43,.36,.65,.02,.04,.01,.11,0,.15-.1,.22-.2,.44-.33,.64-.12,.18-.24,.16-.34-.03-.1-.18-.17-.37-.23-.51Z"/>
      <path class="cls-3" d="M7.24,8.7c.04-.1,.04-.21,.1-.25,.16-.12,.34-.22,.52-.32,.1-.05,.21-.02,.29,.08,.01,.01,.02,.03,.03,.04,.38,.47,.25,.89-.32,1.09-.09,.03-.18,.03-.24-.05-.13-.19-.25-.39-.38-.59Z"/>
      <path class="cls-3" d="M7.82,7.35c.03,.2,.02,.37-.11,.48-.14,.12-.29,.23-.45,.32-.11,.06-.21,.03-.26-.1-.07-.2-.14-.4-.2-.6-.01-.04,0-.09,0-.13,.05-.18,.58-.48,.75-.42,.05,.02,.1,.07,.13,.12,.06,.12,.1,.24,.14,.33Z"/>
      <path class="cls-3" d="M7.56,5.58c.18,.7-.16,1.22-.82,1.28-.1-.26-.07-.53-.03-.8,0-.06,.05-.12,.1-.15,.21-.18,.45-.3,.75-.32Z"/>
      <path class="cls-3" d="M8.51,7.99c-.05-.23-.03-.28,.18-.38,.18-.08,.36-.15,.55-.21,.24-.07,.32,0,.3,.24,0,.12-.03,.25-.05,.37-.02,.17-.11,.28-.28,.35-.42,.17-.6,.08-.7-.37Z"/>
      <path class="cls-3" d="M9.33,12.02c-.28-.05-.57-.1-.86-.13-.03,0-.06,0-.09,0-.04-.19-.05-.58,0-.64,.03-.04,.11-.06,.16-.06,.45,.02,.78,.39,.78,.84Z"/>
      <path class="cls-3" d="M11.01,5.13c.06,.29,0,.34-.26,.33-.11,0-.23-.02-.34-.04-.36-.06-.52-.26-.53-.62,0-.11,.04-.18,.15-.18,.25,.02,.5,.03,.74,.09,.2,.05,.2,.27,.24,.41Z"/>
      <path class="cls-3" d="M7.72,4.46c.04,.63-.29,1.02-.92,1.12-.02-.27,0-.55,.14-.77,.17-.26,.47-.32,.78-.34Z"/>
      <path class="cls-3" d="M10.75,4.51c-.35,.03-.67-.01-.99-.12-.04-.01-.08-.04-.11-.08-.08-.1-.22-.2-.16-.34,.06-.14,.21-.11,.33-.1,.16,.01,.32,.02,.48,.05,.3,.06,.41,.21,.44,.58Z"/>
    </g>
    <g>
      <g>
        <path class="cls-2" d="M6.74,6.91s0,.04,0,.06c0,0,0,.01,0,.02h0s0,.03,0,.04c0,0,0,0,0,0,0,.02,0,.05,0,.07,0,.02,0,.04,0,.05,0,.01,0,.02,0,.04,0,.04,0,.09,0,.15h0c0,.07,0,.15,0,.24,0,.02,0,.04,0,.06,0,.2,.02,.44,.03,.71h0c.01,.32,.02,.66,0,1h0c0,.09-.01,.17-.02,.26,0,.07-.01,.13-.02,.2,0,.02,0,.04,0,.06h0c0,.07-.02,.14-.03,.2-.02,.1-.04,.19-.07,.28-.05,.19-.13,.37-.22,.52-.21,.33-.52,.54-.98,.52-.26,.06-.52-.04-.76-.23-.08-.07-.16-.15-.23-.23-.08-.1-.16-.21-.23-.32,0,0,0-.02-.01-.03-.11-.2-.2-.43-.26-.65-.14-.58-.03-1.17,.5-1.41h0s0,0,.01,0c.05-.02,.11-.04,.17-.06,.06,0,.12-.01,.19,0,0,0,0,0,0,0,.1,.03,.18,.08,.24,.15,0,0,0,.01,.02,.02,.27,.32,.17,.95,.31,1.34,.31-.71,.09-1.7-.04-2.58,0,0,0-.01,0-.02-.02-.13-.04-.26-.05-.39-.02-.14-.03-.29-.03-.42,.07-.35,.47-.65,.9-.75,0,0,0,0,0,0,.02,0,.04,0,.06-.01h0c.1-.02,.31-.03,.45,.1,.02,.02,.03,.03,.05,.05t0,0s0,0,0,0c.01,.02,.02,.04,.03,.05,0,.02,.02,.03,.02,.05h0s.03,.08,.04,.12c0,.02,.01,.05,.01,.07,0,.06,0,.12,0,.18,0,.06-.02,.12-.04,.18,0,.01,0,.02,0,.03,0,.01,0,.03,0,.04-.01,.07-.03,.14-.03,.23Z"/>
        <path class="cls-2" d="M9.63,9.15s0,.07,0,.11c0,.02,0,.04,0,.06,0,.03,0,.05-.02,.08,0,0,0,.01,0,.02-.02,.08-.04,.15-.08,.23,0,0,0,0,0,0-.01,.02-.02,.05-.03,.07-.05,.1-.11,.2-.19,.3,0,0,0,0,0,0-.02,.02-.03,.04-.05,.06-.04,.04-.08,.09-.12,.13-.05,.04-.09,.08-.15,.12-.02,.02-.04,.03-.06,.04,0,0,0,0-.01,0,0,0-.02,.01-.03,.02-.01,0-.02,.01-.04,.02,0,0-.02,0-.02,.01,0,0,0,0,0,0,0,0-.01,0-.02,0-.09,.05-.18,.08-.28,.1-.01,0-.03,0-.04,0,0,0,0,0,0,0-.01,0-.02,0-.03,0,0,0,0,0-.01,0-.07,0-.14,.01-.2,0-.09,0-.17,.01-.25,0-.05,0-.1,0-.15-.01,0,0-.02,0-.02,0,0,0-.02,0-.03,0-.27-.05-.5-.16-.69-.32-.08-.07-.16-.14-.23-.23-.04-.04-.07-.08-.1-.13h0s0,0,0,0h0s-.02-.03-.03-.04c-.03-.04-.06-.09-.08-.13-.44-.76-.46-1.83-.03-2.52h0s.01-.02,.02-.03c.03-.04,.06-.08,.09-.12,0,0,0,0,0,0,0-.01,.02-.03,.02-.04h0s0,0,0,0c.02-.04,.05-.08,.07-.11h0s.06-.09,.09-.13c.09-.12,.19-.22,.29-.3t0,0s.01-.01,.02-.02c.07-.06,.14-.11,.22-.15,0,0,0,0,.01,0,0,0,.01,0,.02-.01,0,0,0,0,0,0,.16-.09,.33-.15,.49-.17,0,0,.01,0,.02,0,.05,0,.09-.01,.14-.01h0c.07,0,.15,0,.21,0,.08,.01,.15,.03,.21,.05,.04,.02,.09,.04,.13,.06,.03,.02,.05,.03,.07,.05,.05,.04,.09,.09,.13,.14,0,.01,.02,.02,.02,.04,0,0,0,0,0,0,.04,.07,.07,.16,.07,.25,0,.19-.06,.41-.24,.67,0,0,0,0,0,0-.03,.04-.06,.09-.1,.13,.15,.04,.24,.12,.3,.2,.09,.14,.11,.3,.12,.43,.02,.14,.04,.23,.16,.2,.03,.02,.05,.03,.07,.05,.04,.03,.07,.06,.1,.09,0,0,0,0,0,0,.04,.04,.07,.08,.1,.12,.01,.02,.03,.04,.04,.06h0s.03,.05,.04,.07c.01,.03,.02,.05,.03,.08,.03,.08,.05,.15,.05,.24,0,0,0,.01,0,.02h0s0,.08,0,.12Z"/>
        <path class="cls-2" d="M12.03,7.49h0s0,.01,0,.02c0,0,0,0,0,0h0c-.03,.22-.16,.47-.39,.67h0c-.11,.1-.25,.19-.4,.27h0s0,0,0,0c-.08,.04-.17,.07-.27,.1,0,0-.01,0-.02,0-.11,.03-.22,.06-.34,.07,0,.05,0,.11,.01,.17,.02,.16,.06,.34,.1,.52,.02,.08,.03,.15,.04,.23,0,.03,0,.06,.01,.09,.01,.09,.02,.18,.01,.26,0,.11-.03,.21-.09,.29-.02,.07-.12,.19-.24,.29,0,0-.02,.01-.03,.02-.01,.01-.03,.02-.04,.03-.06,.04-.13,.08-.19,.11-.03,.01-.07,.02-.1,.03,0,0-.02,0-.03,0-.02,0-.04,0-.06,0,0,0,0,0,0,0-.06,0-.11,0-.16-.03-.02-.01-.04-.02-.05-.03-.12-.07-.21-.15-.28-.24,0,0,0,0,0,0-.08-.1-.14-.22-.18-.33,0,0,0,0,0,0,0-.01,0-.02,0-.03-.01-.04-.02-.07-.03-.11,0,0,0,0,0,0-.04-.18-.04-.37-.04-.56,0-.12,0-.24,.02-.35,0-.09,0-.18,0-.26v-.02c0-.06,0-.13,0-.19,0-.02,0-.04,0-.06,0-.02,0-.03,0-.05-.03-.02-.06-.04-.09-.05-.12-.08-.23-.16-.32-.25-.05-.04-.09-.09-.13-.13-.21-.24-.31-.52-.33-.82,0-.12,.01-.24,.04-.35h0c.03-.1,.07-.19,.12-.28,0-.01,.01-.02,.02-.03,.05-.09,.12-.17,.19-.25,.03-.03,.06-.06,.08-.09,.07-.06,.14-.12,.21-.17,.08-.05,.16-.1,.25-.13,.15-.06,.31-.1,.47-.1,.12,0,.24,.02,.35,.06,0,0,0,0,0,0,0,0,0,0,0,0,.07,.03,.14,.06,.2,.11,.11,.08,.2,.18,.28,.31,0,.01,.02,.03,.03,.05h0s.03,.06,.04,.09c.01,.03,.02,.06,.02,.1,.01,.07,.01,.14,0,.22,0,.03-.02,.05-.03,.08,0,0,0,0,0,0,0,.02-.02,.03-.03,.05,0,0,0,0,0,0-.07,.12-.18,.22-.34,.26-.06,.02-.12,.03-.16,.04-.02,0-.04,0-.05,.01-.26,.06-.19,.05-.01,.1,.02,0,.03,0,.05,.01,.07,.02,.15,.05,.23,.1,.1-.07,.2-.13,.3-.18,.05-.02,.09-.05,.13-.07,.04-.02,.08-.04,.12-.05,.07-.03,.14-.06,.21-.08,.09-.03,.17-.05,.25-.06,0,0,.02,0,.03,0,0,0,0,0,.01,0,0,0,.01,0,.02,0h.02s0,0,0,0c0,0,0,0,0,0,0,0,.01,0,.02,0,0,0,0,0,0,0,0,0,0,0,0,0,0,0,0,0,.01,0h0s.04,0,.05,0h0s.02,0,.02,0c0,0,.02,0,.02,0,0,0,0,0,0,0,0,0,.02,0,.02,0,0,0,.02,0,.03,0,0,0,.01,0,.02,0,0,0,.02,0,.03,0,0,0,.01,0,.02,0,0,0,.02,0,.03,0,.02,0,.04,.01,.06,.02,0,0,.02,0,.03,.01,.01,0,.02,.01,.03,.02,.01,0,.02,.02,.03,.02,0,0,.02,.01,.02,.02,.01,0,.02,.02,.03,.03,0,0,0,0,.01,.02,0,.01,.02,.02,.02,.03,0,0,0,0,0,0,0,0,0,0,0,0,0,.01,.01,.02,.02,.04,0,0,0,.01,0,.02,0,0,0,.01,0,.02h0s0,.02,0,.03c0,0,0,.02,0,.03,.02,.07,.02,.14,.01,.22Z"/>
        <path class="cls-2" d="M13.58,10.55c-.24-.18-.43-.44-.72-.58,0,.47-.09,1.17-.67,1.2-.49-.03-.73-.42-.76-.71,0-.52,.11-1.1-.2-1.54,0,0-.01-.02-.02-.02-.03-.05-.04-.11-.04-.16,0-.13,.05-.26,.06-.27,0,0,0,0,0,0h0c.14-.26,.12-.5,.06-.75-.03-.1-.06-.21-.09-.32-.02-.06-.04-.13-.06-.19,0,0,0-.01,0-.02-.02-.06-.03-.12-.05-.19,0,0,0-.01,0-.02-.01-.07-.02-.14-.02-.21-.01-.15,0-.3,.01-.44,.02-.14,.06-.27,.12-.39,.05-.1,.11-.19,.19-.27,.03-.03,.06-.06,.1-.08,0,0,0,0,0,0,0,0,0,0,0,0,0,0,.01-.01,.02-.01,0,0,0,0,0,0,.08-.05,.29-.15,.5-.03t0,0c.08,.06,.14,.13,.2,.2h0c.08,.1,.14,.22,.18,.34,.09,.27,.12,.58,.13,.94,.42-.67,1.31-1.73,1.73-.91,0,0,0,0,0,0,.01,.02,.02,.04,.03,.06,0,0,0,0,0,0,.07,.16,.18,.58-.15,1.02-.04,.05-.08,.09-.12,.14-.12,.13-.26,.27-.42,.43-.16,.17-.34,.36-.54,.63,.58,.43,1.25,.55,1.63,.98,.53,.75-.32,1.66-1.13,1.18Z"/>
        <path class="cls-1" d="M5.51,6.49c.05-.15,.22-.29,.5-.43h.24s.05,.12,.05,.2l-.04,.09v.04s-.06,.13-.06,.13v.04c0,.12,.02,.29,.04,.51,.01,.22,.02,.86,.03,1.91,0,1.05-.19,1.64-.59,1.78-.65,.27-1.14-.06-1.46-.97-.13-.47-.04-.83,.28-1.08l.08-.02h.04s.06,.09,.1,.15l.05,.26v.08s.02,.03,.02,.03v.05s0,.13,0,.13c.01,.05,.02,.1,.02,.17v.05s0,.03,0,.03v.06s.02,.05,.02,.05c0,.06,.02,.12,.06,.19v.04s.01,.03,.01,.03c.08,.1,.19,.18,.34,.24,.08,0,.16-.02,.25-.06,.3-.4,.4-.94,.29-1.61l-.07-.89v-.05s-.02-.1-.05-.15v-.06s-.09-.73-.09-.73c-.02-.06-.03-.14-.04-.23Z"/>
        <path class="cls-1" d="M6.64,9.02c-.18-.79-.09-1.42,.25-1.89,.34-.47,.67-.75,.98-.82,.31-.07,.49,.03,.53,.31s-.1,.43-.43,.45c-.39,.05-.65,.26-.77,.62-.14,.29-.18,.49-.14,.6,.06-.03,.27-.17,.63-.41,.36-.25,.62-.27,.78-.08,.08,.24,.05,.39-.09,.46-.14,.07-.25,.11-.32,.13-.29,.12-.54,.31-.75,.58,0,.1,.08,.19,.23,.28,.39,.15,.71,.02,.98-.39,.04-.05,.09-.11,.14-.18,.06-.08,.14-.12,.24-.12,.15,.12,.22,.31,.21,.54-.03,.19-.08,.33-.15,.41-.4,.51-.93,.63-1.57,.37-.15-.07-.29-.16-.41-.28-.12-.12-.24-.32-.34-.59Z"/>
        <path class="cls-1" d="M10.87,7.39c.47-.38,.67-.37,.6,.02-.05,.17-.19,.34-.42,.49-.18,.12-.51,.21-1.01,.24l.08,.93c.24,.6,.14,.96-.29,1.08-.28-.11-.38-.54-.31-1.27l-.03-.86-.18-.09c-.43-.26-.65-.56-.67-.92,0-.43,.23-.74,.65-.91,.42-.18,.72-.07,.89,.32-.01,.05-.05,.1-.11,.14-.52,.1-.79,.24-.82,.41-.03,.17,.11,.37,.4,.59,.1-.12,.24-.1,.43,.06,.3,0,.56-.08,.8-.23Z"/>
        <path class="cls-1" d="M14.23,9.44l-.04-.02c-.07-.09-.26-.2-.59-.35-.33-.15-.75-.39-1.25-.74,.67-.82,1.15-1.36,1.44-1.63,.03-.08,.06-.15,.09-.21-.02-.34-.12-.48-.29-.4-.17,.07-.38,.29-.62,.64-.24,.35-.55,.74-.93,1.17l-.02-.38h0s-.01-.24-.01-.24c-.06-.23-.27-.39-.64-.35l.06,.21,.05,.17,.08,.29,.08,.6v.07c-.11,.1-.2,.2-.26,.29,.08,.11,.18,.17,.31,.17v.12c.01,.53,0,1.03,0,1.47,.15,.25,.28,.35,.4,.29,.12-.05,.2-.26,.23-.63,.03-.37-.04-.75-.2-1.13,.51,.42,.92,.73,1.25,.92l.23,.27c.4,.18,.65,.1,.74-.22,0-.15-.03-.28-.1-.38Z"/>
      </g>
      <path class="cls-1" d="M12.01,7.28c-.06-.22-.27-.36-.62-.32l-.05-.15-.03-.44c-.01-.2,.05-.36,.17-.47,0,0,0,0,0,0,0,0,.08-.07,.16-.07,.09,0,.19,.07,.24,.35h0c.04,.19,.08,.44,.1,.74v.06s0,.08,0,.08l.02,.21Z"/>
    </g>
  </g>
</svg>