<?xml version="1.0" encoding="UTF-8"?>
<svg id="Capa_2" data-name="Capa 2" xmlns="http://www.w3.org/2000/svg" viewBox="0 0 329.66 204.38">
  <defs>
    <style>
      .cls-1 {
        fill: #fff;
      }

      .cls-2 {
        fill: #a4db69;
      }

      .cls-3 {
        fill: none;
        stroke: #fff;
        stroke-miterlimit: 10;
      }

      .cls-4 {
        fill: #9e872a;
      }

      .cls-5 {
        fill: #fed944;
      }

      .cls-6 {
        fill: #6dd6fc;
      }

      .cls-7 {
        fill: #78d1f9;
      }

      .cls-8 {
        fill: #a2d967;
      }

      .cls-9 {
        fill: #0052b3;
      }

      .cls-10 {
        fill: #d70027;
      }
    </style>
  </defs>
  <g id="Capa_1-2" data-name="Capa 1">
    <circle class="cls-1" cx="19.17" cy="187.22" r="11.49"/>
    <g>
      <path class="cls-1" d="M3.45,.04c.09-.03,.47-.04,1.14-.04,.58,0,1,.06,1.28,.18,.24,.12,.53,.34,.87,.66s.56,.6,.68,.85c.4,.82,.7,4.9,.91,12.24,.06,2.5,.11,3.93,.14,4.29l.09,1.09h3.79c2.47,0,4,.06,4.61,.18,.97,.24,1.67,.56,2.1,.96,.43,.4,.67,.97,.73,1.73v.41c0,1.22-.45,2.07-1.37,2.56-.79,.37-2.22,.61-4.29,.73-.61,.03-1.89,.05-3.84,.05-4.11,0-6.55-.06-7.31-.18-1.01-.12-1.73-.35-2.19-.68-.46-.34-.7-.91-.73-1.74v-.41c0-1.19,.41-2.19,1.23-3.01l.04-5.11c.09-8.34,.21-12.73,.37-13.15C1.92,.88,2.5,.35,3.45,.04Z"/>
      <path class="cls-1" d="M30.44,1.28c.58-.18,1.28-.27,2.1-.27,1.34,0,2.65,.21,3.93,.64,4.84,1.61,7.38,5.04,7.63,10.28v.91c0,1.46-.21,3-.64,4.61-1.07,3.81-2.91,6.44-5.53,7.9-1.37,.76-2.79,1.19-4.25,1.28-.06,0-.18,0-.36,.02-.18,.02-.32,.02-.41,.02-1.73,0-3.03-.15-3.88-.45-.15-.06-.35-.12-.59-.18-.15-.06-.24-.09-.27-.09-.15,.09-.78-.25-1.87-1.01-2.25-1.55-3.69-3.68-4.29-6.39-.12-.58-.18-1.73-.18-3.47,0-2.4,.18-4.19,.55-5.34,1.46-4.54,4.16-7.35,8.08-8.45Zm3.79,7.03c-.37-.09-.67-.14-.91-.14-.27,0-.6,.04-.96,.14-.94,.27-1.75,.8-2.42,1.58s-1.14,1.7-1.42,2.76c-.09,.37-.14,.97-.14,1.83s.04,1.46,.14,1.92c.46,1.98,1.63,3.01,3.52,3.11h.37c2.22,0,3.78-1.05,4.66-3.15,.39-.97,.59-1.99,.59-3.06s-.2-1.93-.59-2.7c-.55-1.16-1.49-1.92-2.83-2.28Z"/>
      <path class="cls-1" d="M52.18,.32h2.15c1.4,.03,2.35,.12,2.83,.27,1.37,.4,2.42,.96,3.15,1.69,.46,.46,.75,.87,.87,1.23,.15,.4,.23,.78,.23,1.14,0,.73-.21,1.38-.64,1.96-.43,.58-.99,.96-1.69,1.14-.09,.03-.24,.04-.45,.04-.43,0-1.07-.18-1.92-.55-.76-.33-1.51-.5-2.24-.5-.58,0-1.03,.12-1.37,.37-.18,.15-.34,.35-.48,.59-.14,.25-.19,.44-.16,.59,.09,.34,.38,.62,.87,.87,.49,.25,1.38,.56,2.69,.96,2.01,.58,3.41,1.16,4.2,1.73,1.01,.79,1.78,1.86,2.33,3.2,.37,1.01,.55,2.04,.55,3.11,0,2.53-.84,4.6-2.51,6.21-1.49,1.43-3.52,2.15-6.07,2.15-2.34,0-4.32-.64-5.94-1.92-1.22-1.01-1.9-2.16-2.06-3.47v-.27c0-.52,.15-1.02,.46-1.51,.31-.49,.7-.84,1.19-1.05,.37-.18,.87-.27,1.51-.27,.55,0,.96,.05,1.23,.16,.27,.11,.69,.36,1.23,.75,.88,.64,1.65,.96,2.28,.96,.31,0,.55-.03,.73-.09,.76-.21,1.22-.62,1.37-1.23,.03-.09,.04-.23,.04-.41,0-1.19-1.42-2.21-4.25-3.06-1.61-.49-2.75-.92-3.4-1.3-.66-.38-1.23-.97-1.71-1.76-.64-1.01-.98-2.19-1.01-3.56v-.46c0-1.31,.24-2.45,.73-3.43,.58-1.22,1.26-2.15,2.03-2.79s1.85-1.14,3.22-1.51Z"/>
      <path class="cls-1" d="M93.69,.32c1.8-.21,2.89-.32,3.29-.32,.88,0,1.52,.32,1.92,.96,.49,.76,.73,1.8,.73,3.11v.37c-.03,.64-.1,1.07-.21,1.3-.11,.23-.34,.42-.71,.57-.24,.09-1.26,.37-3.06,.85-1.8,.47-3.03,.77-3.7,.89-.39,.09-.59,.18-.59,.27v.05s0,.08,.02,.14c.02,.06,.02,.12,.02,.18s0,.14,.02,.23,.02,.17,.02,.23c.18,1.52,.43,4.84,.73,9.96,.09,1.77,.14,3.14,.14,4.11s-.04,1.55-.14,1.73c-.18,.49-.58,.91-1.19,1.28-.61,.39-1.26,.59-1.96,.59-.89,0-1.6-.27-2.15-.82-.46-.46-.76-1.18-.91-2.17-.15-.99-.38-3.63-.68-7.92-.3-4.23-.49-6.39-.55-6.48-.06-.06-.17-.09-.32-.09-.21,0-.89,.08-2.03,.25s-2.02,.25-2.63,.25c-.52,0-.96-.08-1.32-.23-1.22-.61-1.83-2.01-1.83-4.2,0-.88,.09-1.48,.27-1.78,.27-.43,.69-.72,1.26-.89s2.11-.45,4.64-.85c3.65-.58,7.29-1.1,10.92-1.55Z"/>
      <path class="cls-1" d="M104.46,1.1c.27-.18,.61-.27,1.01-.27,.85,0,1.69,.27,2.51,.82,.18,.09,.35,.14,.5,.14,.36,0,.73-.02,1.09-.05,.88-.09,2.47-.14,4.75-.14,1.31,0,2.24,.03,2.79,.09,1.03,.09,1.55,.9,1.55,2.42,0,1.28-.41,2.13-1.23,2.56-.43,.25-1.95,.41-4.57,.5-1.46,.06-2.51,.12-3.15,.18l-.78,.05,.05,.55c.03,.12,.05,.36,.07,.73,.01,.37,.02,.62,.02,.78l.09,.96,1-.09c.97-.06,1.92-.09,2.83-.09,1.73,0,2.72,.04,2.97,.14,.37,.12,.66,.44,.89,.96,.23,.52,.34,1.07,.34,1.64,0,.52-.11,.97-.32,1.37-.34,.58-1.48,1.05-3.43,1.42-2.16,.39-3.56,.59-4.2,.59-.09,0-.14,.67-.14,2.01v2.01l.64-.09c.61-.09,1.95-.23,4.02-.41,2.07-.18,3.41-.27,4.02-.27,.97,0,1.61,.08,1.92,.23,.55,.31,.88,.93,1,1.87,.06,.43,.09,.73,.09,.91,0,1.37-.47,2.27-1.42,2.69-.7,.33-2.91,.67-6.62,1-2.53,.25-4.46,.37-5.8,.37-1.07,0-1.86-.08-2.37-.23-.7-.21-1.28-.66-1.73-1.32-.25-.33-.41-1.16-.48-2.49s-.13-4.39-.16-9.2l-.05-6.58-.27-.41c-.15-.21-.23-.58-.23-1.1s.08-.93,.23-1.23c.64-1.37,1.49-2.37,2.56-3.01Z"/>
      <path class="cls-1" d="M137.43,13.47c0-.55-.04-2.08-.11-4.59-.08-2.51-.11-4.06-.11-4.63v-1.83l.32-.41c.39-.55,.96-.91,1.69-1.09,.37-.09,.74-.14,1.14-.14,1.19,0,2.05,.25,2.6,.73,.52,.49,.87,4.67,1.05,12.56,.03,1.28,.05,2.98,.05,5.12,0,3.38-.08,5.27-.23,5.66-.36,.79-1.23,1.19-2.6,1.19h-.27c-.67,0-1.16-.08-1.46-.23-1.04-.55-3.14-3.09-6.3-7.63-1.16-1.7-1.81-2.65-1.96-2.83l-.41-.5-.05,.27c0,.55,.06,1.77,.18,3.65,.12,1.89,.18,3.11,.18,3.65,.03,.43,.04,.91,.04,1.46,0,.46-.04,.78-.11,.96s-.28,.47-.62,.87c-.55,.64-1.3,.97-2.24,1.01h-.41c-1.77,0-2.88-.62-3.33-1.87-.15-.37-.26-3.56-.32-9.59l-.14-7.63-.37-.5c-.52-.7-.78-1.61-.78-2.74,0-1,.21-1.73,.64-2.19,.61-.67,1.54-1.01,2.79-1.01,.15,0,.41,.03,.78,.09,.85,.21,1.52,.6,2.01,1.14,.4,.4,2.54,3.44,6.44,9.13l1.92,2.74v-.82Z"/>
      <path class="cls-1" d="M148.03,.32c.37-.09,.73-.14,1.1-.14,1.25,0,2.21,.37,2.88,1.09,.27,.37,.47,.66,.59,.87,.18,.39,.31,1.33,.39,2.81s.19,5.53,.34,12.17c.03,.94,.04,2.15,.04,3.61,0,2.01-.06,3.18-.18,3.52-.18,.58-.65,1.03-1.41,1.37-.79,.37-1.63,.55-2.51,.55-.61,0-1.07-.09-1.37-.27-.76-.39-1.19-1.13-1.28-2.19-.18-2.22-.3-6.5-.37-12.83-.03-3.9-.09-5.97-.18-6.21-.03-.06-.05-.3-.05-.73,0-1.06,.06-1.73,.18-2.01,.3-.82,.91-1.35,1.83-1.6Z"/>
      <path class="cls-1" d="M161.36,.32h2.15c1.4,.03,2.35,.12,2.83,.27,1.37,.4,2.42,.96,3.15,1.69,.46,.46,.75,.87,.87,1.23,.15,.4,.23,.78,.23,1.14,0,.73-.21,1.38-.64,1.96-.43,.58-.99,.96-1.69,1.14-.09,.03-.24,.04-.45,.04-.43,0-1.07-.18-1.92-.55-.76-.33-1.51-.5-2.24-.5-.58,0-1.03,.12-1.37,.37-.18,.15-.34,.35-.48,.59-.14,.25-.19,.44-.16,.59,.09,.34,.38,.62,.87,.87,.49,.25,1.38,.56,2.69,.96,2.01,.58,3.41,1.16,4.2,1.73,1.01,.79,1.78,1.86,2.33,3.2,.37,1.01,.55,2.04,.55,3.11,0,2.53-.84,4.6-2.51,6.21-1.49,1.43-3.52,2.15-6.07,2.15-2.34,0-4.32-.64-5.94-1.92-1.22-1.01-1.9-2.16-2.06-3.47v-.27c0-.52,.15-1.02,.46-1.51,.31-.49,.7-.84,1.19-1.05,.37-.18,.87-.27,1.51-.27,.55,0,.96,.05,1.23,.16,.27,.11,.69,.36,1.23,.75,.88,.64,1.65,.96,2.28,.96,.31,0,.55-.03,.73-.09,.76-.21,1.22-.62,1.37-1.23,.03-.09,.04-.23,.04-.41,0-1.19-1.42-2.21-4.25-3.06-1.61-.49-2.75-.92-3.4-1.3-.66-.38-1.23-.97-1.71-1.76-.64-1.01-.98-2.19-1.01-3.56v-.46c0-1.31,.24-2.45,.73-3.43,.58-1.22,1.26-2.15,2.03-2.79s1.85-1.14,3.22-1.51Z"/>
      <path class="cls-1" d="M190.54,.04c.09-.03,.35-.04,.78-.04,1.4,0,2.48,.09,3.24,.27,2.92,.58,5.3,1.46,7.12,2.65,2.31,1.49,3.74,3.85,4.29,7.08,.12,.7,.18,1.86,.18,3.47,0,1.22-.03,2.01-.09,2.37-.39,2.65-1.37,4.87-2.92,6.67-1.31,1.52-2.78,2.58-4.41,3.17s-3.96,.91-7.01,.94h-.87c-1.31,0-2.24-.07-2.79-.21-.55-.14-1.03-.42-1.46-.85-.55-.55-.82-1.25-.82-2.1,0-.91,.29-1.75,.87-2.51,.24-.39,.41-1.13,.5-2.21,.09-1.08,.2-3.43,.32-7.06,0-.27,.02-.77,.07-1.49,.04-.71,.07-1.37,.09-1.96,.02-.6,.02-1.04,.02-1.35,0-.27-.02-.41-.05-.41-.09,0-.31-.2-.66-.59-.35-.39-.59-.7-.71-.91-.15-.27-.23-.67-.23-1.19,0-.82,.27-1.49,.82-2.01,.64-.64,1.57-1.13,2.79-1.46,.24-.06,.55-.15,.91-.27Zm5.02,7.67c-.61-.21-1.11-.32-1.51-.32-.15,0-.23,.03-.23,.09,0,.55-.17,3.36-.5,8.45l-.14,3.29c.06,.06,.63-.14,1.71-.59,1.08-.46,1.73-.76,1.94-.91,1.8-1.16,2.7-2.71,2.7-4.66,0-.27-.02-.49-.05-.64-.21-1.34-.6-2.35-1.16-3.04-.56-.69-1.49-1.24-2.76-1.67Z"/>
      <path class="cls-1" d="M211,1.1c.27-.18,.61-.27,1.01-.27,.85,0,1.69,.27,2.51,.82,.18,.09,.35,.14,.5,.14,.36,0,.73-.02,1.09-.05,.88-.09,2.47-.14,4.75-.14,1.31,0,2.24,.03,2.79,.09,1.03,.09,1.55,.9,1.55,2.42,0,1.28-.41,2.13-1.23,2.56-.43,.25-1.95,.41-4.57,.5-1.46,.06-2.51,.12-3.15,.18l-.78,.05,.05,.55c.03,.12,.05,.36,.07,.73,.01,.37,.02,.62,.02,.78l.09,.96,1-.09c.97-.06,1.92-.09,2.83-.09,1.73,0,2.72,.04,2.97,.14,.37,.12,.66,.44,.89,.96,.23,.52,.34,1.07,.34,1.64,0,.52-.11,.97-.32,1.37-.34,.58-1.48,1.05-3.43,1.42-2.16,.39-3.56,.59-4.2,.59-.09,0-.14,.67-.14,2.01v2.01l.64-.09c.61-.09,1.95-.23,4.02-.41,2.07-.18,3.41-.27,4.02-.27,.97,0,1.61,.08,1.92,.23,.55,.31,.88,.93,1,1.87,.06,.43,.09,.73,.09,.91,0,1.37-.47,2.27-1.42,2.69-.7,.33-2.91,.67-6.62,1-2.53,.25-4.46,.37-5.8,.37-1.07,0-1.86-.08-2.37-.23-.7-.21-1.28-.66-1.73-1.32-.25-.33-.41-1.16-.48-2.49s-.13-4.39-.16-9.2l-.05-6.58-.27-.41c-.15-.21-.23-.58-.23-1.1s.08-.93,.23-1.23c.64-1.37,1.49-2.37,2.56-3.01Z"/>
      <path class="cls-1" d="M13.08,33.71c.46-.43,1.05-.64,1.78-.64,.36,0,.82,.04,1.37,.14,1.34,.18,2.24,.64,2.69,1.37,.12,.18,.18,1.22,.18,3.1,0,8.37-.47,14.01-1.42,16.9-.67,2.1-1.96,3.49-3.88,4.16-.52,.18-1.42,.29-2.7,.32h-.87c-1.83,0-3.18-.15-4.07-.46-2.07-.7-3.53-1.8-4.38-3.29-.97-1.61-1.54-3.41-1.69-5.39,0-.09,0-.2-.02-.32-.02-.12-.02-.21-.02-.27,0-.55,.12-1.07,.37-1.55,.21-.36,.63-.69,1.26-.98,.62-.29,1.23-.43,1.8-.43,.27,0,.46,.02,.55,.04,.58,.15,1.05,.47,1.42,.96,.37,.49,.7,1.26,1,2.33,.24,.79,.62,1.42,1.12,1.9,.5,.47,1.06,.71,1.67,.71h.32c.91-.15,1.52-.65,1.83-1.51,.43-1.13,.7-4.41,.82-9.87,.06-2.77,.14-4.6,.25-5.48s.31-1.46,.62-1.73Z"/>
      <path class="cls-1" d="M23.95,33.98c.27-.18,.61-.27,1.01-.27,.85,0,1.69,.27,2.51,.82,.18,.09,.35,.14,.5,.14,.36,0,.73-.02,1.09-.05,.88-.09,2.47-.14,4.75-.14,1.31,0,2.24,.03,2.79,.09,1.03,.09,1.55,.9,1.55,2.42,0,1.28-.41,2.13-1.23,2.56-.43,.25-1.95,.41-4.57,.5-1.46,.06-2.51,.12-3.15,.18l-.78,.05,.05,.55c.03,.12,.05,.36,.07,.73,.01,.37,.02,.62,.02,.78l.09,.96,1-.09c.97-.06,1.92-.09,2.83-.09,1.73,0,2.72,.04,2.97,.14,.37,.12,.66,.44,.89,.96,.23,.52,.34,1.07,.34,1.64,0,.52-.11,.97-.32,1.37-.34,.58-1.48,1.05-3.43,1.42-2.16,.39-3.56,.59-4.2,.59-.09,0-.14,.67-.14,2.01v2.01l.64-.09c.61-.09,1.95-.23,4.02-.41,2.07-.18,3.41-.27,4.02-.27,.97,0,1.61,.08,1.92,.23,.55,.31,.88,.93,1,1.87,.06,.43,.09,.73,.09,.91,0,1.37-.47,2.27-1.42,2.69-.7,.33-2.91,.67-6.62,1-2.53,.25-4.46,.37-5.8,.37-1.07,0-1.86-.08-2.37-.23-.7-.21-1.28-.66-1.73-1.32-.25-.33-.41-1.16-.48-2.49s-.13-4.39-.16-9.2l-.05-6.58-.27-.41c-.15-.21-.23-.58-.23-1.1s.08-.93,.23-1.23c.64-1.37,1.49-2.37,2.56-3.01Z"/>
      <path class="cls-1" d="M43.32,34.02c.82-.7,1.64-1.05,2.47-1.05,.52,0,.96,.14,1.32,.41,.39,.27,2.19,3,5.39,8.17l.18,.27,.55-1.14c1.1-2.25,1.81-3.91,2.15-4.98,.21-.82,.55-1.36,1-1.6,.49-.27,1.11-.41,1.87-.41s1.42,.13,2.06,.39c.64,.26,1.06,.6,1.28,1.03,.15,.3,.23,.73,.23,1.28,0,.64-.09,1.22-.27,1.73-.4,1.16-1.86,3.79-4.38,7.9l-1.14,1.83-.05,.82c-.06,.64-.12,1.66-.18,3.06-.18,3.81-.44,5.97-.78,6.48-.55,.79-1.54,1.19-2.97,1.19s-2.48-.38-3.15-1.14c-.27-.27-.44-.53-.5-.78-.03-.12-.04-1.19-.04-3.2,0-2.47,.02-4.22,.04-5.25l.09-2.01-2.24-3.65c-2.28-3.74-3.5-5.8-3.65-6.16-.15-.33-.23-.72-.23-1.14,0-.88,.32-1.57,.96-2.06Z"/>
      <path class="cls-1" d="M68.16,32.75c.3-.06,.55-.09,.73-.09,.73,0,1.42,.19,2.08,.57,.65,.38,1.01,.81,1.07,1.3,.03,.15,.08,1.3,.14,3.43l.05,2.97,1.14-1.28c.18-.21,.38-.45,.59-.71,.21-.26,.4-.49,.57-.69,.17-.2,.28-.33,.34-.39,.46-.61,1.44-1.75,2.97-3.43,.88-.94,1.49-1.48,1.83-1.6,.27-.12,.64-.18,1.1-.18,1.06,0,1.95,.35,2.65,1.05,.46,.49,.69,1.08,.69,1.78,0,.46-.17,1.04-.5,1.74-.49,1-1.24,2.09-2.26,3.26-1.02,1.17-1.9,2.12-2.65,2.85-.75,.73-1.12,1.17-1.12,1.32,0,.06,.5,.68,1.51,1.87,2.59,3.01,4.35,5.24,5.3,6.67,.73,1.07,1.09,1.87,1.09,2.42,0,.24-.08,.59-.23,1.05-.25,.79-.58,1.35-1.01,1.67-.43,.32-1.03,.51-1.83,.57h-.37c-.82,0-1.54-.29-2.15-.87-.31-.27-1.59-1.7-3.84-4.29-2.19-2.5-3.29-3.76-3.29-3.79-.06-.06-.09,.49-.09,1.64,0,2.59-.12,4.31-.37,5.16-.31,1.07-1.2,1.63-2.69,1.69h-.32c-1.28,0-2.3-.56-3.06-1.69-.52-.76-.81-2.24-.87-4.43l-.05-1.96-.45-.37c-.67-.55-1.01-1.2-1.01-1.96,0-.82,.33-1.58,1.01-2.28l.45-.5,.09-3.97c.03-3.8,.15-6.1,.37-6.89,.21-.79,1.01-1.34,2.37-1.64Z"/>
      <path class="cls-1" d="M89.17,54.71c.21-.09,.65-.12,1.32-.09,.94,.03,1.7,.25,2.28,.64,.58,.4,.87,.99,.87,1.78,0,.4-.09,.85-.27,1.37-.58,1.46-1.22,2.54-1.92,3.24-.34,.33-.67,.53-1.01,.6-.3,.06-.52,.09-.64,.09-.98,0-1.46-.5-1.46-1.51,0-.15,.03-.41,.09-.78l.14-.64-.46-.64c-.46-.55-.68-1.08-.68-1.6,0-1.09,.58-1.92,1.73-2.47Z"/>
      <path class="cls-1" d="M111.73,32.93c.09-.03,.35-.04,.78-.04,1.4,0,2.48,.09,3.24,.27,2.92,.58,5.3,1.46,7.12,2.65,2.31,1.49,3.74,3.85,4.29,7.08,.12,.7,.18,1.86,.18,3.47,0,1.22-.03,2.01-.09,2.37-.39,2.65-1.37,4.87-2.92,6.67-1.31,1.52-2.78,2.58-4.41,3.17s-3.96,.91-7.01,.94h-.87c-1.31,0-2.24-.07-2.79-.21-.55-.14-1.03-.42-1.46-.85-.55-.55-.82-1.25-.82-2.1,0-.91,.29-1.75,.87-2.51,.24-.39,.41-1.13,.5-2.21,.09-1.08,.2-3.43,.32-7.06,0-.27,.02-.77,.07-1.49,.04-.71,.07-1.37,.09-1.96,.02-.6,.02-1.04,.02-1.35,0-.27-.02-.41-.05-.41-.09,0-.31-.2-.66-.59-.35-.39-.59-.7-.71-.91-.15-.27-.23-.67-.23-1.19,0-.82,.27-1.49,.82-2.01,.64-.64,1.57-1.13,2.79-1.46,.24-.06,.55-.15,.91-.27Zm5.02,7.67c-.61-.21-1.11-.32-1.51-.32-.15,0-.23,.03-.23,.09,0,.55-.17,3.36-.5,8.45l-.14,3.29c.06,.06,.63-.14,1.71-.59,1.08-.46,1.73-.76,1.94-.91,1.8-1.16,2.7-2.71,2.7-4.66,0-.27-.02-.49-.05-.64-.21-1.34-.6-2.35-1.16-3.04-.56-.69-1.49-1.24-2.76-1.67Z"/>
      <path class="cls-1" d="M132.19,33.98c.27-.18,.61-.27,1.01-.27,.85,0,1.69,.27,2.51,.82,.18,.09,.35,.14,.5,.14,.36,0,.73-.02,1.09-.05,.88-.09,2.47-.14,4.75-.14,1.31,0,2.24,.03,2.79,.09,1.03,.09,1.55,.9,1.55,2.42,0,1.28-.41,2.13-1.23,2.56-.43,.25-1.95,.41-4.57,.5-1.46,.06-2.51,.12-3.15,.18l-.78,.05,.05,.55c.03,.12,.05,.36,.07,.73,.01,.37,.02,.62,.02,.78l.09,.96,1-.09c.97-.06,1.92-.09,2.83-.09,1.73,0,2.72,.04,2.97,.14,.37,.12,.66,.44,.89,.96,.23,.52,.34,1.07,.34,1.64,0,.52-.11,.97-.32,1.37-.34,.58-1.48,1.05-3.43,1.42-2.16,.39-3.56,.59-4.2,.59-.09,0-.14,.67-.14,2.01v2.01l.64-.09c.61-.09,1.95-.23,4.02-.41,2.07-.18,3.41-.27,4.02-.27,.97,0,1.61,.08,1.92,.23,.55,.31,.88,.93,1,1.87,.06,.43,.09,.73,.09,.91,0,1.37-.47,2.27-1.42,2.69-.7,.33-2.91,.67-6.62,1-2.53,.25-4.46,.37-5.8,.37-1.07,0-1.86-.08-2.37-.23-.7-.21-1.28-.66-1.73-1.32-.25-.33-.41-1.16-.48-2.49s-.13-4.39-.16-9.2l-.05-6.58-.27-.41c-.15-.21-.23-.58-.23-1.1s.08-.93,.23-1.23c.64-1.37,1.49-2.37,2.56-3.01Z"/>
      <path class="cls-1" d="M167.08,33.61h.5c.3,0,.68,0,1.12-.02,.44-.01,.86-.02,1.26-.02,1.58,.03,2.8,.14,3.65,.32,2.34,.49,4.17,1.26,5.48,2.33,.88,.73,1.5,1.37,1.85,1.92s.6,1.37,.75,2.47c.03,.15,.04,.38,.04,.68,0,1.58-.38,2.94-1.14,4.07-.49,.76-1.19,1.51-2.1,2.24-1.28,1.03-3.38,1.95-6.3,2.74l-.55,.18v.5c0,.27,.03,.78,.09,1.51,.15,1.89,.23,3.09,.23,3.61,0,.46-.02,.75-.05,.87-.15,.79-.44,1.37-.87,1.74s-1.11,.61-2.06,.73c-.18,.03-.45,.05-.82,.05-1.19,0-2.1-.37-2.74-1.1-.24-.27-.44-.81-.59-1.62-.15-.81-.37-2.5-.64-5.09-.61-5.85-.91-9.85-.91-12.01,0-.25-.14-.46-.41-.64-.55-.39-.84-.97-.87-1.73v-.32c0-1.16,.45-1.98,1.35-2.47,.9-.49,2.14-.79,3.72-.91Zm5.89,6.21c-.55-.15-1.2-.23-1.96-.23-.25,0-.37,.02-.37,.04-.03,.03-.05,.21-.05,.55,0,.64,.03,1.22,.09,1.73,.06,.85,.11,1.34,.16,1.46,.04,.12,.16,.18,.34,.18h.14c.3,0,.68-.08,1.14-.25s.78-.33,.96-.48c.39-.4,.59-.85,.59-1.37,0-.79-.35-1.34-1.05-1.64Z"/>
      <path class="cls-1" d="M192.97,33.02c.39-.09,.84-.14,1.32-.14,1.4,0,2.3,.29,2.7,.87,.21,.34,1,2.42,2.37,6.26,.3,.91,1.21,3.43,2.72,7.53s2.44,6.73,2.81,7.86c.09,.36,.14,.68,.14,.96,0,1.22-.73,1.98-2.19,2.28-.37,.06-.62,.09-.78,.09-.67,0-1.26-.17-1.78-.5-.3-.18-.56-.43-.78-.73-.21-.31-.58-.97-1.09-2.01-.52-1.01-.87-1.51-1.05-1.51-3.47,.27-5.22,.43-5.25,.46l-.04,.09c-.03,.09-.07,.19-.11,.3-.05,.11-.08,.21-.11,.3-.43,1.19-.93,2.19-1.51,3.01-.4,.58-.81,.98-1.23,1.21-.43,.23-1.02,.34-1.78,.34-1.52,0-2.47-.62-2.83-1.87-.09-.27-.14-.49-.14-.64,0-.18,.1-.81,.32-1.87l.27-1.32c-.76-.76-1.14-1.73-1.14-2.92,0-.49,.09-.94,.27-1.37,.27-.52,.78-.9,1.51-1.14l.73-.27,.41-1.1c1.64-5.39,2.77-8.95,3.38-10.69,.09-.24,.23-.67,.41-1.28,.18-.61,.32-.98,.41-1.12,.09-.14,.3-.32,.64-.55,.33-.23,.81-.4,1.42-.53Zm1.19,11.74c-.18-.31-.31-.46-.37-.46h-.04c-.31,0-.62,.72-.96,2.15-.06,.39-.11,.62-.14,.68-.03,.12,.03,.18,.18,.18l.96-.09c.82-.06,1.23-.12,1.23-.18,0-.37-.29-1.13-.87-2.28Z"/>
      <path class="cls-1" d="M213.11,33.2h2.15c1.4,.03,2.35,.12,2.83,.27,1.37,.4,2.42,.96,3.15,1.69,.46,.46,.75,.87,.87,1.23,.15,.4,.23,.78,.23,1.14,0,.73-.21,1.38-.64,1.96-.43,.58-.99,.96-1.69,1.14-.09,.03-.24,.04-.45,.04-.43,0-1.07-.18-1.92-.55-.76-.33-1.51-.5-2.24-.5-.58,0-1.03,.12-1.37,.37-.18,.15-.34,.35-.48,.59-.14,.25-.19,.44-.16,.59,.09,.34,.38,.62,.87,.87,.49,.25,1.38,.56,2.69,.96,2.01,.58,3.41,1.16,4.2,1.73,1.01,.79,1.78,1.86,2.33,3.2,.37,1.01,.55,2.04,.55,3.11,0,2.53-.84,4.6-2.51,6.21-1.49,1.43-3.52,2.15-6.07,2.15-2.34,0-4.32-.64-5.94-1.92-1.22-1.01-1.9-2.16-2.06-3.47v-.27c0-.52,.15-1.02,.46-1.51,.31-.49,.7-.84,1.19-1.05,.37-.18,.87-.27,1.51-.27,.55,0,.96,.05,1.23,.16,.27,.11,.69,.36,1.23,.75,.88,.64,1.65,.96,2.28,.96,.31,0,.55-.03,.73-.09,.76-.21,1.22-.62,1.37-1.23,.03-.09,.04-.23,.04-.41,0-1.19-1.42-2.21-4.25-3.06-1.61-.49-2.75-.92-3.4-1.3-.66-.38-1.23-.97-1.71-1.76-.64-1.01-.98-2.19-1.01-3.56v-.46c0-1.31,.24-2.45,.73-3.43,.58-1.22,1.26-2.15,2.03-2.79s1.85-1.14,3.22-1.51Z"/>
      <path class="cls-1" d="M234.71,34.16c.58-.18,1.28-.27,2.1-.27,1.34,0,2.65,.21,3.93,.64,4.84,1.61,7.38,5.04,7.63,10.28v.91c0,1.46-.21,3-.64,4.61-1.07,3.81-2.91,6.44-5.53,7.9-1.37,.76-2.79,1.19-4.25,1.28-.06,0-.18,0-.36,.02-.18,.02-.32,.02-.41,.02-1.73,0-3.03-.15-3.88-.45-.15-.06-.35-.12-.59-.18-.15-.06-.24-.09-.27-.09-.15,.09-.78-.25-1.87-1.01-2.25-1.55-3.69-3.68-4.29-6.39-.12-.58-.18-1.73-.18-3.47,0-2.4,.18-4.19,.55-5.34,1.46-4.54,4.16-7.35,8.08-8.45Zm3.79,7.03c-.37-.09-.67-.14-.91-.14-.27,0-.6,.04-.96,.14-.94,.27-1.75,.8-2.42,1.58s-1.14,1.7-1.42,2.76c-.09,.37-.14,.97-.14,1.83s.04,1.46,.14,1.92c.46,1.98,1.63,3.01,3.52,3.11h.37c2.22,0,3.78-1.05,4.66-3.15,.39-.97,.59-1.99,.59-3.06s-.2-1.93-.59-2.7c-.55-1.16-1.49-1.92-2.83-2.28Z"/>
      <path class="cls-1" d="M266.95,33.61h.5c.3,0,.68,0,1.12-.02,.44-.01,.86-.02,1.26-.02,1.58,.03,2.8,.14,3.65,.32,2.34,.49,4.17,1.26,5.48,2.33,.88,.73,1.5,1.37,1.85,1.92s.6,1.37,.75,2.47c.03,.15,.04,.38,.04,.68,0,1.58-.38,2.94-1.14,4.07-.49,.76-1.19,1.51-2.1,2.24-1.28,1.03-3.38,1.95-6.3,2.74l-.55,.18v.5c0,.27,.03,.78,.09,1.51,.15,1.89,.23,3.09,.23,3.61,0,.46-.02,.75-.05,.87-.15,.79-.44,1.37-.87,1.74s-1.11,.61-2.06,.73c-.18,.03-.45,.05-.82,.05-1.19,0-2.1-.37-2.74-1.1-.24-.27-.44-.81-.59-1.62-.15-.81-.37-2.5-.64-5.09-.61-5.85-.91-9.85-.91-12.01,0-.25-.14-.46-.41-.64-.55-.39-.84-.97-.87-1.73v-.32c0-1.16,.45-1.98,1.35-2.47,.9-.49,2.14-.79,3.72-.91Zm5.89,6.21c-.55-.15-1.2-.23-1.96-.23-.25,0-.37,.02-.37,.04-.03,.03-.05,.21-.05,.55,0,.64,.03,1.22,.09,1.73,.06,.85,.11,1.34,.16,1.46,.04,.12,.16,.18,.34,.18h.14c.3,0,.68-.08,1.14-.25s.78-.33,.96-.48c.39-.4,.59-.85,.59-1.37,0-.79-.35-1.34-1.05-1.64Z"/>
      <path class="cls-1" d="M292.26,34.16c.58-.18,1.28-.27,2.1-.27,1.34,0,2.65,.21,3.93,.64,4.84,1.61,7.38,5.04,7.63,10.28v.91c0,1.46-.21,3-.64,4.61-1.07,3.81-2.91,6.44-5.53,7.9-1.37,.76-2.79,1.19-4.25,1.28-.06,0-.18,0-.36,.02-.18,.02-.32,.02-.41,.02-1.73,0-3.03-.15-3.88-.45-.15-.06-.35-.12-.59-.18-.15-.06-.24-.09-.27-.09-.15,.09-.78-.25-1.87-1.01-2.25-1.55-3.69-3.68-4.29-6.39-.12-.58-.18-1.73-.18-3.47,0-2.4,.18-4.19,.55-5.34,1.46-4.54,4.16-7.35,8.08-8.45Zm3.79,7.03c-.37-.09-.67-.14-.91-.14-.27,0-.6,.04-.96,.14-.94,.27-1.75,.8-2.42,1.58s-1.14,1.7-1.42,2.76c-.09,.37-.14,.97-.14,1.83s.04,1.46,.14,1.92c.46,1.98,1.63,3.01,3.52,3.11h.37c2.22,0,3.78-1.05,4.66-3.15,.39-.97,.59-1.99,.59-3.06s-.2-1.93-.59-2.7c-.55-1.16-1.49-1.92-2.83-2.28Z"/>
      <path class="cls-1" d="M312.21,34.12c.06,0,.14-.02,.23-.05l.18-.04h.18c1.98,0,3.65,.09,5.02,.27,2.71,.31,4.8,1,6.26,2.1,1.52,1.16,2.28,2.6,2.28,4.34,0,1.58-.64,3.09-1.92,4.52-.52,.61-.78,.97-.78,1.1,0,.15,.21,.58,.64,1.28,.46,.76,1.23,1.95,2.33,3.56,1.8,2.68,2.77,4.31,2.92,4.89,.06,.24,.09,.44,.09,.59,0,1.01-.52,1.78-1.55,2.33-.46,.24-1.05,.36-1.78,.36s-1.26-.08-1.6-.23c-.67-.31-1.46-1.03-2.37-2.19-.76-.97-2.02-2.77-3.79-5.39l-1.19-1.78-.36,.09-.46,.09c.03,.7,.06,1.49,.09,2.37,.03,.58,.04,1.34,.04,2.28,0,1.65-.12,2.73-.37,3.24-.58,1.28-1.67,1.92-3.29,1.92-1.19,0-2.04-.26-2.56-.78-.24-.25-.42-.53-.53-.85-.11-.32-.22-1.03-.34-2.13-.25-1.89-.37-6.03-.37-12.42v-3.75l-.37-.41c-.58-.73-.87-1.48-.87-2.24,0-.15,.03-.38,.09-.69,.12-.58,.57-1.09,1.35-1.53,.78-.44,1.7-.74,2.76-.89Zm5.66,6.07c-.46-.18-.84-.27-1.14-.27-.18,0-.31,.03-.37,.09-.09,.09-.14,.32-.14,.68,0,.4,.02,.78,.05,1.14l.14,1.69h.09c.43,0,.93-.12,1.51-.37,.7-.33,1.05-.84,1.05-1.51s-.39-1.19-1.19-1.46Z"/>
      <path class="cls-6" d="M2.85,66.86c.27-.18,.61-.27,1.01-.27,.85,0,1.69,.27,2.51,.82,.18,.09,.35,.14,.5,.14,.36,0,.73-.02,1.09-.05,.88-.09,2.47-.14,4.75-.14,1.31,0,2.24,.03,2.79,.09,1.03,.09,1.55,.9,1.55,2.42,0,1.28-.41,2.13-1.23,2.56-.43,.25-1.95,.41-4.57,.5-1.46,.06-2.51,.12-3.15,.18l-.78,.05,.05,.55c.03,.12,.05,.36,.07,.73,.01,.37,.02,.62,.02,.78l.09,.96,1-.09c.97-.06,1.92-.09,2.83-.09,1.73,0,2.72,.04,2.97,.14,.37,.12,.66,.44,.89,.96,.23,.52,.34,1.07,.34,1.64,0,.52-.11,.97-.32,1.37-.34,.58-1.48,1.05-3.43,1.42-2.16,.39-3.56,.59-4.2,.59-.09,0-.14,.67-.14,2.01v2.01l.64-.09c.61-.09,1.95-.23,4.02-.41,2.07-.18,3.41-.27,4.02-.27,.97,0,1.61,.08,1.92,.23,.55,.31,.88,.93,1,1.87,.06,.43,.09,.73,.09,.91,0,1.37-.47,2.27-1.42,2.69-.7,.33-2.91,.67-6.62,1-2.53,.25-4.46,.37-5.8,.37-1.07,0-1.86-.08-2.37-.23-.7-.21-1.28-.66-1.73-1.32-.25-.33-.41-1.16-.48-2.49s-.13-4.39-.16-9.2l-.05-6.58-.27-.41c-.15-.21-.23-.58-.23-1.1s.08-.93,.23-1.23c.64-1.37,1.49-2.37,2.56-3.01Z"/>
      <path class="cls-6" d="M24.64,65.81c.09-.03,.47-.04,1.14-.04,.58,0,1,.06,1.28,.18,.24,.12,.53,.34,.87,.66s.56,.6,.68,.85c.4,.82,.7,4.9,.91,12.24,.06,2.5,.11,3.93,.14,4.29l.09,1.09h3.79c2.47,0,4,.06,4.61,.18,.97,.24,1.67,.56,2.1,.96,.43,.4,.67,.97,.73,1.73v.41c0,1.22-.45,2.07-1.37,2.56-.79,.37-2.22,.61-4.29,.73-.61,.03-1.89,.05-3.84,.05-4.11,0-6.55-.06-7.31-.18-1.01-.12-1.73-.35-2.19-.68-.46-.34-.7-.91-.73-1.74v-.41c0-1.19,.41-2.19,1.23-3.01l.04-5.11c.09-8.34,.21-12.73,.37-13.15,.21-.76,.79-1.29,1.74-1.6Z"/>
      <path class="cls-6" d="M56.01,66.54c.79-.39,1.55-.59,2.28-.59,.46,0,.88,.09,1.28,.27,.33,.15,.66,.47,.98,.96s1.18,1.95,2.58,4.38c1.1,1.89,1.8,3.08,2.1,3.59,.31,.5,.47,.74,.5,.71l.14-.18c.09-.12,.22-.31,.39-.57s.31-.48,.43-.66c1.86-2.8,3.36-4.87,4.52-6.21,.85-1.01,1.87-1.51,3.06-1.51s2.02,.53,2.6,1.6c.21,.43,.32,.93,.32,1.51,0,.91-.24,1.66-.73,2.24l-.32,.41v16.6c0,.29-.02,.53-.07,.73-.04,.2-.06,.35-.04,.46s-.02,.21-.09,.32-.11,.17-.11,.18-.05,.06-.16,.14-.18,.13-.21,.16c-.55,.46-1.26,.7-2.15,.73h-.41c-1.16,0-1.98-.41-2.47-1.23-.15-.21-.26-.91-.32-2.1-.09-1.83-.14-3.06-.14-3.7,0-1.83-.02-3.01-.04-3.56l-.09-1.55-.96,1.14c-1.49,1.73-2.42,2.71-2.79,2.92-.18,.09-.44,.14-.78,.14-.43,0-.74-.06-.96-.18-.27-.12-.7-.55-1.28-1.28-.58-.73-1.09-1.39-1.53-1.99-.44-.59-.66-.85-.66-.75v.5c-.03,.34-.06,.8-.09,1.39-.03,.59-.05,1.16-.05,1.71-.12,4.17-.39,6.53-.82,7.08-.46,.58-1.22,.87-2.28,.87-1.43,0-2.39-.38-2.88-1.14-.18-.27-.3-.84-.36-1.69-.03-.27-.05-1.49-.05-3.65,0-7.06,.06-11.97,.18-14.7,.06-1.34,.18-2.18,.37-2.51,.21-.39,.58-.71,1.09-.96Z"/>
      <path class="cls-6" d="M81.41,65.72c.43-.12,.87-.18,1.32-.18,.82,0,1.49,.11,2.01,.32,.49,.21,.83,.55,1.03,1.01,.2,.45,.33,1.17,.39,2.15,.03,.27,.07,2.25,.14,5.94,.06,3.69,.12,5.7,.18,6.03,.09,.82,.39,1.52,.89,2.1,.5,.58,1.15,.87,1.94,.87h.32c.55-.03,.97-.21,1.26-.55,.29-.33,.51-.88,.66-1.64,.18-.76,.39-2.74,.64-5.94,.39-5.15,.82-7.98,1.28-8.5,.46-.58,1.26-.87,2.42-.87,.39,0,.7,.02,.91,.05,.79,.09,1.37,.27,1.74,.55,.36,.27,.61,.7,.73,1.28,.09,.46,.14,2.47,.14,6.03s-.05,6.12-.14,7.67c-.21,4.08-.46,6.75-.73,8.01-.27,1.26-.76,1.99-1.46,2.17-.12,.03-.41,.04-.87,.04-1,0-1.69-.06-2.05-.18-.7-.24-1.2-.81-1.51-1.69-.15,.09-.32,.21-.5,.37-.58,.52-1.16,.87-1.76,1.05s-1.47,.27-2.63,.27c-1.03,0-1.83-.09-2.37-.27-1.31-.43-2.46-1.2-3.45-2.31-.99-1.11-1.67-2.37-2.03-3.77-.46-1.83-.68-4.55-.68-8.17,0-2.19,.09-4.54,.27-7.03,.15-1.89,.33-3.11,.53-3.65,.2-.55,.66-.93,1.39-1.14Z"/>
      <path class="cls-6" d="M115.93,79.24c0-.55-.04-2.08-.11-4.59-.08-2.51-.11-4.06-.11-4.63v-1.83l.32-.41c.39-.55,.96-.91,1.69-1.09,.37-.09,.74-.14,1.14-.14,1.19,0,2.05,.25,2.6,.73,.52,.49,.87,4.67,1.05,12.56,.03,1.28,.05,2.98,.05,5.12,0,3.38-.08,5.27-.23,5.66-.36,.79-1.23,1.19-2.6,1.19h-.27c-.67,0-1.16-.08-1.46-.23-1.04-.55-3.14-3.09-6.3-7.63-1.16-1.7-1.81-2.65-1.96-2.83l-.41-.5-.05,.27c0,.55,.06,1.77,.18,3.65,.12,1.89,.18,3.11,.18,3.65,.03,.43,.04,.91,.04,1.46,0,.46-.04,.78-.11,.96s-.28,.47-.62,.87c-.55,.64-1.3,.97-2.24,1.01h-.41c-1.77,0-2.88-.62-3.33-1.87-.15-.37-.26-3.56-.32-9.59l-.14-7.63-.37-.5c-.52-.7-.78-1.61-.78-2.74,0-1,.21-1.73,.64-2.19,.61-.67,1.54-1.01,2.79-1.01,.15,0,.41,.03,.78,.09,.85,.21,1.52,.6,2.01,1.14,.4,.4,2.54,3.44,6.44,9.13l1.92,2.74v-.82Z"/>
      <path class="cls-6" d="M129.26,65.81c.09-.03,.35-.04,.78-.04,1.4,0,2.48,.09,3.24,.27,2.92,.58,5.3,1.46,7.12,2.65,2.31,1.49,3.74,3.85,4.29,7.08,.12,.7,.18,1.86,.18,3.47,0,1.22-.03,2.01-.09,2.37-.39,2.65-1.37,4.87-2.92,6.67-1.31,1.52-2.78,2.58-4.41,3.17s-3.96,.91-7.01,.94h-.87c-1.31,0-2.24-.07-2.79-.21-.55-.14-1.03-.42-1.46-.85-.55-.55-.82-1.25-.82-2.1,0-.91,.29-1.75,.87-2.51,.24-.39,.41-1.13,.5-2.21,.09-1.08,.2-3.43,.32-7.06,0-.27,.02-.77,.07-1.49,.04-.71,.07-1.37,.09-1.96,.02-.6,.02-1.04,.02-1.35,0-.27-.02-.41-.05-.41-.09,0-.31-.2-.66-.59-.35-.39-.59-.7-.71-.91-.15-.27-.23-.67-.23-1.19,0-.82,.27-1.49,.82-2.01,.64-.64,1.57-1.13,2.79-1.46,.24-.06,.55-.15,.91-.27Zm5.02,7.67c-.61-.21-1.11-.32-1.51-.32-.15,0-.23,.03-.23,.09,0,.55-.17,3.36-.5,8.45l-.14,3.29c.06,.06,.63-.14,1.71-.59,1.08-.46,1.73-.76,1.94-.91,1.8-1.16,2.7-2.71,2.7-4.66,0-.27-.02-.49-.05-.64-.21-1.34-.6-2.35-1.16-3.04-.56-.69-1.49-1.24-2.76-1.67Z"/>
      <path class="cls-6" d="M155.52,67.04c.58-.18,1.28-.27,2.1-.27,1.34,0,2.65,.21,3.93,.64,4.84,1.61,7.38,5.04,7.63,10.28v.91c0,1.46-.21,3-.64,4.61-1.07,3.81-2.91,6.44-5.53,7.9-1.37,.76-2.79,1.19-4.25,1.28-.06,0-.18,0-.36,.02-.18,.02-.32,.02-.41,.02-1.73,0-3.03-.15-3.88-.45-.15-.06-.35-.12-.59-.18-.15-.06-.24-.09-.27-.09-.15,.09-.78-.25-1.87-1.01-2.25-1.55-3.69-3.68-4.29-6.39-.12-.58-.18-1.73-.18-3.47,0-2.4,.18-4.19,.55-5.34,1.46-4.54,4.16-7.35,8.08-8.45Zm3.79,7.03c-.37-.09-.67-.14-.91-.14-.27,0-.6,.04-.96,.14-.94,.27-1.75,.8-2.42,1.58s-1.14,1.7-1.42,2.76c-.09,.37-.14,.97-.14,1.83s.04,1.46,.14,1.92c.46,1.98,1.63,3.01,3.52,3.11h.37c2.22,0,3.78-1.05,4.66-3.15,.39-.97,.59-1.99,.59-3.06s-.2-1.93-.59-2.7c-.55-1.16-1.49-1.92-2.83-2.28Z"/>
      <path class="cls-6" d="M171.24,89.37v-.27c0-.88,.26-1.61,.78-2.17,.52-.56,1.22-.84,2.1-.84s1.51,.21,1.96,.64c.67,.58,1.01,1.39,1.01,2.42,0,.76-.21,1.43-.64,2.01-.55,.73-1.34,1.09-2.37,1.09-.79,0-1.45-.27-1.99-.8s-.81-1.22-.84-2.08Z"/>
    </g>
    <g>
      <path class="cls-1" d="M8.01,127.76h-1.17l-4.72-7.16v7.16H.94v-9h1.17l4.72,7.15v-7.15h1.17v9Z"/>
      <path class="cls-1" d="M11.29,127.43c-.54-.3-.96-.73-1.26-1.28s-.46-1.2-.46-1.93,.16-1.36,.47-1.92,.74-.98,1.28-1.28,1.15-.45,1.82-.45,1.28,.15,1.82,.45c.54,.3,.97,.72,1.28,1.27,.31,.55,.47,1.19,.47,1.92s-.16,1.37-.48,1.93c-.32,.55-.76,.98-1.31,1.28-.55,.3-1.16,.45-1.83,.45s-1.26-.15-1.8-.45Zm2.99-.88c.37-.2,.67-.49,.9-.89s.34-.88,.34-1.45-.11-1.05-.34-1.44-.52-.69-.88-.88-.75-.29-1.17-.29-.82,.1-1.18,.29-.64,.49-.86,.88c-.21,.4-.32,.88-.32,1.44s.1,1.06,.32,1.46,.49,.69,.85,.88c.35,.19,.74,.29,1.16,.29s.82-.1,1.19-.3Z"/>
      <path class="cls-1" d="M24.34,126.68l2.19-5.99h1.25l-2.77,7.07h-1.37l-2.77-7.07h1.26l2.21,5.99Z"/>
      <path class="cls-1" d="M28.98,119.32c-.16-.16-.23-.34-.23-.57s.08-.41,.23-.57,.34-.23,.57-.23,.4,.08,.55,.23c.15,.16,.23,.34,.23,.57s-.08,.41-.23,.57c-.15,.15-.33,.23-.55,.23s-.41-.08-.57-.23Zm1.13,1.38v7.07h-1.17v-7.07h1.17Z"/>
      <path class="cls-1" d="M32.12,122.3c.29-.55,.69-.97,1.21-1.27,.51-.3,1.08-.45,1.71-.45s1.16,.13,1.61,.4c.46,.27,.79,.6,1.02,1.01v-1.29h1.19v7.07h-1.19v-1.32c-.23,.41-.58,.75-1.04,1.03-.46,.27-1,.41-1.61,.41s-1.2-.16-1.7-.46c-.51-.31-.91-.74-1.2-1.3-.29-.56-.44-1.2-.44-1.91s.15-1.36,.44-1.9Zm5.22,.52c-.21-.4-.5-.7-.87-.91-.37-.21-.77-.32-1.21-.32s-.84,.1-1.2,.31c-.36,.21-.65,.51-.86,.9s-.32,.86-.32,1.39,.11,1.01,.32,1.41c.21,.4,.5,.71,.86,.92,.36,.21,.76,.32,1.2,.32s.84-.11,1.21-.32c.37-.21,.66-.52,.87-.92,.21-.4,.32-.87,.32-1.4s-.11-1-.32-1.39Z"/>
      <path class="cls-1" d="M42.05,129.3c0,.63-.16,1.09-.48,1.38-.32,.29-.78,.44-1.39,.44h-.68v-.99h.49c.33,0,.56-.06,.69-.19,.13-.13,.2-.35,.2-.66v-8.58h1.17v8.6Zm-1.14-9.98c-.15-.16-.23-.34-.23-.57s.08-.41,.23-.57c.15-.15,.34-.23,.56-.23s.41,.08,.56,.23c.15,.16,.23,.34,.23,.57s-.08,.41-.23,.57c-.15,.15-.34,.23-.56,.23s-.41-.08-.56-.23Z"/>
      <path class="cls-1" d="M50.45,124.67h-5.65c.04,.7,.28,1.24,.72,1.63,.43,.39,.96,.59,1.58,.59,.51,0,.93-.12,1.27-.36,.34-.24,.58-.55,.72-.95h1.26c-.19,.68-.57,1.23-1.14,1.66s-1.27,.64-2.12,.64c-.67,0-1.27-.15-1.8-.45-.53-.3-.94-.73-1.25-1.28-.3-.55-.45-1.2-.45-1.93s.15-1.37,.44-1.92c.29-.55,.7-.97,1.23-1.27,.53-.3,1.14-.45,1.83-.45s1.26,.15,1.78,.44c.52,.29,.91,.7,1.19,1.21,.28,.51,.42,1.09,.42,1.74,0,.22-.01,.46-.04,.71Zm-1.47-2.11c-.2-.32-.47-.57-.81-.74s-.72-.25-1.13-.25c-.59,0-1.1,.19-1.52,.57-.42,.38-.66,.9-.72,1.57h4.46c0-.45-.1-.83-.3-1.15Z"/>
      <path class="cls-1" d="M53.08,127.6c-.43-.18-.77-.44-1.02-.77-.25-.33-.39-.71-.41-1.14h1.21c.03,.35,.2,.64,.5,.86s.69,.34,1.17,.34c.45,0,.8-.1,1.06-.3s.39-.45,.39-.75-.14-.54-.41-.69-.7-.3-1.28-.45c-.53-.14-.95-.28-1.28-.42s-.61-.35-.85-.63c-.24-.28-.35-.65-.35-1.1,0-.36,.11-.69,.32-.99,.21-.3,.52-.54,.92-.72,.4-.18,.85-.26,1.35-.26,.78,0,1.42,.2,1.9,.59s.74,.94,.77,1.62h-1.17c-.03-.37-.17-.67-.45-.89-.27-.22-.63-.34-1.09-.34-.42,0-.76,.09-1.01,.27-.25,.18-.37,.42-.37,.71,0,.23,.08,.42,.23,.57s.34,.27,.57,.36c.23,.09,.54,.19,.95,.3,.51,.14,.92,.27,1.24,.41,.32,.13,.59,.33,.82,.6,.23,.27,.35,.62,.36,1.04,0,.39-.11,.74-.32,1.04-.21,.31-.52,.55-.91,.73s-.84,.26-1.35,.26c-.54,0-1.03-.09-1.46-.28Z"/>
      <path class="cls-1" d="M63.26,127.6c-.43-.18-.77-.44-1.02-.77-.25-.33-.39-.71-.41-1.14h1.21c.03,.35,.2,.64,.5,.86s.69,.34,1.17,.34c.45,0,.8-.1,1.06-.3s.39-.45,.39-.75-.14-.54-.41-.69-.7-.3-1.28-.45c-.53-.14-.95-.28-1.28-.42s-.61-.35-.85-.63c-.24-.28-.35-.65-.35-1.1,0-.36,.11-.69,.32-.99,.21-.3,.52-.54,.92-.72,.4-.18,.85-.26,1.35-.26,.78,0,1.42,.2,1.9,.59s.74,.94,.77,1.62h-1.17c-.03-.37-.17-.67-.45-.89-.27-.22-.63-.34-1.09-.34-.42,0-.76,.09-1.01,.27-.25,.18-.37,.42-.37,.71,0,.23,.08,.42,.23,.57s.34,.27,.57,.36c.23,.09,.54,.19,.95,.3,.51,.14,.92,.27,1.24,.41,.32,.13,.59,.33,.82,.6,.23,.27,.35,.62,.36,1.04,0,.39-.11,.74-.32,1.04-.21,.31-.52,.55-.91,.73s-.84,.26-1.35,.26c-.54,0-1.03-.09-1.46-.28Z"/>
      <path class="cls-1" d="M70.23,127.43c-.54-.3-.96-.73-1.26-1.28-.31-.55-.46-1.2-.46-1.93s.16-1.36,.47-1.92c.31-.55,.74-.98,1.28-1.28,.54-.3,1.15-.45,1.82-.45s1.28,.15,1.82,.45c.54,.3,.97,.72,1.28,1.27,.31,.55,.47,1.19,.47,1.92s-.16,1.37-.48,1.93-.76,.98-1.31,1.28c-.55,.3-1.16,.45-1.83,.45s-1.26-.15-1.8-.45Zm2.99-.88c.37-.2,.67-.49,.9-.89,.23-.4,.34-.88,.34-1.45s-.11-1.05-.34-1.44-.52-.69-.88-.88-.75-.29-1.17-.29-.82,.1-1.18,.29c-.36,.19-.64,.49-.86,.88s-.32,.88-.32,1.44,.1,1.06,.32,1.46,.49,.69,.84,.88,.74,.29,1.16,.29,.82-.1,1.19-.3Z"/>
      <path class="cls-1" d="M78.38,118.22v9.55h-1.17v-9.55h1.17Z"/>
      <path class="cls-1" d="M81.66,127.43c-.54-.3-.96-.73-1.26-1.28-.31-.55-.46-1.2-.46-1.93s.16-1.36,.47-1.92c.31-.55,.74-.98,1.28-1.28,.54-.3,1.15-.45,1.82-.45s1.28,.15,1.82,.45c.54,.3,.97,.72,1.28,1.27,.31,.55,.47,1.19,.47,1.92s-.16,1.37-.48,1.93-.76,.98-1.31,1.28c-.55,.3-1.16,.45-1.83,.45s-1.26-.15-1.8-.45Zm2.99-.88c.37-.2,.67-.49,.9-.89,.23-.4,.34-.88,.34-1.45s-.11-1.05-.34-1.44-.52-.69-.88-.88-.75-.29-1.17-.29-.82,.1-1.18,.29c-.36,.19-.64,.49-.86,.88s-.32,.88-.32,1.44,.1,1.06,.32,1.46,.49,.69,.84,.88,.74,.29,1.16,.29,.82-.1,1.19-.3Z"/>
      <path class="cls-1" d="M94.29,120.99c.46-.27,1-.41,1.61-.41s1.2,.15,1.71,.45c.51,.3,.91,.72,1.21,1.27,.29,.55,.44,1.18,.44,1.9s-.15,1.35-.44,1.91c-.29,.56-.7,.99-1.21,1.3s-1.08,.46-1.71,.46-1.13-.14-1.59-.41c-.46-.27-.81-.61-1.05-1.01v4.66h-1.17v-10.42h1.17v1.3c.23-.4,.58-.74,1.04-1.01Zm3.44,1.83c-.21-.4-.51-.7-.87-.9-.37-.21-.77-.31-1.21-.31s-.83,.11-1.19,.32c-.37,.21-.66,.52-.88,.92-.22,.4-.33,.86-.33,1.39s.11,1,.33,1.4c.22,.4,.51,.71,.88,.92,.37,.21,.76,.32,1.19,.32s.84-.11,1.21-.32c.37-.21,.66-.52,.87-.92,.21-.4,.32-.87,.32-1.41s-.11-1-.32-1.39Z"/>
      <path class="cls-1" d="M102.08,127.43c-.54-.3-.96-.73-1.26-1.28-.31-.55-.46-1.2-.46-1.93s.16-1.36,.47-1.92c.31-.55,.74-.98,1.28-1.28,.54-.3,1.15-.45,1.82-.45s1.28,.15,1.82,.45c.54,.3,.97,.72,1.28,1.27,.31,.55,.47,1.19,.47,1.92s-.16,1.37-.48,1.93-.76,.98-1.31,1.28c-.55,.3-1.16,.45-1.83,.45s-1.26-.15-1.8-.45Zm2.99-.88c.37-.2,.67-.49,.9-.89,.23-.4,.34-.88,.34-1.45s-.11-1.05-.34-1.44-.52-.69-.88-.88-.75-.29-1.17-.29-.82,.1-1.18,.29c-.36,.19-.64,.49-.86,.88s-.32,.88-.32,1.44,.1,1.06,.32,1.46,.49,.69,.84,.88,.74,.29,1.16,.29,.82-.1,1.19-.3Z"/>
      <path class="cls-1" d="M111.11,120.9c.38-.22,.85-.33,1.4-.33v1.21h-.31c-1.32,0-1.97,.71-1.97,2.14v3.84h-1.17v-7.07h1.17v1.15c.21-.4,.5-.72,.88-.94Z"/>
      <path class="cls-1" d="M119.52,120.99c.46-.27,1-.41,1.61-.41s1.2,.15,1.71,.45c.51,.3,.91,.72,1.21,1.27,.29,.55,.44,1.18,.44,1.9s-.15,1.35-.44,1.91c-.29,.56-.7,.99-1.21,1.3s-1.08,.46-1.71,.46-1.13-.14-1.59-.41c-.46-.27-.81-.61-1.05-1.01v4.66h-1.17v-10.42h1.17v1.3c.23-.4,.58-.74,1.04-1.01Zm3.44,1.83c-.21-.4-.51-.7-.87-.9-.37-.21-.77-.31-1.21-.31s-.83,.11-1.19,.32c-.37,.21-.66,.52-.88,.92-.22,.4-.33,.86-.33,1.39s.11,1,.33,1.4c.22,.4,.51,.71,.88,.92,.37,.21,.76,.32,1.19,.32s.84-.11,1.21-.32c.37-.21,.66-.52,.87-.92,.21-.4,.32-.87,.32-1.41s-.11-1-.32-1.39Z"/>
      <path class="cls-1" d="M127.2,118.22v9.55h-1.17v-9.55h1.17Z"/>
      <path class="cls-1" d="M129.2,122.3c.29-.55,.69-.97,1.21-1.27,.51-.3,1.08-.45,1.71-.45s1.16,.13,1.61,.4c.46,.27,.79,.6,1.02,1.01v-1.29h1.19v7.07h-1.19v-1.32c-.23,.41-.58,.75-1.04,1.03-.46,.27-1,.41-1.61,.41s-1.2-.16-1.7-.46c-.51-.31-.91-.74-1.2-1.3-.29-.56-.44-1.2-.44-1.91s.15-1.36,.44-1.9Zm5.22,.52c-.21-.4-.5-.7-.87-.91-.37-.21-.77-.32-1.21-.32s-.84,.1-1.2,.31c-.36,.21-.65,.51-.86,.9s-.32,.86-.32,1.39,.11,1.01,.32,1.41c.21,.4,.5,.71,.86,.92,.36,.21,.76,.32,1.2,.32s.84-.11,1.21-.32c.37-.21,.66-.52,.87-.92,.21-.4,.32-.87,.32-1.4s-.11-1-.32-1.39Z"/>
      <path class="cls-1" d="M137.92,122.3c.29-.55,.7-.97,1.22-1.27,.52-.3,1.12-.45,1.79-.45,.87,0,1.58,.21,2.15,.63,.56,.42,.94,1.01,1.12,1.75h-1.26c-.12-.43-.35-.77-.7-1.02-.35-.25-.78-.37-1.3-.37-.67,0-1.21,.23-1.62,.69-.41,.46-.62,1.11-.62,1.95s.21,1.51,.62,1.97c.41,.46,.95,.7,1.62,.7,.52,0,.95-.12,1.29-.36s.58-.58,.71-1.03h1.26c-.19,.72-.57,1.3-1.13,1.74-.57,.43-1.28,.65-2.13,.65-.67,0-1.27-.15-1.79-.45-.52-.3-.93-.73-1.22-1.28-.29-.55-.44-1.2-.44-1.94s.15-1.37,.44-1.92Z"/>
      <path class="cls-1" d="M152.16,124.67h-5.65c.04,.7,.28,1.24,.72,1.63,.43,.39,.96,.59,1.58,.59,.51,0,.93-.12,1.27-.36,.34-.24,.58-.55,.72-.95h1.26c-.19,.68-.57,1.23-1.14,1.66s-1.27,.64-2.12,.64c-.67,0-1.27-.15-1.8-.45-.53-.3-.94-.73-1.25-1.28-.3-.55-.45-1.2-.45-1.93s.15-1.37,.44-1.92c.29-.55,.7-.97,1.23-1.27,.53-.3,1.14-.45,1.83-.45s1.26,.15,1.78,.44c.52,.29,.91,.7,1.19,1.21,.28,.51,.42,1.09,.42,1.74,0,.22-.01,.46-.04,.71Zm-1.47-2.11c-.2-.32-.47-.57-.81-.74s-.72-.25-1.13-.25c-.59,0-1.1,.19-1.52,.57-.42,.38-.66,.9-.72,1.57h4.46c0-.45-.1-.83-.3-1.15Z"/>
      <path class="cls-1" d="M155.81,120.9c.38-.22,.85-.33,1.4-.33v1.21h-.31c-1.32,0-1.97,.71-1.97,2.14v3.84h-1.17v-7.07h1.17v1.15c.21-.4,.5-.72,.88-.94Z"/>
      <path class="cls-1" d="M158.37,127.61c-.16-.15-.23-.34-.23-.57s.08-.41,.23-.57c.16-.15,.34-.23,.57-.23s.4,.08,.55,.23c.15,.16,.23,.34,.23,.57s-.08,.41-.23,.57c-.15,.16-.33,.23-.55,.23s-.41-.08-.57-.23Z"/>
      <path class="cls-1" d="M161.08,127.61c-.16-.15-.23-.34-.23-.57s.08-.41,.23-.57c.16-.15,.34-.23,.57-.23s.4,.08,.55,.23c.15,.16,.23,.34,.23,.57s-.08,.41-.23,.57c-.15,.16-.33,.23-.55,.23s-.41-.08-.57-.23Z"/>
      <path class="cls-1" d="M163.79,127.61c-.16-.15-.23-.34-.23-.57s.08-.41,.23-.57c.16-.15,.34-.23,.57-.23s.4,.08,.55,.23c.15,.16,.23,.34,.23,.57s-.08,.41-.23,.57c-.15,.16-.33,.23-.55,.23s-.41-.08-.57-.23Z"/>
      <path class="cls-1" d="M172.76,126.68l2.19-5.99h1.25l-2.77,7.07h-1.37l-2.77-7.07h1.26l2.21,5.99Z"/>
      <path class="cls-1" d="M177.41,119.32c-.16-.16-.23-.34-.23-.57s.08-.41,.23-.57,.34-.23,.57-.23,.4,.08,.55,.23c.15,.16,.23,.34,.23,.57s-.08,.41-.23,.57c-.15,.15-.33,.23-.55,.23s-.41-.08-.57-.23Zm1.13,1.38v7.07h-1.17v-7.07h1.17Z"/>
      <path class="cls-1" d="M180.54,122.3c.29-.55,.69-.97,1.21-1.27,.51-.3,1.08-.45,1.71-.45s1.16,.13,1.61,.4c.46,.27,.79,.6,1.02,1.01v-1.29h1.19v7.07h-1.19v-1.32c-.23,.41-.58,.75-1.04,1.03-.46,.27-1,.41-1.61,.41s-1.2-.16-1.7-.46c-.51-.31-.91-.74-1.2-1.3-.29-.56-.44-1.2-.44-1.91s.15-1.36,.44-1.9Zm5.22,.52c-.21-.4-.5-.7-.87-.91-.37-.21-.77-.32-1.21-.32s-.84,.1-1.2,.31c-.36,.21-.65,.51-.86,.9s-.32,.86-.32,1.39,.11,1.01,.32,1.41c.21,.4,.5,.71,.86,.92,.36,.21,.76,.32,1.2,.32s.84-.11,1.21-.32c.37-.21,.66-.52,.87-.92,.21-.4,.32-.87,.32-1.4s-.11-1-.32-1.39Z"/>
      <path class="cls-1" d="M190.47,129.3c0,.63-.16,1.09-.48,1.38-.32,.29-.78,.44-1.39,.44h-.68v-.99h.49c.33,0,.56-.06,.69-.19,.13-.13,.2-.35,.2-.66v-8.58h1.17v8.6Zm-1.14-9.98c-.15-.16-.23-.34-.23-.57s.08-.41,.23-.57c.15-.15,.34-.23,.56-.23s.41,.08,.56,.23c.15,.16,.23,.34,.23,.57s-.08,.41-.23,.57c-.15,.15-.34,.23-.56,.23s-.41-.08-.56-.23Z"/>
      <path class="cls-1" d="M192.46,122.3c.29-.55,.69-.97,1.21-1.27,.51-.3,1.08-.45,1.71-.45s1.16,.13,1.61,.4c.46,.27,.79,.6,1.02,1.01v-1.29h1.19v7.07h-1.19v-1.32c-.23,.41-.58,.75-1.04,1.03-.46,.27-1,.41-1.61,.41s-1.2-.16-1.7-.46c-.51-.31-.91-.74-1.2-1.3-.29-.56-.44-1.2-.44-1.91s.15-1.36,.44-1.9Zm5.22,.52c-.21-.4-.5-.7-.87-.91-.37-.21-.77-.32-1.21-.32s-.84,.1-1.2,.31c-.36,.21-.65,.51-.86,.9s-.32,.86-.32,1.39,.11,1.01,.32,1.41c.21,.4,.5,.71,.86,.92,.36,.21,.76,.32,1.2,.32s.84-.11,1.21-.32c.37-.21,.66-.52,.87-.92,.21-.4,.32-.87,.32-1.4s-.11-1-.32-1.39Z"/>
      <path class="cls-1" d="M202.39,126.14l-1.45,3.47h-.79l.94-3.47h1.29Z"/>
      <path class="cls-1" d="M213.27,120.7l-4.26,10.4h-1.21l1.39-3.41-2.85-6.99h1.3l2.22,5.73,2.19-5.73h1.21Z"/>
      <path class="cls-1" d="M219.06,118.22v9.55h-1.17v-9.55h1.17Z"/>
      <path class="cls-1" d="M222.23,118.22v9.55h-1.17v-9.55h1.17Z"/>
      <path class="cls-1" d="M230.64,124.67h-5.65c.04,.7,.28,1.24,.72,1.63,.43,.39,.96,.59,1.58,.59,.51,0,.93-.12,1.27-.36,.34-.24,.58-.55,.72-.95h1.26c-.19,.68-.57,1.23-1.14,1.66s-1.27,.64-2.12,.64c-.67,0-1.27-.15-1.8-.45-.53-.3-.94-.73-1.25-1.28-.3-.55-.45-1.2-.45-1.93s.15-1.37,.44-1.92c.29-.55,.7-.97,1.23-1.27,.53-.3,1.14-.45,1.83-.45s1.26,.15,1.78,.44c.52,.29,.91,.7,1.19,1.21,.28,.51,.42,1.09,.42,1.74,0,.22-.01,.46-.04,.71Zm-1.47-2.11c-.2-.32-.47-.57-.81-.74s-.72-.25-1.13-.25c-.59,0-1.1,.19-1.52,.57-.42,.38-.66,.9-.72,1.57h4.46c0-.45-.1-.83-.3-1.15Z"/>
      <path class="cls-1" d="M234.86,126.68l2.19-5.99h1.25l-2.77,7.07h-1.37l-2.77-7.07h1.26l2.21,5.99Z"/>
      <path class="cls-1" d="M239.47,122.3c.29-.55,.69-.97,1.21-1.27,.51-.3,1.08-.45,1.71-.45s1.16,.13,1.61,.4c.46,.27,.79,.6,1.02,1.01v-1.29h1.19v7.07h-1.19v-1.32c-.23,.41-.58,.75-1.04,1.03-.46,.27-1,.41-1.61,.41s-1.2-.16-1.7-.46c-.51-.31-.91-.74-1.2-1.3-.29-.56-.44-1.2-.44-1.91s.15-1.36,.44-1.9Zm5.22,.52c-.21-.4-.5-.7-.87-.91-.37-.21-.77-.32-1.21-.32s-.84,.1-1.2,.31c-.36,.21-.65,.51-.86,.9s-.32,.86-.32,1.39,.11,1.01,.32,1.41c.21,.4,.5,.71,.86,.92,.36,.21,.76,.32,1.2,.32s.84-.11,1.21-.32c.37-.21,.66-.52,.87-.92,.21-.4,.32-.87,.32-1.4s-.11-1-.32-1.39Z"/>
      <path class="cls-1" d="M.94,136.7c.29-.55,.7-.97,1.22-1.27,.52-.3,1.12-.45,1.79-.45,.87,0,1.58,.21,2.15,.63,.56,.42,.94,1.01,1.12,1.75h-1.26c-.12-.43-.35-.77-.7-1.02-.35-.25-.78-.37-1.3-.37-.67,0-1.21,.23-1.63,.69-.41,.46-.62,1.11-.62,1.95s.21,1.51,.62,1.97c.41,.46,.95,.7,1.63,.7,.52,0,.95-.12,1.29-.36,.34-.24,.58-.58,.71-1.03h1.26c-.19,.72-.57,1.3-1.14,1.74-.57,.43-1.28,.65-2.13,.65-.67,0-1.27-.15-1.79-.45-.52-.3-.93-.73-1.22-1.28-.29-.55-.44-1.2-.44-1.94s.15-1.37,.44-1.92Z"/>
      <path class="cls-1" d="M10.05,141.83c-.54-.3-.96-.73-1.26-1.28s-.46-1.2-.46-1.93,.16-1.36,.47-1.92,.74-.98,1.28-1.28,1.15-.45,1.82-.45,1.28,.15,1.82,.45c.54,.3,.97,.72,1.28,1.27,.31,.55,.47,1.19,.47,1.92s-.16,1.37-.48,1.93c-.32,.55-.76,.98-1.31,1.28-.55,.3-1.16,.45-1.83,.45s-1.26-.15-1.8-.45Zm2.99-.88c.37-.2,.67-.49,.9-.89s.34-.88,.34-1.45-.11-1.05-.34-1.44-.52-.69-.88-.88-.75-.29-1.17-.29-.82,.1-1.18,.29-.64,.49-.86,.88c-.21,.4-.32,.88-.32,1.44s.1,1.06,.32,1.46,.49,.69,.85,.88c.35,.19,.74,.29,1.16,.29s.82-.1,1.19-.3Z"/>
      <path class="cls-1" d="M22.56,135.75c.53,.52,.8,1.27,.8,2.25v4.17h-1.16v-4c0-.71-.18-1.25-.53-1.62-.35-.37-.83-.56-1.45-.56s-1.11,.19-1.48,.58-.55,.95-.55,1.69v3.91h-1.17v-7.07h1.17v1.01c.23-.36,.55-.64,.95-.84s.84-.3,1.32-.3c.86,0,1.56,.26,2.09,.78Z"/>
      <path class="cls-1" d="M26.71,136.06v4.17c0,.34,.07,.59,.22,.73s.4,.21,.76,.21h.86v.99h-1.06c-.65,0-1.14-.15-1.47-.45-.33-.3-.49-.8-.49-1.48v-4.17h-.92v-.97h.92v-1.78h1.17v1.78h1.84v.97h-1.84Z"/>
      <path class="cls-1" d="M30.01,133.72c-.16-.16-.23-.34-.23-.57s.08-.41,.23-.57,.34-.23,.57-.23,.4,.08,.55,.23c.15,.16,.23,.34,.23,.57s-.08,.41-.23,.57c-.15,.15-.33,.23-.55,.23s-.41-.08-.57-.23Zm1.13,1.38v7.07h-1.17v-7.07h1.17Z"/>
      <path class="cls-1" d="M37.67,135.38c.46,.27,.8,.6,1.03,1.01v-1.29h1.19v7.22c0,.64-.14,1.22-.41,1.72s-.67,.9-1.18,1.18c-.51,.28-1.11,.43-1.79,.43-.93,0-1.7-.22-2.32-.66s-.99-1.04-1.1-1.79h1.16c.13,.43,.4,.78,.8,1.04s.89,.39,1.46,.39c.64,0,1.17-.2,1.58-.61,.41-.4,.61-.97,.61-1.7v-1.48c-.23,.41-.58,.76-1.03,1.03-.46,.28-.99,.41-1.6,.41s-1.2-.16-1.71-.46-.91-.74-1.21-1.3c-.29-.56-.44-1.2-.44-1.91s.15-1.36,.44-1.9,.69-.97,1.21-1.27c.51-.3,1.08-.45,1.71-.45s1.15,.13,1.61,.4Zm.7,1.84c-.21-.4-.5-.7-.87-.91-.37-.21-.77-.32-1.21-.32s-.84,.1-1.2,.31c-.36,.21-.65,.51-.86,.9s-.32,.86-.32,1.39,.11,1.01,.32,1.41c.21,.4,.5,.71,.86,.92,.36,.21,.76,.32,1.2,.32s.84-.11,1.21-.32c.37-.21,.66-.52,.87-.92,.21-.4,.32-.87,.32-1.4s-.11-1-.32-1.39Z"/>
      <path class="cls-1" d="M43.15,141.83c-.54-.3-.96-.73-1.26-1.28-.31-.55-.46-1.2-.46-1.93s.16-1.36,.47-1.92c.31-.55,.74-.98,1.28-1.28,.54-.3,1.15-.45,1.82-.45s1.28,.15,1.82,.45c.54,.3,.97,.72,1.28,1.27,.31,.55,.47,1.19,.47,1.92s-.16,1.37-.48,1.93-.76,.98-1.31,1.28c-.55,.3-1.16,.45-1.83,.45s-1.26-.15-1.8-.45Zm2.99-.88c.37-.2,.67-.49,.9-.89,.23-.4,.34-.88,.34-1.45s-.11-1.05-.34-1.44-.52-.69-.88-.88-.75-.29-1.17-.29-.82,.1-1.18,.29c-.36,.19-.64,.49-.86,.88s-.32,.88-.32,1.44,.1,1.06,.32,1.46,.49,.69,.84,.88,.74,.29,1.16,.29,.82-.1,1.19-.3Z"/>
      <path class="cls-1" d="M59.84,135.1v7.07h-1.17v-1.04c-.22,.36-.54,.64-.94,.84-.4,.2-.84,.3-1.32,.3-.55,0-1.04-.11-1.48-.34-.44-.23-.79-.57-1.04-1.03-.25-.46-.38-1.01-.38-1.66v-4.14h1.16v3.99c0,.7,.18,1.23,.53,1.61,.35,.37,.83,.56,1.44,.56s1.12-.19,1.48-.58c.36-.39,.54-.95,.54-1.69v-3.88h1.17Z"/>
      <path class="cls-1" d="M67.36,135.75c.53,.52,.8,1.27,.8,2.25v4.17h-1.16v-4c0-.71-.18-1.25-.53-1.62-.35-.37-.83-.56-1.45-.56s-1.11,.19-1.48,.58c-.37,.39-.55,.95-.55,1.69v3.91h-1.17v-7.07h1.17v1.01c.23-.36,.55-.64,.95-.84,.4-.2,.84-.3,1.32-.3,.86,0,1.56,.26,2.09,.78Z"/>
      <path class="cls-1" d="M75.74,135.39c.46-.27,1-.41,1.61-.41s1.2,.15,1.71,.45c.51,.3,.91,.72,1.21,1.27,.29,.55,.44,1.18,.44,1.9s-.15,1.35-.44,1.91c-.29,.56-.7,.99-1.21,1.3s-1.08,.46-1.71,.46-1.13-.14-1.59-.41c-.46-.27-.81-.61-1.05-1.01v4.66h-1.17v-10.42h1.17v1.3c.23-.4,.58-.74,1.04-1.01Zm3.44,1.83c-.21-.4-.51-.7-.87-.9-.37-.21-.77-.31-1.21-.31s-.83,.11-1.19,.32c-.37,.21-.66,.52-.88,.92-.22,.4-.33,.86-.33,1.39s.11,1,.33,1.4c.22,.4,.51,.71,.88,.92,.37,.21,.76,.32,1.19,.32s.84-.11,1.21-.32c.37-.21,.66-.52,.87-.92,.21-.4,.32-.87,.32-1.41s-.11-1-.32-1.39Z"/>
      <path class="cls-1" d="M82.25,136.7c.29-.55,.69-.97,1.21-1.27,.51-.3,1.08-.45,1.71-.45s1.16,.13,1.61,.4c.46,.27,.79,.6,1.02,1.01v-1.29h1.19v7.07h-1.19v-1.32c-.23,.41-.58,.75-1.04,1.03-.46,.27-1,.41-1.61,.41s-1.2-.16-1.7-.46c-.51-.31-.91-.74-1.2-1.3-.29-.56-.44-1.2-.44-1.91s.15-1.36,.44-1.9Zm5.22,.52c-.21-.4-.5-.7-.87-.91-.37-.21-.77-.32-1.21-.32s-.84,.1-1.2,.31c-.36,.21-.65,.51-.86,.9s-.32,.86-.32,1.39,.11,1.01,.32,1.41c.21,.4,.5,.71,.86,.92,.36,.21,.76,.32,1.2,.32s.84-.11,1.21-.32c.37-.21,.66-.52,.87-.92,.21-.4,.32-.87,.32-1.4s-.11-1-.32-1.39Z"/>
      <path class="cls-1" d="M93.02,135.3c.38-.22,.85-.33,1.4-.33v1.21h-.31c-1.32,0-1.97,.71-1.97,2.14v3.84h-1.17v-7.07h1.17v1.15c.21-.4,.5-.72,.88-.94Z"/>
      <path class="cls-1" d="M99.22,136.7c.29-.55,.69-.97,1.21-1.27,.51-.3,1.09-.45,1.72-.45,.55,0,1.06,.13,1.54,.38,.47,.25,.83,.59,1.08,1v-3.74h1.19v9.55h-1.19v-1.33c-.23,.42-.58,.77-1.03,1.04-.46,.27-.99,.41-1.6,.41s-1.2-.16-1.71-.46-.91-.74-1.21-1.3c-.29-.56-.44-1.2-.44-1.91s.15-1.36,.44-1.9Zm5.22,.52c-.21-.4-.5-.7-.87-.91-.37-.21-.77-.32-1.21-.32s-.84,.1-1.2,.31c-.36,.21-.65,.51-.86,.9s-.32,.86-.32,1.39,.11,1.01,.32,1.41c.21,.4,.5,.71,.86,.92,.36,.21,.76,.32,1.2,.32s.84-.11,1.21-.32c.37-.21,.66-.52,.87-.92,.21-.4,.32-.87,.32-1.4s-.11-1-.32-1.39Z"/>
      <path class="cls-1" d="M114.35,139.07h-5.65c.04,.7,.28,1.24,.72,1.63,.43,.39,.96,.59,1.58,.59,.51,0,.93-.12,1.27-.36,.34-.24,.58-.55,.72-.95h1.26c-.19,.68-.57,1.23-1.14,1.66s-1.27,.64-2.12,.64c-.67,0-1.27-.15-1.8-.45-.53-.3-.94-.73-1.25-1.28-.3-.55-.45-1.2-.45-1.93s.15-1.37,.44-1.92c.29-.55,.7-.97,1.23-1.27,.53-.3,1.14-.45,1.83-.45s1.26,.15,1.78,.44c.52,.29,.91,.7,1.19,1.21,.28,.51,.42,1.09,.42,1.74,0,.22-.01,.46-.04,.71Zm-1.47-2.11c-.2-.32-.47-.57-.81-.74s-.72-.25-1.13-.25c-.59,0-1.1,.19-1.52,.57-.42,.38-.66,.9-.72,1.57h4.46c0-.45-.1-.83-.3-1.15Z"/>
      <path class="cls-1" d="M120.82,136.06v4.17c0,.34,.07,.59,.22,.73s.4,.21,.76,.21h.86v.99h-1.06c-.65,0-1.14-.15-1.47-.45-.33-.3-.49-.8-.49-1.48v-4.17h-.92v-.97h.92v-1.78h1.17v1.78h1.84v.97h-1.84Z"/>
      <path class="cls-1" d="M130.49,139.07h-5.65c.04,.7,.28,1.24,.72,1.63,.43,.39,.96,.59,1.58,.59,.51,0,.93-.12,1.27-.36,.34-.24,.58-.55,.72-.95h1.26c-.19,.68-.57,1.23-1.14,1.66s-1.27,.64-2.12,.64c-.67,0-1.27-.15-1.8-.45-.53-.3-.94-.73-1.25-1.28-.3-.55-.45-1.2-.45-1.93s.15-1.37,.44-1.92c.29-.55,.7-.97,1.23-1.27,.53-.3,1.14-.45,1.83-.45s1.26,.15,1.78,.44c.52,.29,.91,.7,1.19,1.21,.28,.51,.42,1.09,.42,1.74,0,.22-.01,.46-.04,.71Zm-1.47-2.11c-.2-.32-.47-.57-.81-.74s-.72-.25-1.13-.25c-.59,0-1.1,.19-1.52,.57-.42,.38-.66,.9-.72,1.57h4.46c0-.45-.1-.83-.3-1.15Z"/>
      <path class="cls-1" d="M137.61,135.75c.53,.52,.8,1.27,.8,2.25v4.17h-1.16v-4c0-.71-.18-1.25-.53-1.62-.35-.37-.83-.56-1.45-.56s-1.11,.19-1.48,.58c-.37,.39-.55,.95-.55,1.69v3.91h-1.17v-7.07h1.17v1.01c.23-.36,.55-.64,.95-.84,.4-.2,.84-.3,1.32-.3,.86,0,1.56,.26,2.09,.78Z"/>
      <path class="cls-1" d="M140.37,133.72c-.16-.16-.23-.34-.23-.57s.08-.41,.23-.57,.34-.23,.57-.23,.4,.08,.55,.23c.15,.16,.23,.34,.23,.57s-.08,.41-.23,.57c-.15,.15-.33,.23-.55,.23s-.41-.08-.57-.23Zm1.13,1.38v7.07h-1.17v-7.07h1.17Z"/>
      <path class="cls-1" d="M144.55,142c-.43-.18-.77-.44-1.02-.77-.25-.33-.39-.71-.41-1.14h1.21c.03,.35,.2,.64,.5,.86s.69,.34,1.17,.34c.45,0,.8-.1,1.06-.3s.39-.45,.39-.75-.14-.54-.41-.69-.7-.3-1.28-.45c-.53-.14-.95-.28-1.28-.42s-.61-.35-.85-.63c-.24-.28-.35-.65-.35-1.1,0-.36,.11-.69,.32-.99,.21-.3,.52-.54,.92-.72,.4-.18,.85-.26,1.35-.26,.78,0,1.42,.2,1.9,.59s.74,.94,.77,1.62h-1.17c-.03-.37-.17-.67-.45-.89-.27-.22-.63-.34-1.09-.34-.42,0-.76,.09-1.01,.27-.25,.18-.37,.42-.37,.71,0,.23,.08,.42,.23,.57s.34,.27,.57,.36c.23,.09,.54,.19,.95,.3,.51,.14,.92,.27,1.24,.41,.32,.13,.59,.33,.82,.6,.23,.27,.35,.62,.36,1.04,0,.39-.11,.74-.32,1.04-.21,.31-.52,.55-.91,.73s-.84,.26-1.35,.26c-.54,0-1.03-.09-1.46-.28Z"/>
      <path class="cls-1" d="M158.21,133.17v6.64c0,.74-.23,1.33-.68,1.77-.46,.44-1.06,.66-1.81,.66s-1.36-.23-1.82-.68c-.46-.45-.68-1.07-.68-1.85h1.17c0,.44,.12,.8,.34,1.07,.22,.28,.55,.41,.99,.41s.77-.13,.98-.39c.21-.26,.32-.6,.32-1v-6.64h1.19Z"/>
      <path class="cls-1" d="M166.93,139.07h-5.65c.04,.7,.28,1.24,.72,1.63,.43,.39,.96,.59,1.58,.59,.51,0,.93-.12,1.27-.36,.34-.24,.58-.55,.72-.95h1.26c-.19,.68-.57,1.23-1.14,1.66s-1.27,.64-2.12,.64c-.67,0-1.27-.15-1.8-.45-.53-.3-.94-.73-1.25-1.28-.3-.55-.45-1.2-.45-1.93s.15-1.37,.44-1.92c.29-.55,.7-.97,1.23-1.27,.53-.3,1.14-.45,1.83-.45s1.26,.15,1.78,.44c.52,.29,.91,.7,1.19,1.21,.28,.51,.42,1.09,.42,1.74,0,.22-.01,.46-.04,.71Zm-1.47-2.11c-.2-.32-.47-.57-.81-.74s-.72-.25-1.13-.25c-.59,0-1.1,.19-1.52,.57-.42,.38-.66,.9-.72,1.57h4.46c0-.45-.1-.83-.3-1.15Z"/>
      <path class="cls-1" d="M174.61,135.1l-4.26,10.4h-1.21l1.39-3.41-2.85-6.99h1.3l2.22,5.73,2.19-5.73h1.21Z"/>
      <path class="cls-1" d="M179.73,142.17l-2.77-3.12v3.12h-1.17v-9.55h1.17v5.61l2.72-3.13h1.64l-3.33,3.52,3.34,3.55h-1.6Z"/>
      <path class="cls-1" d="M182.23,142.01c-.16-.15-.23-.34-.23-.57s.08-.41,.23-.57c.16-.15,.34-.23,.57-.23s.4,.08,.55,.23c.15,.16,.23,.34,.23,.57s-.08,.41-.23,.57c-.15,.16-.33,.23-.55,.23s-.41-.08-.57-.23Z"/>
    </g>
    <rect class="cls-3" x=".5" y="170.56" width="132.96" height="33.32" rx="16.66" ry="16.66"/>
    <rect class="cls-3" x="143.24" y="170.56" width="178.72" height="33.32" rx="16.66" ry="16.66"/>
    <g>
      <path class="cls-5" d="M18.83,177.79h1.03c.3,.04,.61,.03,.91,.07,.77,.11,1.51,.35,2.22,.66,1.07,.47,2.02,1.11,2.84,1.93,1.4,1.39,2.3,3.06,2.67,5,.06,.29,.05,.6,.07,.9,0,.05-.02,.1,.02,.14v.74c-.05,.06-.11,.08-.18,.08-.08,0-.16,0-.24,0-6.01,0-12.02,0-18.03,0-.14,0-.3,.05-.42-.08v-.66c.04-.3,.03-.61,.07-.91,.08-.71,.3-1.38,.56-2.03,.45-1.1,1.08-2.07,1.9-2.93,.77-.82,1.65-1.48,2.65-1.98,.85-.42,1.74-.74,2.69-.86,.29-.04,.59-.05,.88-.05,.12-.01,.24,.02,.35-.02Z"/>
      <path class="cls-9" d="M9.73,187.22H28.6v.59c-.03,.32-.02,.65-.06,.97-.09,.72-.3,1.4-.57,2.07-.13,.32-.29,.64-.45,.94-.05,.1-.11,.19-.24,.2-.1,.03-.21,.02-.31,.02-5.19,0-10.39,0-15.58,0-.1,0-.21,0-.31-.02-.12,0-.18-.09-.23-.18-.47-.85-.81-1.74-.99-2.69-.07-.35-.07-.72-.09-1.08,0-.08,.02-.16-.02-.23v-.59Z"/>
      <path class="cls-10" d="M11.01,191.95c.06,0,.11,0,.17,0,5.33,0,10.66,0,15.98,0,.06,0,.11,0,.17,0,.06,.1-.01,.18-.06,.25-.27,.47-.6,.9-.96,1.3-.78,.86-1.66,1.58-2.69,2.12-.84,.44-1.72,.76-2.64,.93-.32,.06-.65,.06-.97,.08-.08,0-.17-.02-.25,.02h-1.18c-.34-.04-.68-.02-1.02-.07-.78-.11-1.53-.35-2.25-.67-.88-.39-1.69-.9-2.41-1.54-.7-.63-1.33-1.33-1.82-2.14-.05-.09-.13-.17-.07-.29Z"/>
      <path class="cls-4" d="M18.46,177.82s0-.02,0-.03h.37c-.12,.05-.25,.04-.37,.03Z"/>
    </g>
    <g>
      <path class="cls-1" d="M46.69,178.45v7.02h-1.15v-4.81l-2.14,4.81h-.8l-2.15-4.81v4.81h-1.15v-7.02h1.24l2.47,5.51,2.46-5.51h1.23Z"/>
      <path class="cls-1" d="M48.17,181.18c.23-.43,.55-.77,.95-1.01,.4-.24,.84-.36,1.33-.36,.44,0,.82,.09,1.15,.26,.33,.17,.59,.39,.78,.64v-.81h1.16v5.57h-1.16v-.83c-.2,.26-.46,.48-.8,.66-.34,.18-.72,.26-1.15,.26-.48,0-.92-.12-1.31-.37-.4-.25-.71-.59-.95-1.03-.23-.44-.35-.94-.35-1.5s.12-1.05,.35-1.49Zm3.97,.5c-.16-.28-.37-.5-.62-.65-.26-.15-.53-.22-.83-.22s-.57,.07-.83,.22c-.26,.15-.46,.36-.62,.64-.16,.28-.24,.61-.24,1s.08,.72,.24,1.01c.16,.29,.37,.51,.63,.66s.53,.23,.82,.23,.57-.07,.83-.22c.26-.15,.46-.37,.62-.65,.16-.29,.24-.62,.24-1.01s-.08-.72-.24-1Z"/>
      <path class="cls-1" d="M56.88,180.05c.28-.16,.61-.24,1-.24v1.19h-.29c-.45,0-.79,.11-1.03,.34-.23,.23-.35,.63-.35,1.19v2.93h-1.15v-5.57h1.15v.81c.17-.28,.39-.5,.67-.66Z"/>
      <path class="cls-1" d="M58.9,181.17c.23-.43,.55-.77,.97-1.01s.88-.35,1.41-.35c.67,0,1.23,.16,1.67,.48,.44,.32,.74,.78,.89,1.37h-1.24c-.1-.28-.26-.49-.48-.65-.22-.16-.5-.23-.84-.23-.47,0-.85,.17-1.13,.5-.28,.33-.42,.8-.42,1.4s.14,1.07,.42,1.4c.28,.34,.66,.51,1.13,.51,.67,0,1.11-.29,1.32-.88h1.24c-.16,.57-.47,1.01-.91,1.35-.45,.33-1,.5-1.66,.5-.53,0-1-.12-1.41-.36s-.73-.58-.97-1.01c-.23-.43-.35-.94-.35-1.51s.12-1.08,.35-1.51Z"/>
      <path class="cls-1" d="M64.97,181.18c.23-.43,.55-.77,.95-1.01,.4-.24,.84-.36,1.33-.36,.44,0,.82,.09,1.15,.26,.33,.17,.59,.39,.78,.64v-.81h1.16v5.57h-1.16v-.83c-.2,.26-.46,.48-.8,.66-.34,.18-.72,.26-1.15,.26-.48,0-.92-.12-1.31-.37-.4-.25-.71-.59-.95-1.03-.23-.44-.35-.94-.35-1.5s.12-1.05,.35-1.49Zm3.97,.5c-.16-.28-.37-.5-.62-.65-.26-.15-.53-.22-.83-.22s-.57,.07-.83,.22c-.26,.15-.46,.36-.62,.64-.16,.28-.24,.61-.24,1s.08,.72,.24,1.01c.16,.29,.37,.51,.63,.66s.53,.23,.82,.23,.57-.07,.83-.22c.26-.15,.46-.37,.62-.65,.16-.29,.24-.62,.24-1.01s-.08-.72-.24-1Z"/>
      <path class="cls-1" d="M39.39,189.8c.32-.55,.75-.97,1.3-1.28,.55-.31,1.15-.46,1.8-.46,.75,0,1.41,.18,2,.55s1.01,.89,1.27,1.56h-1.38c-.18-.37-.43-.65-.76-.83-.32-.18-.7-.27-1.12-.27-.46,0-.88,.1-1.24,.31-.36,.21-.65,.51-.85,.9-.21,.39-.31,.85-.31,1.36s.1,.97,.31,1.36c.21,.39,.49,.69,.85,.9,.36,.21,.78,.32,1.24,.32,.42,0,.8-.09,1.12-.27,.32-.18,.58-.46,.76-.83h1.38c-.26,.67-.69,1.19-1.27,1.56-.58,.36-1.25,.55-2,.55-.66,0-1.26-.15-1.81-.46-.55-.31-.98-.73-1.3-1.28-.32-.55-.48-1.16-.48-1.85s.16-1.3,.48-1.85Z"/>
      <path class="cls-1" d="M48.1,194.91c-.42-.24-.76-.58-1-1.01-.24-.43-.36-.94-.36-1.51s.12-1.07,.37-1.51c.25-.44,.59-.77,1.02-1.01,.43-.24,.91-.35,1.44-.35s1.01,.12,1.44,.35c.43,.24,.77,.57,1.02,1.01s.37,.94,.37,1.51-.13,1.07-.38,1.51c-.26,.44-.61,.78-1.05,1.02-.44,.24-.93,.36-1.46,.36s-1-.12-1.42-.36Zm2.26-.85c.26-.14,.47-.35,.63-.64,.16-.28,.24-.63,.24-1.03s-.08-.75-.23-1.03c-.15-.28-.36-.49-.62-.63-.26-.14-.53-.21-.83-.21s-.57,.07-.82,.21-.45,.35-.6,.63c-.15,.28-.22,.62-.22,1.03,0,.6,.15,1.06,.46,1.39,.31,.33,.69,.49,1.16,.49,.3,0,.57-.07,.83-.21Z"/>
      <path class="cls-1" d="M54.71,187.7v7.48h-1.15v-7.48h1.15Z"/>
      <path class="cls-1" d="M57.21,194.91c-.42-.24-.76-.58-1-1.01-.24-.43-.36-.94-.36-1.51s.12-1.07,.37-1.51c.25-.44,.59-.77,1.02-1.01,.43-.24,.91-.35,1.44-.35s1.01,.12,1.44,.35c.43,.24,.77,.57,1.02,1.01s.37,.94,.37,1.51-.13,1.07-.38,1.51c-.26,.44-.61,.78-1.05,1.02-.44,.24-.93,.36-1.46,.36s-1-.12-1.42-.36Zm2.26-.85c.26-.14,.47-.35,.63-.64,.16-.28,.24-.63,.24-1.03s-.08-.75-.23-1.03c-.15-.28-.36-.49-.62-.63-.26-.14-.53-.21-.83-.21s-.57,.07-.82,.21-.45,.35-.6,.63c-.15,.28-.22,.62-.22,1.03,0,.6,.15,1.06,.46,1.39,.31,.33,.69,.49,1.16,.49,.3,0,.57-.07,.83-.21Z"/>
      <path class="cls-1" d="M70.58,189.79c.35,.18,.62,.45,.82,.81,.2,.36,.3,.79,.3,1.29v3.28h-1.14v-3.11c0-.5-.12-.88-.37-1.15-.25-.27-.59-.4-1.02-.4s-.77,.13-1.02,.4c-.25,.27-.38,.65-.38,1.15v3.11h-1.14v-3.11c0-.5-.12-.88-.37-1.15s-.59-.4-1.02-.4-.77,.13-1.03,.4-.38,.65-.38,1.15v3.11h-1.15v-5.57h1.15v.64c.19-.23,.43-.41,.72-.54,.29-.13,.6-.19,.93-.19,.44,0,.84,.09,1.19,.28,.35,.19,.62,.46,.81,.82,.17-.34,.43-.6,.79-.8,.36-.2,.74-.3,1.15-.3,.44,0,.83,.09,1.18,.27Z"/>
      <path class="cls-1" d="M75.12,189.78c.34-.17,.72-.26,1.14-.26,.49,0,.94,.12,1.33,.35,.4,.24,.71,.57,.94,1.01s.34,.93,.34,1.49-.11,1.06-.34,1.5c-.23,.44-.54,.78-.94,1.03-.4,.25-.84,.37-1.33,.37-.43,0-.81-.08-1.15-.25-.33-.17-.6-.38-.79-.65v.81h-1.15v-7.48h1.15v2.74c.2-.27,.46-.49,.8-.66Zm2.34,1.6c-.16-.28-.37-.49-.63-.64-.26-.14-.54-.22-.83-.22s-.56,.07-.82,.22-.47,.36-.63,.65c-.16,.28-.24,.62-.24,1s.08,.72,.24,1.01c.16,.29,.37,.5,.63,.65,.26,.15,.53,.22,.82,.22s.57-.08,.83-.23,.47-.37,.63-.66c.16-.29,.24-.63,.24-1.01s-.08-.72-.24-1Z"/>
      <path class="cls-1" d="M80.08,188.66c-.14-.14-.21-.32-.21-.53s.07-.38,.21-.53,.32-.21,.53-.21,.37,.07,.52,.21,.21,.32,.21,.53-.07,.38-.21,.53-.31,.21-.52,.21-.38-.07-.53-.21Zm1.09,.95v5.57h-1.15v-5.57h1.15Z"/>
      <path class="cls-1" d="M82.65,190.88c.23-.43,.55-.77,.95-1.01,.4-.24,.84-.36,1.33-.36,.44,0,.82,.09,1.15,.26,.33,.17,.59,.39,.78,.64v-.81h1.16v5.57h-1.16v-.83c-.2,.26-.46,.48-.8,.66-.34,.18-.72,.26-1.15,.26-.48,0-.92-.12-1.31-.37-.4-.25-.71-.59-.95-1.03-.23-.44-.35-.94-.35-1.5s.12-1.05,.35-1.49Zm3.97,.5c-.16-.28-.37-.5-.62-.65-.26-.15-.53-.22-.83-.22s-.57,.07-.83,.22c-.26,.15-.46,.36-.62,.64-.16,.28-.24,.61-.24,1s.08,.72,.24,1.01c.16,.29,.37,.51,.63,.66s.53,.23,.82,.23,.57-.07,.83-.22c.26-.15,.46-.37,.62-.65,.16-.29,.24-.62,.24-1.01s-.08-.72-.24-1Z"/>
      <path class="cls-1" d="M93.52,189.79c.35,.18,.62,.45,.81,.81,.2,.36,.29,.79,.29,1.29v3.28h-1.14v-3.11c0-.5-.12-.88-.37-1.15s-.59-.4-1.02-.4-.77,.13-1.03,.4-.38,.65-.38,1.15v3.11h-1.15v-5.57h1.15v.64c.19-.23,.43-.41,.72-.54,.29-.13,.6-.19,.93-.19,.44,0,.83,.09,1.18,.27Z"/>
      <path class="cls-1" d="M96.05,190.88c.23-.43,.55-.77,.95-1.01,.4-.24,.84-.36,1.33-.36,.44,0,.82,.09,1.15,.26,.33,.17,.59,.39,.78,.64v-.81h1.16v5.57h-1.16v-.83c-.2,.26-.46,.48-.8,.66-.34,.18-.72,.26-1.15,.26-.48,0-.92-.12-1.31-.37-.4-.25-.71-.59-.95-1.03-.23-.44-.35-.94-.35-1.5s.12-1.05,.35-1.49Zm3.97,.5c-.16-.28-.37-.5-.62-.65-.26-.15-.53-.22-.83-.22s-.57,.07-.83,.22c-.26,.15-.46,.36-.62,.64-.16,.28-.24,.61-.24,1s.08,.72,.24,1.01c.16,.29,.37,.51,.63,.66s.53,.23,.82,.23,.57-.07,.83-.22c.26-.15,.46-.37,.62-.65,.16-.29,.24-.62,.24-1.01s-.08-.72-.24-1Z"/>
    </g>
    <g>
      <path class="cls-1" d="M179.85,190.36c-.31-.13-.55-.33-.72-.57-.18-.25-.26-.53-.26-.86h1c.02,.25,.12,.45,.29,.61,.17,.16,.42,.24,.73,.24s.58-.08,.76-.23,.27-.36,.27-.6c0-.19-.06-.35-.17-.47s-.25-.21-.42-.28c-.17-.07-.4-.14-.7-.21-.37-.1-.68-.2-.91-.3s-.43-.26-.6-.47c-.16-.21-.25-.5-.25-.86,0-.33,.08-.62,.25-.86,.16-.25,.39-.44,.69-.57,.3-.13,.64-.2,1.03-.2,.55,0,1.01,.14,1.36,.42,.35,.28,.55,.66,.59,1.14h-1.04c-.02-.21-.12-.39-.3-.53-.18-.15-.42-.22-.72-.22-.27,0-.49,.07-.66,.21-.17,.14-.25,.33-.25,.59,0,.18,.05,.32,.16,.43,.11,.11,.24,.2,.41,.27,.16,.07,.39,.14,.67,.21,.38,.1,.69,.21,.93,.31,.24,.1,.44,.26,.61,.48s.25,.51,.25,.87c0,.29-.08,.56-.23,.82s-.38,.46-.68,.62-.65,.23-1.06,.23c-.38,0-.73-.07-1.04-.2Z"/>
      <path class="cls-1" d="M184.02,185.2c-.12-.12-.17-.26-.17-.43s.06-.31,.17-.43,.26-.17,.43-.17,.3,.06,.42,.17,.17,.26,.17,.43-.06,.31-.17,.43-.25,.17-.42,.17-.31-.06-.43-.17Zm.89,.77v4.53h-.94v-4.53h.94Z"/>
      <path class="cls-1" d="M189.87,186.11c.27-.14,.58-.21,.93-.21,.39,0,.76,.1,1.08,.29,.33,.19,.58,.47,.77,.82s.28,.75,.28,1.21-.09,.86-.28,1.22c-.19,.36-.44,.64-.77,.84-.33,.2-.69,.3-1.08,.3-.35,0-.65-.07-.92-.21s-.49-.31-.66-.52v2.81h-.94v-6.69h.94v.67c.16-.21,.38-.38,.65-.53Zm1.91,1.3c-.13-.23-.3-.4-.51-.52-.21-.12-.44-.18-.68-.18s-.46,.06-.67,.18-.38,.3-.51,.53c-.13,.23-.19,.5-.19,.81s.06,.59,.19,.82c.13,.23,.3,.41,.51,.53,.21,.12,.43,.18,.67,.18s.47-.06,.68-.18,.38-.3,.51-.54c.13-.24,.19-.51,.19-.82s-.06-.58-.19-.81Z"/>
      <path class="cls-1" d="M197.97,185.97v4.53h-.94v-.53c-.15,.19-.34,.33-.58,.44s-.49,.16-.76,.16c-.36,0-.68-.07-.96-.22-.28-.15-.5-.37-.67-.66-.16-.29-.24-.64-.24-1.05v-2.66h.93v2.52c0,.41,.1,.72,.3,.93s.48,.33,.83,.33,.63-.11,.83-.33c.21-.22,.31-.53,.31-.93v-2.52h.94Z"/>
      <path class="cls-1" d="M203.32,188.59h-3.46c.03,.36,.16,.65,.4,.87,.24,.22,.54,.33,.89,.33,.5,0,.86-.21,1.07-.63h1.01c-.14,.42-.39,.76-.74,1.02-.36,.27-.8,.4-1.34,.4-.43,0-.82-.1-1.16-.29-.34-.19-.61-.47-.81-.82s-.29-.76-.29-1.23,.09-.88,.28-1.23,.46-.63,.8-.82c.34-.19,.74-.29,1.18-.29s.81,.09,1.14,.28c.33,.19,.59,.45,.78,.79,.19,.34,.28,.73,.28,1.16,0,.17-.01,.32-.03,.46Zm-.95-.76c0-.35-.13-.62-.37-.83-.24-.21-.54-.31-.9-.31-.32,0-.6,.1-.83,.31-.23,.21-.37,.48-.41,.84h2.51Z"/>
      <path class="cls-1" d="M204.25,187.01c.19-.35,.45-.62,.77-.82,.33-.19,.69-.29,1.09-.29,.3,0,.59,.06,.88,.19,.29,.13,.52,.3,.69,.51v-2.19h.95v6.09h-.95v-.68c-.15,.22-.37,.4-.64,.54-.27,.14-.58,.21-.93,.21-.4,0-.76-.1-1.08-.3-.33-.2-.58-.48-.77-.84-.19-.36-.28-.77-.28-1.22s.09-.86,.28-1.21Zm3.23,.41c-.13-.23-.3-.41-.51-.53-.21-.12-.43-.18-.67-.18s-.47,.06-.67,.18c-.21,.12-.38,.29-.51,.52-.13,.23-.19,.5-.19,.81s.06,.59,.19,.82c.13,.24,.3,.42,.51,.54s.43,.18,.67,.18,.47-.06,.67-.18c.21-.12,.38-.3,.51-.53,.13-.23,.19-.51,.19-.82s-.06-.58-.19-.81Z"/>
      <path class="cls-1" d="M213.97,188.59h-3.46c.03,.36,.16,.65,.4,.87,.24,.22,.54,.33,.89,.33,.5,0,.86-.21,1.07-.63h1.01c-.14,.42-.39,.76-.74,1.02-.36,.27-.8,.4-1.34,.4-.43,0-.82-.1-1.16-.29-.34-.19-.61-.47-.81-.82s-.29-.76-.29-1.23,.09-.88,.28-1.23,.46-.63,.8-.82c.34-.19,.74-.29,1.18-.29s.81,.09,1.14,.28c.33,.19,.59,.45,.78,.79,.19,.34,.28,.73,.28,1.16,0,.17-.01,.32-.03,.46Zm-.95-.76c0-.35-.13-.62-.37-.83-.24-.21-.54-.31-.9-.31-.32,0-.6,.1-.83,.31-.23,.21-.37,.48-.41,.84h2.51Z"/>
      <path class="cls-1" d="M215.61,190.38c-.28-.13-.51-.3-.67-.53s-.25-.47-.26-.74h.97c.02,.19,.11,.35,.28,.48,.17,.13,.38,.19,.63,.19s.47-.05,.61-.15c.15-.1,.22-.23,.22-.39,0-.17-.08-.3-.24-.38-.16-.08-.42-.17-.77-.27-.34-.09-.62-.18-.83-.27-.21-.09-.4-.22-.55-.4-.16-.18-.23-.42-.23-.72,0-.24,.07-.46,.21-.66,.14-.2,.35-.36,.61-.47s.57-.17,.92-.17c.51,0,.93,.13,1.25,.39s.48,.62,.51,1.07h-.94c-.02-.2-.1-.36-.25-.49-.15-.12-.35-.18-.6-.18s-.44,.05-.57,.14c-.13,.09-.2,.22-.2,.37,0,.12,.04,.22,.13,.3,.09,.08,.19,.15,.32,.19,.13,.05,.31,.11,.56,.18,.33,.09,.6,.18,.81,.27,.21,.09,.39,.22,.55,.4,.15,.18,.23,.41,.24,.7,0,.26-.07,.49-.21,.69-.14,.2-.34,.36-.6,.48-.26,.12-.57,.17-.92,.17s-.68-.06-.96-.19Z"/>
      <path class="cls-1" d="M223.21,189.66l1.28-3.69h1l-1.73,4.53h-1.12l-1.72-4.53h1l1.28,3.69Z"/>
      <path class="cls-1" d="M226.24,185.2c-.12-.12-.17-.26-.17-.43s.06-.31,.17-.43,.26-.17,.43-.17,.3,.06,.42,.17,.17,.26,.17,.43-.06,.31-.17,.43-.26,.17-.42,.17-.31-.06-.43-.17Zm.89,.77v4.53h-.94v-4.53h.94Z"/>
      <path class="cls-1" d="M228.34,187.01c.19-.35,.45-.62,.77-.82,.33-.19,.69-.29,1.08-.29,.36,0,.67,.07,.93,.21,.27,.14,.48,.31,.64,.52v-.66h.95v4.53h-.95v-.67c-.16,.21-.38,.39-.65,.53-.27,.14-.59,.21-.94,.21-.39,0-.75-.1-1.07-.3-.32-.2-.58-.48-.77-.84-.19-.36-.28-.77-.28-1.22s.09-.86,.28-1.21Zm3.23,.41c-.13-.23-.3-.41-.51-.53-.21-.12-.43-.18-.67-.18s-.47,.06-.67,.18c-.21,.12-.38,.29-.51,.52-.13,.23-.19,.5-.19,.81s.06,.59,.19,.82c.13,.24,.3,.42,.51,.54s.43,.18,.67,.18,.47-.06,.67-.18c.21-.12,.38-.3,.51-.53,.13-.23,.19-.51,.19-.82s-.06-.58-.19-.81Z"/>
      <path class="cls-1" d="M234.88,191.39c0,.44-.11,.77-.33,.97-.22,.2-.54,.3-.97,.3h-.49v-.79h.32c.19,0,.33-.04,.41-.11,.08-.07,.12-.2,.12-.37v-5.42h.94v5.42Zm-.89-6.19c-.12-.12-.17-.26-.17-.43s.06-.31,.17-.43,.26-.17,.43-.17,.3,.06,.42,.17,.17,.26,.17,.43-.06,.31-.17,.43-.26,.17-.42,.17-.31-.06-.43-.17Z"/>
      <path class="cls-1" d="M236.09,187.01c.19-.35,.45-.62,.77-.82,.33-.19,.69-.29,1.08-.29,.36,0,.67,.07,.93,.21,.27,.14,.48,.31,.64,.52v-.66h.95v4.53h-.95v-.67c-.16,.21-.38,.39-.65,.53-.27,.14-.59,.21-.94,.21-.39,0-.75-.1-1.07-.3-.32-.2-.58-.48-.77-.84-.19-.36-.28-.77-.28-1.22s.09-.86,.28-1.21Zm3.23,.41c-.13-.23-.3-.41-.51-.53-.21-.12-.43-.18-.67-.18s-.47,.06-.67,.18c-.21,.12-.38,.29-.51,.52-.13,.23-.19,.5-.19,.81s.06,.59,.19,.82c.13,.24,.3,.42,.51,.54s.43,.18,.67,.18,.47-.06,.67-.18c.21-.12,.38-.3,.51-.53,.13-.23,.19-.51,.19-.82s-.06-.58-.19-.81Z"/>
      <path class="cls-1" d="M243.18,186.09c.23-.13,.5-.19,.81-.19v.97h-.24c-.37,0-.65,.09-.84,.28-.19,.19-.28,.51-.28,.97v2.39h-.94v-4.53h.94v.66c.14-.23,.32-.41,.55-.54Z"/>
      <path class="cls-1" d="M245.88,189.37l-1,2.27h-.61l.58-2.27h1.02Z"/>
      <path class="cls-1" d="M250.43,186.11c.27-.14,.58-.21,.93-.21,.39,0,.76,.1,1.08,.29,.33,.19,.58,.47,.77,.82s.28,.75,.28,1.21-.09,.86-.28,1.22c-.19,.36-.44,.64-.77,.84-.33,.2-.69,.3-1.08,.3-.35,0-.65-.07-.92-.21-.27-.14-.49-.31-.66-.52v2.81h-.94v-6.69h.94v.67c.16-.21,.38-.38,.65-.53Zm1.91,1.3c-.13-.23-.3-.4-.51-.52-.21-.12-.44-.18-.68-.18s-.46,.06-.67,.18-.38,.3-.51,.53c-.13,.23-.19,.5-.19,.81s.06,.59,.19,.82c.13,.23,.3,.41,.51,.53,.21,.12,.43,.18,.67,.18s.47-.06,.68-.18,.38-.3,.51-.54c.13-.24,.19-.51,.19-.82s-.06-.58-.19-.81Z"/>
      <path class="cls-1" d="M258.52,185.97v4.53h-.94v-.53c-.15,.19-.34,.33-.58,.44s-.49,.16-.76,.16c-.36,0-.68-.07-.96-.22-.28-.15-.5-.37-.67-.66-.16-.29-.24-.64-.24-1.05v-2.66h.93v2.52c0,.41,.1,.72,.3,.93s.48,.33,.83,.33,.63-.11,.84-.33,.31-.53,.31-.93v-2.52h.94Z"/>
      <path class="cls-1" d="M263.87,188.59h-3.46c.03,.36,.16,.65,.4,.87,.24,.22,.54,.33,.89,.33,.5,0,.86-.21,1.07-.63h1.01c-.14,.42-.38,.76-.74,1.02s-.81,.4-1.34,.4c-.43,0-.82-.1-1.16-.29s-.61-.47-.81-.82c-.19-.35-.29-.76-.29-1.23s.09-.88,.28-1.23c.19-.35,.46-.63,.8-.82,.34-.19,.74-.29,1.18-.29s.81,.09,1.14,.28c.33,.19,.59,.45,.78,.79,.19,.34,.28,.73,.28,1.16,0,.17-.01,.32-.03,.46Zm-.95-.76c0-.35-.13-.62-.37-.83-.24-.21-.54-.31-.9-.31-.32,0-.6,.1-.83,.31s-.37,.48-.41,.84h2.51Z"/>
      <path class="cls-1" d="M264.8,187.01c.19-.35,.45-.62,.77-.82,.33-.19,.69-.29,1.09-.29,.3,0,.59,.06,.88,.19,.29,.13,.52,.3,.69,.51v-2.19h.95v6.09h-.95v-.68c-.15,.22-.37,.4-.64,.54-.27,.14-.58,.21-.93,.21-.39,0-.76-.1-1.08-.3-.33-.2-.58-.48-.77-.84-.19-.36-.28-.77-.28-1.22s.09-.86,.28-1.21Zm3.23,.41c-.13-.23-.3-.41-.51-.53-.21-.12-.43-.18-.67-.18s-.47,.06-.67,.18c-.21,.12-.38,.29-.51,.52-.13,.23-.19,.5-.19,.81s.06,.59,.19,.82c.13,.24,.3,.42,.51,.54s.43,.18,.67,.18,.47-.06,.67-.18c.21-.12,.38-.3,.51-.53,.13-.23,.19-.51,.19-.82s-.06-.58-.19-.81Z"/>
      <path class="cls-1" d="M274.53,188.59h-3.46c.03,.36,.16,.65,.4,.87,.24,.22,.54,.33,.89,.33,.5,0,.86-.21,1.07-.63h1.01c-.14,.42-.38,.76-.74,1.02s-.81,.4-1.34,.4c-.43,0-.82-.1-1.16-.29s-.61-.47-.81-.82c-.19-.35-.29-.76-.29-1.23s.09-.88,.28-1.23c.19-.35,.46-.63,.8-.82,.34-.19,.74-.29,1.18-.29s.81,.09,1.14,.28c.33,.19,.59,.45,.78,.79,.19,.34,.28,.73,.28,1.16,0,.17-.01,.32-.03,.46Zm-.95-.76c0-.35-.13-.62-.37-.83-.24-.21-.54-.31-.9-.31-.32,0-.6,.1-.83,.31s-.37,.48-.41,.84h2.51Z"/>
      <path class="cls-1" d="M276.17,190.38c-.28-.13-.51-.3-.67-.53s-.25-.47-.26-.74h.97c.02,.19,.11,.35,.28,.48,.17,.13,.38,.19,.63,.19s.47-.05,.61-.15c.15-.1,.22-.23,.22-.39,0-.17-.08-.3-.24-.38-.16-.08-.42-.17-.77-.27-.34-.09-.62-.18-.83-.27-.21-.09-.4-.22-.55-.4-.16-.18-.23-.42-.23-.72,0-.24,.07-.46,.21-.66,.14-.2,.35-.36,.61-.47s.57-.17,.92-.17c.51,0,.93,.13,1.25,.39s.48,.62,.51,1.07h-.94c-.02-.2-.1-.36-.25-.49-.15-.12-.35-.18-.6-.18s-.44,.05-.57,.14c-.13,.09-.2,.22-.2,.37,0,.12,.04,.22,.13,.3,.09,.08,.19,.15,.32,.19,.13,.05,.31,.11,.56,.18,.33,.09,.6,.18,.81,.27,.21,.09,.39,.22,.55,.4,.15,.18,.23,.41,.24,.7,0,.26-.07,.49-.21,.69-.14,.2-.34,.36-.6,.48-.26,.12-.57,.17-.92,.17s-.68-.06-.96-.19Z"/>
      <path class="cls-1" d="M281.98,187.01c.19-.35,.45-.62,.77-.82,.33-.19,.69-.29,1.08-.29,.36,0,.67,.07,.93,.21,.27,.14,.48,.31,.64,.52v-.66h.95v4.53h-.95v-.67c-.16,.21-.38,.39-.65,.53-.27,.14-.59,.21-.94,.21-.39,0-.75-.1-1.07-.3-.32-.2-.58-.48-.77-.84-.19-.36-.28-.77-.28-1.22s.09-.86,.28-1.21Zm3.23,.41c-.13-.23-.3-.41-.51-.53-.21-.12-.43-.18-.67-.18s-.47,.06-.67,.18c-.21,.12-.38,.29-.51,.52-.13,.23-.19,.5-.19,.81s.06,.59,.19,.82c.13,.24,.3,.42,.51,.54s.43,.18,.67,.18,.47-.06,.67-.18c.21-.12,.38-.3,.51-.53,.13-.23,.19-.51,.19-.82s-.06-.58-.19-.81Z"/>
      <path class="cls-1" d="M291.67,185.97l-2.78,6.66h-.97l.92-2.2-1.79-4.46h1.04l1.27,3.45,1.32-3.45h.97Z"/>
      <path class="cls-1" d="M296.48,185.97v4.53h-.94v-.53c-.15,.19-.34,.33-.58,.44s-.49,.16-.76,.16c-.36,0-.68-.07-.96-.22-.28-.15-.5-.37-.67-.66-.16-.29-.24-.64-.24-1.05v-2.66h.93v2.52c0,.41,.1,.72,.3,.93s.48,.33,.83,.33,.63-.11,.84-.33,.31-.53,.31-.93v-2.52h.94Z"/>
      <path class="cls-1" d="M297.68,187.01c.19-.35,.45-.62,.77-.82,.33-.19,.69-.29,1.09-.29,.3,0,.59,.06,.88,.19,.29,.13,.52,.3,.69,.51v-2.19h.95v6.09h-.95v-.68c-.15,.22-.37,.4-.64,.54-.27,.14-.58,.21-.93,.21-.39,0-.76-.1-1.08-.3-.33-.2-.58-.48-.77-.84-.19-.36-.28-.77-.28-1.22s.09-.86,.28-1.21Zm3.23,.41c-.13-.23-.3-.41-.51-.53-.21-.12-.43-.18-.67-.18s-.47,.06-.67,.18c-.21,.12-.38,.29-.51,.52-.13,.23-.19,.5-.19,.81s.06,.59,.19,.82c.13,.24,.3,.42,.51,.54s.43,.18,.67,.18,.47-.06,.67-.18c.21-.12,.38-.3,.51-.53,.13-.23,.19-.51,.19-.82s-.06-.58-.19-.81Z"/>
      <path class="cls-1" d="M303.26,187.01c.19-.35,.45-.62,.77-.82,.33-.19,.69-.29,1.08-.29,.36,0,.67,.07,.93,.21,.27,.14,.48,.31,.64,.52v-.66h.95v4.53h-.95v-.67c-.16,.21-.38,.39-.65,.53-.27,.14-.59,.21-.94,.21-.39,0-.75-.1-1.07-.3-.32-.2-.58-.48-.77-.84-.19-.36-.28-.77-.28-1.22s.09-.86,.28-1.21Zm3.23,.41c-.13-.23-.3-.41-.51-.53-.21-.12-.43-.18-.67-.18s-.47,.06-.67,.18c-.21,.12-.38,.29-.51,.52-.13,.23-.19,.5-.19,.81s.06,.59,.19,.82c.13,.24,.3,.42,.51,.54s.43,.18,.67,.18,.47-.06,.67-.18c.21-.12,.38-.3,.51-.53,.13-.23,.19-.51,.19-.82s-.06-.58-.19-.81Z"/>
      <path class="cls-1" d="M310.35,186.09c.23-.13,.5-.19,.81-.19v.97h-.24c-.37,0-.65,.09-.84,.28-.19,.19-.28,.51-.28,.97v2.39h-.94v-4.53h.94v.66c.14-.23,.32-.41,.55-.54Z"/>
    </g>
    <circle class="cls-1" cx="160.98" cy="187.22" r="11.49"/>
    <g>
      <path class="cls-7" d="M166.33,191.88c.11-.06,.21-.11,.33-.17-.04,.42-.44,1.61-.63,1.85-.1-.11-.04-.23,0-.33,.14-.35,.25-.71,.17-1.1-.03-.11,.04-.19,.13-.25Z"/>
      <path class="cls-7" d="M171.22,185.93c-.11,.42-.37,.66-.63,.89-.27,.25-.6,.17-.74-.17-.11-.26-.2-.53-.29-.8-.17-.53-.39-1.03-.8-1.43-.13-.12-.25-.19-.43-.14,.14,.29,.03,.49-.19,.69-.62,.57-1.33,.98-2.13,1.26-.37,.14-.54,.07-.73-.28-.33-.63-.66-1.27-.99-1.9-.09-.16-.14-.32-.12-.5,.01-.11-.04-.19-.11-.27-.29-.31-.62-.56-1.04-.67-.34-.09-.41-.24-.38-.59-.21-.24-.48-.29-.77-.31h0s-.02,0-.03,.01c0,.02,.02,.02,.03,.03-.11,.19-.26,.31-.5,.27-.24-.04-.35-.21-.39-.43,.01,0,.03,0,.04-.02,0,0-.02-.02-.03-.03-.02,0-.04-.02-.06-.03-.23-.05-.46-.02-.7-.02-.07,0-.13,.03-.17,.09-.12,.36-.21,.43-.57,.44-.07,0-.13,0-.2,0-.49,.03-.93,.43-.96,.76,.06,0,.11-.01,.17-.01,.42,0,.83-.07,1.24-.01,.47,.07,.73,.32,.75,.77,0,.09,.42,.41,.5,.39,.02,0,.04-.04,.06-.06,.25-.29,.57-.39,.94-.27,.21,.07,.42,.13,.63,.18,.69,.16,1.13,.59,1.38,1.24,.2,.51,.4,1.02,.66,1.5,.17,.32,.39,.54,.77,.56,.15,0,.3,.05,.45,.1,.41,.14,.59,.53,.42,.93-.09,.24-.24,.44-.41,.61-.25,.26-.52,.52-.78,.77-.32,.32-.48,.66-.3,1.12,.22,.56,.05,1.05-.35,1.46-.39,.39-.49,.96-.87,1.35-.02,.02-.03,.07-.04,.1-.1,.67-.56,1.06-1.08,1.39-.78,.5-1.37,.34-1.77-.51-.23-.5-.41-1.03-.64-1.53-.28-.61-.4-1.22-.13-1.88,.14-.33,.07-.66-.2-.92-.28-.27-.39-.61-.39-.99,0-.3-.11-.38-.42-.33-.07,.01-.14,.03-.21,.04-.39,.09-.78,.15-1.17,.08-1.74-.31-2.63-2.19-1.77-3.74,.38-.68,.96-1.23,1.42-1.85,.08-.11,.1-.17,.01-.29-.35-.47-.67-.95-1.02-1.42-.14-.2-.17-.39-.07-.61,.25-.57,.48-1.16,.71-1.74,.08-.21,.22-.35,.44-.42,.83-.28,1.66-.58,2.5-.87,.19-.07,.34-.16,.46-.33,.18-.25,.38-.49,.6-.75-2.36,.06-4.43,.79-6.26,2.21,.05,.04,.08,.07,.12,.1,.95,.72,1.09,1.96,.28,2.84-.34,.36-.62,.75-.85,1.18-.11,.19-.23,.38-.32,.57-.29,.59-.65,1.1-1.24,1.42-.12,.06-.1,.13-.03,.22,.13,.18,.25,.37,.38,.56,.26,.39,.13,.72-.33,.79-.34,.06-.68,.1-1.02,.15-.33,.05-.66,.11-.91-.28-.04,.41-.04,.76-.01,1.1,0,.12,.07,.08,.14,.06,.3-.1,.61-.19,.92-.29,.19-.07,.36-.04,.53,.09,.34,.27,.7,.5,1.02,.78,.51,.45,1.08,.76,1.77,.81,0,0,.01,0,.02,0,.75,.17,1.23,.81,1.1,1.54-.06,.31-.03,.58,.07,.87,.26,.82-.07,1.5-.88,1.81-.12,.04-.17,.11-.19,.23-.1,.57-.21,1.14-.33,1.72-.03,.12,0,.18,.1,.25,.93,.67,1.94,1.17,3.04,1.51,1.42,.43,2.86,.55,4.32,.36,.78-.1,1.53-.29,2.27-.56,.18-.07,.39-.14,.53,.03,.16,.2,.3,.12,.46,.04,.09-.05,.19-.1,.29-.14,.09-.04,.13-.08,.1-.2-.05-.2,.04-.36,.21-.46,.18-.11,.36-.09,.52,.07,.06,.05,.1,.07,.17,.03,.13-.09,.26-.18,.39-.27,.04-.03,.07-.05,.04-.11-.15-.31,.03-.49,.24-.67,.88-.71,1.62-1.56,2.22-2.52,.88-1.41,1.38-2.95,1.53-4.6,.07-.7,.07-1.41-.04-2.17Zm-3.51,5.44c-.23,.73-.41,1.47-.68,2.19-.06,.16-.13,.31-.22,.45-.19,.3-.43,.54-.81,.52-.4-.03-.63-.3-.8-.63-.07-.14-.1-.3-.1-.48,0-.04,0-.09,.02-.14,.11-.44,.25-.86,.22-1.34-.03-.4,.26-.69,.62-.85,.32-.14,.52-.35,.64-.67,.02-.06,.05-.12,.08-.18,.1-.18,.24-.29,.46-.27,.21,.02,.32,.15,.38,.34,.07,.25,.14,.49,.2,.74,.03,.11,.02,.22-.01,.32Z"/>
      <path class="cls-2" d="M170.85,184.66c-.27,.21-.42,.5-.46,.9-.09-.25-.17-.43-.23-.63-.18-.55-.6-.93-.99-1.31-.15-.15-.38-.21-.6-.22-.23,0-.46,0-.7,0-.5,.02-.78,.49-.55,.93,.06,.12,.05,.18-.05,.26-.36,.28-.75,.51-1.17,.69-.11,.05-.16,.04-.21-.07-.25-.5-.51-1-.78-1.49-.06-.12-.05-.24-.05-.36,0-.22-.07-.4-.23-.54-.12-.11-.25-.21-.35-.33-.32-.4-.77-.56-1.24-.7-.28-.08-.42-.02-.6,.25-.26-.09-.51-.18-.77-.26-.01,0-.02-.01-.03-.03-.05-.04-.04-.1-.05-.16-.03-.17-.13-.27-.3-.3-.16-.04-.28,.05-.36,.18-.04,.05-.06,.11-.11,.13,0,0-.02,.01-.04,.02h-.92c-.11-.35-.23-.44-.6-.44-.76,0-1.35,.31-1.8,.94-.21-.29-.41-.57-.6-.85-.05-.07-.02-.12,0-.18,.18-.45,.37-.89,.55-1.34,.04-.11,.12-.13,.21-.16,.83-.29,1.67-.58,2.5-.87,.2-.07,.35-.18,.49-.35,.34-.44,.69-.87,1.03-1.3,.07-.1,.14-.13,.27-.11,2.91,.36,5.28,1.68,7.08,3.99,.81,1.03,1.37,2.2,1.73,3.46,.03,.11,.03,.18-.07,.26Z"/>
      <path class="cls-2" d="M165.41,187.96c-.29,.38-.61,.64-.9,.94-.28,.29-.51,.61-.6,1.02-.07,.31-.02,.61,.08,.9,.1,.28,.05,.51-.17,.71-.25,.23-.43,.51-.54,.84-.01,.03-.02,.07-.05,.1-.29,.34-.46,.74-.61,1.16-.12,.34-.48,.53-.82,.68-.09,.04-.15,0-.19-.09-.07-.14-.15-.28-.21-.43-.19-.46-.37-.93-.57-1.4-.15-.36-.19-.7-.05-1.08,.12-.32,.16-.66,.08-1.01-.07-.29-.21-.54-.41-.76-.12-.13-.18-.27-.19-.45-.06-.93-.66-1.37-1.58-1.16-.33,.08-.67,.16-1.01,.09-1.09-.22-1.62-1.38-1.11-2.41,.07-.14,.16-.28,.26-.4,.34-.38,.66-.78,.95-1.2,.13-.19,.31-.3,.55-.31,.34-.02,.68-.04,1.03-.07,.12,0,.17,.02,.15,.16-.02,.12,.02,.25,.12,.31,.44,.29,.84,.63,1.37,.76,.3,.08,.55,0,.75-.23,.09-.11,.17-.14,.31-.1,.94,.27,.94,.26,1.32,1.17,.14,.34,.28,.67,.44,1,.32,.68,.75,1.22,1.62,1.25Z"/>
      <path class="cls-2" d="M154,194.83c-.39-.34-.75-.73-1.07-1.14-1.11-1.4-1.83-2.98-2.14-4.75-.03-.17,.01-.23,.17-.28,.24-.06,.48-.14,.71-.23,.12-.05,.21-.03,.32,.05,.38,.3,.79,.57,1.16,.89,.39,.34,.83,.53,1.33,.59,.14,.02,.29,.05,.43,.08,.29,.07,.46,.28,.38,.56-.12,.44-.04,.85,.11,1.26,.12,.36,0,.63-.37,.71-.47,.11-.68,.36-.73,.84-.04,.43-.16,.86-.24,1.29,0,.04,0,.09-.06,.12Z"/>
      <path class="cls-2" d="M151.88,185.97c-.45,.14-.85,0-1.06-.37-.03-.05,0-.1,0-.15,.29-1.68,.96-3.2,2-4.55,.29-.38,.62-.74,.96-1.08,.08-.08,.14-.09,.24-.04,.62,.28,.87,1.07,.41,1.56-.7,.74-1.11,1.65-1.63,2.5-.1,.16-.2,.29-.36,.4-.24,.16-.46,.33-.7,.49-.36,.26-.39,.46-.14,.83,.09,.14,.19,.27,.28,.42Z"/>
      <path d="M166.66,191.71c-.04,.42-.44,1.61-.63,1.85-.1-.11-.04-.23,0-.33,.14-.35,.25-.71,.17-1.1-.03-.11,.04-.19,.13-.25,.11-.06,.21-.11,.33-.17Z"/>
      <path class="cls-8" d="M166.66,191.71c-.04,.42-.44,1.61-.63,1.85-.1-.11-.04-.23,0-.33,.14-.35,.25-.71,.17-1.1-.03-.11,.04-.19,.13-.25,.11-.06,.21-.11,.33-.17Z"/>
    </g>
  </g>
</svg>